<?xml version="1.0" encoding="UTF-8"?>
<!DOCTYPE svg PUBLIC "-//W3C//DTD SVG 1.1//EN" "http://www.w3.org/Graphics/SVG/1.1/DTD/svg11.dtd">
<svg xmlns="http://www.w3.org/2000/svg" version="1.1" width="461px" height="522px" style="shape-rendering:geometricPrecision; text-rendering:geometricPrecision; image-rendering:optimizeQuality; fill-rule:evenodd; clip-rule:evenodd" xmlns:xlink="http://www.w3.org/1999/xlink">
<g><path style="opacity:1" fill="#231e1b" d="M 410.5,169.5 C 408.941,172.868 408.108,176.535 408,180.5C 407.185,185.352 407.352,190.019 408.5,194.5C 406.906,208.261 404.906,221.928 402.5,235.5C 400.421,242.235 399.087,249.235 398.5,256.5C 398.5,256.833 398.5,257.167 398.5,257.5C 396.408,262.874 395.075,268.54 394.5,274.5C 379.301,349.108 342.968,410.941 285.5,460C 267.281,474.708 247.614,487.208 226.5,497.5C 157.859,461.356 108.025,407.69 77,336.5C 58.602,292.241 47.102,246.241 42.5,198.5C 43.1471,197.726 43.4805,196.726 43.5,195.5C 42.9132,188.299 41.9132,181.299 40.5,174.5C 39.712,168.915 39.212,163.248 39,157.5C 38.5,130.502 38.3334,103.502 38.5,76.5C 106.434,74.7162 170.767,58.7162 231.5,28.5C 287.472,61.8346 348.139,76.5013 413.5,72.5C 414.031,104.892 413.031,137.226 410.5,169.5 Z"/></g>
<g><path style="opacity:1" fill="#fafafa" d="M 229.5,44.5 C 253.856,59.1698 279.856,70.3365 307.5,78C 338.135,84.5754 369.135,87.4087 400.5,86.5C 400.433,107.838 400.1,129.172 399.5,150.5C 339.227,156.215 283.06,143.881 231,113.5C 192.783,134.265 151.95,146.432 108.5,150C 89.5637,152.264 70.5637,153.431 51.5,153.5C 51.2904,132.153 51.6237,110.82 52.5,89.5C 105.571,88.1863 156.571,77.353 205.5,57C 214.002,53.5841 222.002,49.4174 229.5,44.5 Z"/></g>
<g><path style="opacity:1" fill="#1d1916" d="M 210.5,80.5 C 212.833,80.5 215.167,80.5 217.5,80.5C 217.5,83.1667 217.5,85.8333 217.5,88.5C 219.948,89.4731 222.615,89.8064 225.5,89.5C 225.5,86.5 225.5,83.5 225.5,80.5C 227.5,80.5 229.5,80.5 231.5,80.5C 231.5,88.1667 231.5,95.8333 231.5,103.5C 229.5,103.5 227.5,103.5 225.5,103.5C 225.81,100.287 225.477,97.2869 224.5,94.5C 222.167,94.5 219.833,94.5 217.5,94.5C 216.523,97.2869 216.19,100.287 216.5,103.5C 214.5,103.5 212.5,103.5 210.5,103.5C 210.5,95.8333 210.5,88.1667 210.5,80.5 Z"/></g>
<g><path style="opacity:1" fill="#73706e" d="M 231.5,80.5 C 232.492,88.3159 232.826,96.3159 232.5,104.5C 229.833,104.5 227.167,104.5 224.5,104.5C 224.5,101.167 224.5,97.8333 224.5,94.5C 225.477,97.2869 225.81,100.287 225.5,103.5C 227.5,103.5 229.5,103.5 231.5,103.5C 231.5,95.8333 231.5,88.1667 231.5,80.5 Z"/></g>
<g><path style="opacity:1" fill="#231e1c" d="M 243.5,80.5 C 246.448,80.2229 249.281,80.5562 252,81.5C 254.401,88.8706 256.901,96.2039 259.5,103.5C 257.167,104.833 254.833,104.833 252.5,103.5C 252.167,102.833 251.833,102.167 251.5,101.5C 248.572,100.516 245.572,100.183 242.5,100.5C 242.67,101.822 242.337,102.989 241.5,104C 239.098,104.814 236.765,104.647 234.5,103.5C 237.79,95.9238 240.79,88.2571 243.5,80.5 Z"/></g>
<g><path style="opacity:1" fill="#25211e" d="M 189.5,81.5 C 192.247,81.1866 194.914,81.52 197.5,82.5C 200.833,89.8333 204.167,97.1667 207.5,104.5C 205.235,105.647 202.902,105.814 200.5,105C 199.663,103.989 199.33,102.822 199.5,101.5C 196.5,101.5 193.5,101.5 190.5,101.5C 190.714,103.144 190.38,104.644 189.5,106C 187.098,106.814 184.765,106.647 182.5,105.5C 185.147,97.5777 187.48,89.5777 189.5,81.5 Z"/></g>
<g><path style="opacity:1" fill="#221d1a" d="M 263.5,82.5 C 268.844,82.334 274.177,82.5006 279.5,83C 283.292,85.0527 284.458,88.2194 283,92.5C 281.992,94.259 280.492,95.4257 278.5,96C 281.653,98.8046 283.319,102.305 283.5,106.5C 281.076,106.808 278.743,106.474 276.5,105.5C 275.167,102.833 273.833,100.167 272.5,97.5C 271.675,96.6143 270.675,96.281 269.5,96.5C 269.5,99.5 269.5,102.5 269.5,105.5C 267.167,105.5 264.833,105.5 262.5,105.5C 262.403,97.8088 262.737,90.1421 263.5,82.5 Z"/></g>
<g><path style="opacity:1" fill="#241f1c" d="M 172.5,84.5 C 174.167,84.5 175.833,84.5 177.5,84.5C 177.263,85.791 177.596,86.791 178.5,87.5C 178.948,94.19 179.615,100.857 180.5,107.5C 178.5,107.5 176.5,107.5 174.5,107.5C 172.985,85.1534 171.652,85.4868 170.5,108.5C 168.396,108.799 166.396,108.466 164.5,107.5C 162.944,102.722 161.11,98.0548 159,93.5C 159.023,98.0068 159.523,102.507 160.5,107C 159.617,109.906 157.617,111.073 154.5,110.5C 153.504,102.529 152.837,94.5295 152.5,86.5C 155.554,85.6789 158.554,85.6789 161.5,86.5C 163,90.1667 164.5,93.8333 166,97.5C 166.993,93.5577 167.66,89.5577 168,85.5C 169.356,84.6198 170.856,84.2865 172.5,84.5 Z"/></g>
<g><path style="opacity:1" fill="#8b8886" d="M 172.5,84.5 C 174.265,83.5386 176.265,83.2053 178.5,83.5C 178.5,84.8333 178.5,86.1667 178.5,87.5C 177.596,86.791 177.263,85.791 177.5,84.5C 175.833,84.5 174.167,84.5 172.5,84.5 Z"/></g>
<g><path style="opacity:1" fill="#241f1c" d="M 289.5,84.5 C 295.336,84.8828 301.002,86.0495 306.5,88C 308.917,90.4794 309.917,93.4794 309.5,97C 310.104,105.308 306.271,109.475 298,109.5C 294.51,109.001 291.01,108.668 287.5,108.5C 287.8,100.466 288.467,92.4664 289.5,84.5 Z"/></g>
<g><path style="opacity:1" fill="#e8e7e7" d="M 270.5,87.5 C 272.5,87.5 274.5,87.5 276.5,87.5C 276.938,91.9083 274.938,93.5749 270.5,92.5C 270.5,90.8333 270.5,89.1667 270.5,87.5 Z"/></g>
<g><path style="opacity:1" fill="#706d6b" d="M 225.5,80.5 C 225.5,83.5 225.5,86.5 225.5,89.5C 222.615,89.8064 219.948,89.4731 217.5,88.5C 219.833,88.5 222.167,88.5 224.5,88.5C 224.194,85.6146 224.527,82.9479 225.5,80.5 Z"/></g>
<g><path style="opacity:1" fill="#e4e3e3" d="M 193.5,88.5 C 195.267,90.7916 196.267,93.4582 196.5,96.5C 195.167,96.5 193.833,96.5 192.5,96.5C 192.401,93.7628 192.735,91.0961 193.5,88.5 Z"/></g>
<g><path style="opacity:1" fill="#d9d9d8" d="M 246.5,87.5 C 248.482,89.597 249.482,92.2637 249.5,95.5C 247.712,95.7852 246.045,95.4519 244.5,94.5C 245.577,92.2706 246.244,89.9372 246.5,87.5 Z"/></g>
<g><path style="opacity:1" fill="#231e1c" d="M 315.5,88.5 C 317.806,88.9926 320.139,89.3259 322.5,89.5C 322.492,92.5448 322.159,95.5448 321.5,98.5C 324.167,98.5 326.833,98.5 329.5,98.5C 329.993,96.1944 330.326,93.861 330.5,91.5C 332.861,91.6741 335.194,92.0074 337.5,92.5C 336.167,100.167 334.833,107.833 333.5,115.5C 331.208,115.756 329.041,115.423 327,114.5C 327.201,111.223 327.368,107.889 327.5,104.5C 325.085,104.373 322.751,104.207 320.5,104C 319.556,106.719 319.223,109.552 319.5,112.5C 317.167,112.5 314.833,112.5 312.5,112.5C 313.175,104.463 314.175,96.4632 315.5,88.5 Z"/></g>
<g><path style="opacity:1" fill="#efefef" d="M 295.5,90.5 C 300.486,89.9722 302.819,92.1388 302.5,97C 302.911,102.088 300.578,104.255 295.5,103.5C 295.5,99.1667 295.5,94.8333 295.5,90.5 Z"/></g>
<g><path style="opacity:1" fill="#231e1b" d="M 130.5,90.5 C 132.527,90.3379 134.527,90.5045 136.5,91C 134.375,94.0823 132.375,97.2489 130.5,100.5C 134.167,104.5 137.833,108.5 141.5,112.5C 138.602,113.848 135.602,114.348 132.5,114C 130.667,111.5 128.833,109 127,106.5C 125.151,109.54 123.984,112.874 123.5,116.5C 121.677,117.747 119.677,118.414 117.5,118.5C 116.94,110.7 115.607,103.034 113.5,95.5C 119.801,92.0836 122.635,94.0836 122,101.5C 123.912,96.9526 126.746,93.2859 130.5,90.5 Z"/></g>
<g><path style="opacity:1" fill="#777472" d="M 210.5,80.5 C 210.5,88.1667 210.5,95.8333 210.5,103.5C 212.5,103.5 214.5,103.5 216.5,103.5C 216.19,100.287 216.523,97.2869 217.5,94.5C 217.5,97.8333 217.5,101.167 217.5,104.5C 214.833,104.5 212.167,104.5 209.5,104.5C 209.174,96.3159 209.508,88.3159 210.5,80.5 Z"/></g>
<g><path style="opacity:1" fill="#221d1a" d="M 343.5,94.5 C 345.89,94.9126 348.223,95.5793 350.5,96.5C 348.518,103.76 346.852,111.093 345.5,118.5C 343.473,118.662 341.473,118.495 339.5,118C 338.941,117.275 338.608,116.442 338.5,115.5C 340.644,108.594 342.31,101.594 343.5,94.5 Z"/></g>
<g><path style="opacity:1" fill="#221d1b" d="M 96.5,112.5 C 96.7828,113.289 97.2828,113.956 98,114.5C 98.8119,110.311 98.6453,106.311 97.5,102.5C 97.4142,101.504 97.7476,100.671 98.5,100C 100.871,99.2652 103.205,98.4318 105.5,97.5C 108.726,104.5 111.392,111.834 113.5,119.5C 111.696,120.768 109.696,121.435 107.5,121.5C 106.514,116.04 105.014,110.707 103,105.5C 103.072,111.48 103.239,117.48 103.5,123.5C 101.774,123.815 100.107,123.981 98.5,124C 95.2916,119.753 92.4583,115.253 90,110.5C 90.9599,115.556 92.4599,120.556 94.5,125.5C 92.6957,126.768 90.6957,127.435 88.5,127.5C 86.129,120.236 84.2957,112.902 83,105.5C 85.696,103.658 88.5293,103.325 91.5,104.5C 93.1933,107.184 94.86,109.851 96.5,112.5 Z"/></g>
<g><path style="opacity:1" fill="#221d1b" d="M 356.5,98.5 C 358.861,98.6741 361.194,99.0074 363.5,99.5C 362.658,102.498 362.158,105.498 362,108.5C 366.819,102.628 372.319,101.628 378.5,105.5C 375.47,107.676 372.47,109.843 369.5,112C 371.2,117.033 372.2,122.2 372.5,127.5C 369.626,127.377 367.126,126.377 365,124.5C 364.703,121.086 364.036,117.753 363,114.5C 359.188,115.813 357.021,118.48 356.5,122.5C 354.618,121.907 352.785,121.24 351,120.5C 352.296,113.098 354.129,105.764 356.5,98.5 Z"/></g>
<g><path style="opacity:1" fill="#8d8b89" d="M 97.5,102.5 C 98.6453,106.311 98.8119,110.311 98,114.5C 97.2828,113.956 96.7828,113.289 96.5,112.5C 97.4794,109.375 97.8128,106.042 97.5,102.5 Z"/></g>
<g><path style="opacity:1" fill="#211c1a" d="M 68.5,109.5 C 70.5273,109.338 72.5273,109.505 74.5,110C 76.1802,110.347 77.1802,111.347 77.5,113C 75.1817,116.364 72.515,116.864 69.5,114.5C 67.0847,114.719 66.0847,116.052 66.5,118.5C 71.1785,118.334 75.8452,118.501 80.5,119C 82.9938,122.647 83.1605,126.481 81,130.5C 76.7779,134.052 71.9446,135.219 66.5,134C 62.4471,130.801 63.1138,128.634 68.5,127.5C 72.9265,130.736 75.5932,129.736 76.5,124.5C 71.57,124.803 66.7367,124.469 62,123.5C 60.5783,120.97 60.245,118.303 61,115.5C 63.1141,112.879 65.6141,110.879 68.5,109.5 Z"/></g>
<g><path style="opacity:1" fill="#25211e" d="M 389.5,110.5 C 392.049,110.387 394.382,111.054 396.5,112.5C 397.498,120.807 397.831,129.14 397.5,137.5C 392.187,137.982 389.854,135.649 390.5,130.5C 388.095,130.134 385.762,129.467 383.5,128.5C 382.167,129.167 380.833,129.833 379.5,130.5C 377.865,129.954 376.199,129.62 374.5,129.5C 374.351,128.448 374.517,127.448 375,126.5C 379.671,120.997 384.504,115.664 389.5,110.5 Z"/></g>
<g><path style="opacity:1" fill="#dcdbdb" d="M 390.5,117.5 C 391.473,119.948 391.806,122.615 391.5,125.5C 389.516,125.617 387.85,124.95 386.5,123.5C 387.844,121.471 389.177,119.471 390.5,117.5 Z"/></g>
<g><path style="opacity:1" fill="#d9251d" d="M 353.5,161.5 C 367.5,162.167 381.5,162.833 395.5,163.5C 365.833,186.167 336.167,208.833 306.5,231.5C 304.213,226.925 301.879,222.259 299.5,217.5C 302.651,213.849 305.984,210.349 309.5,207C 300.333,197.833 291.167,188.667 282,179.5C 278.651,183.016 275.151,186.349 271.5,189.5C 265.516,186.172 259.183,183.839 252.5,182.5C 252.5,177.5 252.5,172.5 252.5,167.5C 239.5,167.5 226.5,167.5 213.5,167.5C 213.5,172.5 213.5,177.5 213.5,182.5C 206.925,183.747 200.758,186.081 195,189.5C 191.547,187.05 188.38,184.217 185.5,181C 184.5,180.333 183.5,180.333 182.5,181C 174.333,189.167 166.167,197.333 158,205.5C 157.333,206.5 157.333,207.5 158,208.5C 161.217,211.38 164.05,214.547 166.5,218C 163.174,223.813 160.841,229.98 159.5,236.5C 154.5,236.5 149.5,236.5 144.5,236.5C 144.5,249.5 144.5,262.5 144.5,275.5C 149.544,275.173 154.544,275.506 159.5,276.5C 161.344,282.533 163.677,288.366 166.5,294C 163.5,297.667 160.5,301.333 157.5,305C 162.324,310.658 167.324,316.158 172.5,321.5C 168.346,327.13 164.679,333.13 161.5,339.5C 160.662,339.842 160.328,340.508 160.5,341.5C 144.833,353.5 129.167,365.5 113.5,377.5C 98.2005,354.901 86.0338,330.568 77,304.5C 62.9279,265.405 55.0945,225.071 53.5,183.5C 53.5,177.5 53.5,171.5 53.5,165.5C 59.0262,165.821 64.3595,165.488 69.5,164.5C 115.93,163.406 160.93,154.906 204.5,139C 213.394,134.97 222.227,130.803 231,126.5C 268.931,148.198 309.764,159.864 353.5,161.5 Z"/></g>
<g><path style="opacity:1" fill="#8c211b" d="M 353.5,161.5 C 368.343,161.171 383.01,161.504 397.5,162.5C 396.833,162.833 396.167,163.167 395.5,163.5C 381.5,162.833 367.5,162.167 353.5,161.5 Z"/></g>
<g><path style="opacity:1" fill="#fdfcfc" d="M 397.5,162.5 C 395.88,223.767 383.714,282.767 361,339.5C 333.309,401.858 289.142,448.691 228.5,480C 227.167,480.667 225.833,480.667 224.5,480C 178.205,455.86 141.205,421.694 113.5,377.5C 129.167,365.5 144.833,353.5 160.5,341.5C 159.529,343.483 158.529,345.483 157.5,347.5C 157.167,348.167 156.833,348.833 156.5,349.5C 155.374,350.858 155.374,352.192 156.5,353.5C 167.574,359.56 179.241,361.06 191.5,358C 196.662,352.505 202.662,348.171 209.5,345C 217.792,343.153 224.792,345.32 230.5,351.5C 231.5,352.833 232.5,352.833 233.5,351.5C 242.978,342.778 252.978,342.278 263.5,350C 268.143,357.072 274.643,360.239 283,359.5C 292.478,359.994 300.978,357.494 308.5,352C 308.192,350.541 307.525,349.374 306.5,348.5C 306.5,348.167 306.5,347.833 306.5,347.5C 305.833,346.167 305.167,344.833 304.5,343.5C 306.833,343.5 309.167,343.5 311.5,343.5C 311.338,341.473 311.505,339.473 312,337.5C 315.167,335.667 317.667,333.167 319.5,330C 321.473,329.505 323.473,329.338 325.5,329.5C 325.5,324.167 325.5,318.833 325.5,313.5C 323.473,313.662 321.473,313.495 319.5,313C 317.667,309.833 315.167,307.333 312,305.5C 311.809,303.292 311.309,301.292 310.5,299.5C 305.511,300.609 301.844,298.942 299.5,294.5C 302.828,288.516 305.161,282.183 306.5,275.5C 311.5,275.5 316.5,275.5 321.5,275.5C 321.5,262.5 321.5,249.5 321.5,236.5C 316.5,236.5 311.5,236.5 306.5,236.5C 306.5,234.833 306.5,233.167 306.5,231.5C 336.167,208.833 365.833,186.167 395.5,163.5C 396.167,163.167 396.833,162.833 397.5,162.5 Z"/></g>
<g><path style="opacity:1" fill="#201a17" d="M 306.5,231.5 C 306.5,233.167 306.5,234.833 306.5,236.5C 311.5,236.5 316.5,236.5 321.5,236.5C 321.5,249.5 321.5,262.5 321.5,275.5C 316.5,275.5 311.5,275.5 306.5,275.5C 305.161,282.183 302.828,288.516 299.5,294.5C 301.844,298.942 305.511,300.609 310.5,299.5C 310.5,300.167 310.167,300.5 309.5,300.5C 305.167,300.5 300.833,300.5 296.5,300.5C 296.5,302.5 296.5,304.5 296.5,306.5C 292.874,308.459 289.874,311.126 287.5,314.5C 285.833,314.5 284.167,314.5 282.5,314.5C 282.5,319.167 282.5,323.833 282.5,328.5C 284.167,328.5 285.833,328.5 287.5,328.5C 289.807,331.638 292.641,334.305 296,336.5C 296.494,338.134 296.66,339.801 296.5,341.5C 298.948,342.473 301.615,342.806 304.5,342.5C 304.5,342.833 304.5,343.167 304.5,343.5C 305.167,344.833 305.833,346.167 306.5,347.5C 299.291,350.511 291.791,352.511 284,353.5C 279.028,353.072 274.194,352.072 269.5,350.5C 267.704,348.1 265.37,346.433 262.5,345.5C 252.103,336.931 242.27,337.598 233,347.5C 232.51,346.207 232.343,344.873 232.5,343.5C 236.47,339.432 241.303,337.099 247,336.5C 249.591,336.565 252.091,337.065 254.5,338C 261.374,341.937 268.374,345.603 275.5,349C 284.138,350.455 292.138,348.789 299.5,344C 298.207,343.51 296.873,343.343 295.5,343.5C 295.662,341.473 295.495,339.473 295,337.5C 292.022,335.689 289.522,333.356 287.5,330.5C 285.604,329.534 283.604,329.201 281.5,329.5C 281.028,323.283 281.695,317.283 283.5,311.5C 284.482,312.141 285.482,312.807 286.5,313.5C 288.833,310.5 291.5,307.833 294.5,305.5C 295.487,302.716 296.32,300.049 297,297.5C 288.687,288.2 280.854,278.533 273.5,268.5C 271.167,268.167 268.833,267.833 266.5,267.5C 263.731,267.529 261.397,268.195 259.5,269.5C 254.456,267.791 249.122,266.957 243.5,267C 242.667,266.167 241.833,265.333 241,264.5C 240.333,253.5 240.333,242.5 241,231.5C 241.833,230.667 242.667,229.833 243.5,229C 256.34,228.173 269.007,228.34 281.5,229.5C 269.162,229.333 256.829,229.5 244.5,230C 242.081,231.509 241.081,233.675 241.5,236.5C 241.5,236.833 241.5,237.167 241.5,237.5C 241.5,238.5 241.5,239.5 241.5,240.5C 241.5,241.167 241.5,241.833 241.5,242.5C 241.5,243.5 241.5,244.5 241.5,245.5C 241.5,245.833 241.5,246.167 241.5,246.5C 241.334,252.176 241.501,257.843 242,263.5C 242.833,264.333 243.667,265.167 244.5,266C 256.829,266.5 269.162,266.667 281.5,266.5C 279.369,267.314 277.036,267.814 274.5,268C 278.167,272.333 281.833,276.667 285.5,281C 286.483,281.591 287.15,281.257 287.5,280C 298.498,251.34 292.164,227.34 268.5,208C 235.487,188.47 206.987,193.636 183,223.5C 171.32,243.38 170.487,263.713 180.5,284.5C 180.833,285.5 181.5,286.167 182.5,286.5C 186.078,292.747 190.744,298.08 196.5,302.5C 196.5,302.833 196.5,303.167 196.5,303.5C 192.13,304.594 187.796,304.761 183.5,304C 179.683,309.813 176.017,315.647 172.5,321.5C 167.324,316.158 162.324,310.658 157.5,305C 160.5,301.333 163.5,297.667 166.5,294C 163.677,288.366 161.344,282.533 159.5,276.5C 154.544,275.506 149.544,275.173 144.5,275.5C 144.5,262.5 144.5,249.5 144.5,236.5C 149.5,236.5 154.5,236.5 159.5,236.5C 160.841,229.98 163.174,223.813 166.5,218C 164.05,214.547 161.217,211.38 158,208.5C 157.333,207.5 157.333,206.5 158,205.5C 166.167,197.333 174.333,189.167 182.5,181C 183.5,180.333 184.5,180.333 185.5,181C 188.38,184.217 191.547,187.05 195,189.5C 200.758,186.081 206.925,183.747 213.5,182.5C 213.5,177.5 213.5,172.5 213.5,167.5C 226.5,167.5 239.5,167.5 252.5,167.5C 252.5,172.5 252.5,177.5 252.5,182.5C 259.183,183.839 265.516,186.172 271.5,189.5C 275.151,186.349 278.651,183.016 282,179.5C 291.167,188.667 300.333,197.833 309.5,207C 305.984,210.349 302.651,213.849 299.5,217.5C 301.879,222.259 304.213,226.925 306.5,231.5 Z"/></g>
<g><path style="opacity:1" fill="#a4221b" d="M 69.5,164.5 C 64.3595,165.488 59.0262,165.821 53.5,165.5C 53.5,171.5 53.5,177.5 53.5,183.5C 52.5098,177.355 52.1765,171.022 52.5,164.5C 58.1667,164.5 63.8333,164.5 69.5,164.5 Z"/></g>
<g><path style="opacity:0.998" fill="#4d4947" d="M 410.5,169.5 C 409.833,177.833 409.167,186.167 408.5,194.5C 407.352,190.019 407.185,185.352 408,180.5C 408.108,176.535 408.941,172.868 410.5,169.5 Z"/></g>
<g><path style="opacity:0.812" fill="#4e4a47" d="M 40.5,174.5 C 41.9132,181.299 42.9132,188.299 43.5,195.5C 43.4805,196.726 43.1471,197.726 42.5,198.5C 41.3056,190.555 40.639,182.555 40.5,174.5 Z"/></g>
<g><path style="opacity:1" fill="#fafafa" d="M 281.5,266.5 C 282.496,266.586 283.329,266.252 284,265.5C 284.667,253.833 284.667,242.167 284,230.5C 283.329,229.748 282.496,229.414 281.5,229.5C 269.007,228.34 256.34,228.173 243.5,229C 242.667,229.833 241.833,230.667 241,231.5C 240.333,242.5 240.333,253.5 241,264.5C 241.833,265.333 242.667,266.167 243.5,267C 249.122,266.957 254.456,267.791 259.5,269.5C 264.609,278.883 269.609,288.383 274.5,298C 273.623,300.378 271.956,301.878 269.5,302.5C 262.958,301.041 256.625,298.875 250.5,296C 246.833,295.333 243.167,295.333 239.5,296C 242.5,296.333 245.5,296.667 248.5,297C 255.102,299.534 261.769,301.867 268.5,304C 271.817,304.498 275.15,304.665 278.5,304.5C 278.833,304.5 279.167,304.5 279.5,304.5C 280.079,307.331 281.412,309.664 283.5,311.5C 281.695,317.283 281.028,323.283 281.5,329.5C 283.604,329.201 285.604,329.534 287.5,330.5C 289.522,333.356 292.022,335.689 295,337.5C 295.495,339.473 295.662,341.473 295.5,343.5C 296.873,343.343 298.207,343.51 299.5,344C 292.138,348.789 284.138,350.455 275.5,349C 268.374,345.603 261.374,341.937 254.5,338C 252.091,337.065 249.591,336.565 247,336.5C 241.303,337.099 236.47,339.432 232.5,343.5C 232.185,329.784 232.518,316.117 233.5,302.5C 232.5,301.167 231.5,301.167 230.5,302.5C 231.482,315.784 231.815,329.117 231.5,342.5C 225.853,337.229 219.187,335.062 211.5,336C 204.167,340 196.833,344 189.5,348C 180.104,349.877 171.437,348.21 163.5,343C 162.177,342.184 161.511,341.017 161.5,339.5C 164.679,333.13 168.346,327.13 172.5,321.5C 176.017,315.647 179.683,309.813 183.5,304C 187.796,304.761 192.13,304.594 196.5,303.5C 200.062,303.035 203.395,301.868 206.5,300C 203.161,300.484 199.827,301.317 196.5,302.5C 190.744,298.08 186.078,292.747 182.5,286.5C 198.009,286.83 213.342,286.496 228.5,285.5C 228.5,280.833 228.5,276.167 228.5,271.5C 213.009,270.504 197.342,270.17 181.5,270.5C 181.819,275.363 181.486,280.03 180.5,284.5C 170.487,263.713 171.32,243.38 183,223.5C 206.987,193.636 235.487,188.47 268.5,208C 292.164,227.34 298.498,251.34 287.5,280C 287.15,281.257 286.483,281.591 285.5,281C 281.833,276.667 278.167,272.333 274.5,268C 277.036,267.814 279.369,267.314 281.5,266.5 Z"/></g>
<g><path style="opacity:1" fill="#df7416" d="M 234.5,201.5 C 236.696,202.812 239.03,203.979 241.5,205C 241.043,205.414 240.709,205.914 240.5,206.5C 241.551,209.155 242.884,211.655 244.5,214C 242.884,216.345 241.551,218.845 240.5,221.5C 240.833,222.167 241.167,222.833 241.5,223.5C 237.262,224.299 233.429,225.966 230,228.5C 227.743,226.976 225.41,225.642 223,224.5C 222.228,224.645 221.561,224.978 221,225.5C 220.581,222.243 219.747,218.91 218.5,215.5C 217.5,215.5 216.5,215.5 215.5,215.5C 215.5,214.5 215.5,213.5 215.5,212.5C 216.5,212.5 217.5,212.5 218.5,212.5C 218.5,211.167 218.5,209.833 218.5,208.5C 219.478,208.189 220.145,207.522 220.5,206.5C 219.565,203.94 220.399,203.274 223,204.5C 225.326,202.836 227.659,201.169 230,199.5C 231.3,200.707 232.8,201.374 234.5,201.5 Z"/></g>
<g><path style="opacity:1" fill="#342720" d="M 234.5,201.5 C 232.8,201.374 231.3,200.707 230,199.5C 227.659,201.169 225.326,202.836 223,204.5C 220.399,203.274 219.565,203.94 220.5,206.5C 220.145,207.522 219.478,208.189 218.5,208.5C 216.959,205.303 217.959,202.969 221.5,201.5C 222.086,201.709 222.586,202.043 223,202.5C 225.394,200.932 227.894,199.599 230.5,198.5C 232.588,198.62 233.922,199.62 234.5,201.5 Z"/></g>
<g><path style="opacity:1" fill="#3a291f" d="M 227.5,206.5 C 235.164,205.666 238.664,209 238,216.5C 235.565,221.224 231.731,222.724 226.5,221C 221.003,215.683 221.336,210.85 227.5,206.5 Z"/></g>
<g><path style="opacity:1" fill="#f4f4f3" d="M 228.5,207.5 C 235.369,207.538 237.869,210.871 236,217.5C 232.333,221.5 228.667,221.5 225,217.5C 223.581,213.082 224.748,209.749 228.5,207.5 Z"/></g>
<g><path style="opacity:1" fill="#3f332d" d="M 234.5,201.5 C 238.281,200.789 241.281,201.955 243.5,205C 242.667,207.081 242.667,209.248 243.5,211.5C 244.5,211.5 245.5,211.5 246.5,211.5C 246.5,213.5 246.5,215.5 246.5,217.5C 245.325,217.281 244.325,217.614 243.5,218.5C 242.573,220.491 242.406,222.491 243,224.5C 240.18,225.601 237.346,226.601 234.5,227.5C 233.614,228.325 233.281,229.325 233.5,230.5C 231.5,230.5 229.5,230.5 227.5,230.5C 227.5,229.5 227.5,228.5 227.5,227.5C 224.834,227.067 222.168,226.567 219.5,226C 217.475,224.806 217.141,223.306 218.5,221.5C 217.752,218.612 216.419,216.112 214.5,214C 215.599,211.964 216.932,210.131 218.5,208.5C 218.5,209.833 218.5,211.167 218.5,212.5C 217.5,212.5 216.5,212.5 215.5,212.5C 215.5,213.5 215.5,214.5 215.5,215.5C 216.5,215.5 217.5,215.5 218.5,215.5C 219.747,218.91 220.581,222.243 221,225.5C 221.561,224.978 222.228,224.645 223,224.5C 225.41,225.642 227.743,226.976 230,228.5C 233.429,225.966 237.262,224.299 241.5,223.5C 241.167,222.833 240.833,222.167 240.5,221.5C 241.551,218.845 242.884,216.345 244.5,214C 242.884,211.655 241.551,209.155 240.5,206.5C 240.709,205.914 241.043,205.414 241.5,205C 239.03,203.979 236.696,202.812 234.5,201.5 Z"/></g>
<g><path style="opacity:1" fill="#13171a" d="M 222.5,230.5 C 222.5,242.167 222.5,253.833 222.5,265.5C 219.287,265.19 216.287,265.523 213.5,266.5C 210.064,269.289 206.064,270.122 201.5,269C 200.833,268.333 200.167,267.667 199.5,267C 195.848,266.501 192.182,266.335 188.5,266.5C 188.5,254.5 188.5,242.5 188.5,230.5C 199.833,230.5 211.167,230.5 222.5,230.5 Z"/></g>
<g><path style="opacity:1" fill="#f1e901" d="M 281.5,229.5 C 283.168,231.479 283.834,233.812 283.5,236.5C 269.5,236.5 255.5,236.5 241.5,236.5C 241.081,233.675 242.081,231.509 244.5,230C 256.829,229.5 269.162,229.333 281.5,229.5 Z"/></g>
<g><path style="opacity:1" fill="#616161" d="M 222.5,230.5 C 223.495,242.322 223.828,254.322 223.5,266.5C 220.167,266.5 216.833,266.5 213.5,266.5C 216.287,265.523 219.287,265.19 222.5,265.5C 222.5,253.833 222.5,242.167 222.5,230.5 Z"/></g>
<g><path style="opacity:1" fill="#0090d8" d="M 190.5,233.5 C 200.5,233.5 210.5,233.5 220.5,233.5C 220.5,243.5 220.5,253.5 220.5,263.5C 217.615,263.194 214.948,263.527 212.5,264.5C 210.669,265.995 208.502,266.662 206,266.5C 201.042,264.885 195.875,264.218 190.5,264.5C 190.5,254.167 190.5,243.833 190.5,233.5 Z"/></g>
<g><path style="opacity:1" fill="#005783" d="M 190.5,233.5 C 200.653,232.506 210.986,232.172 221.5,232.5C 221.5,243.167 221.5,253.833 221.5,264.5C 218.5,264.5 215.5,264.5 212.5,264.5C 214.948,263.527 217.615,263.194 220.5,263.5C 220.5,253.5 220.5,243.5 220.5,233.5C 210.5,233.5 200.5,233.5 190.5,233.5 Z"/></g>
<g><path style="opacity:1" fill="#f5f101" d="M 241.5,237.5 C 255.5,237.5 269.5,237.5 283.5,237.5C 283.5,238.5 283.5,239.5 283.5,240.5C 269.5,240.5 255.5,240.5 241.5,240.5C 241.5,239.5 241.5,238.5 241.5,237.5 Z"/></g>
<g><path style="opacity:1" fill="#87800c" d="M 241.5,240.5 C 255.5,240.5 269.5,240.5 283.5,240.5C 283.5,241.167 283.5,241.833 283.5,242.5C 269.833,242.5 256.167,242.5 242.5,242.5C 242.167,242.5 241.833,242.5 241.5,242.5C 241.5,241.833 241.5,241.167 241.5,240.5 Z"/></g>
<g><path style="opacity:1" fill="#fefe00" d="M 242.5,242.5 C 256.167,242.5 269.833,242.5 283.5,242.5C 283.5,243.167 283.5,243.833 283.5,244.5C 269.459,245.149 255.792,244.482 242.5,242.5 Z"/></g>
<g><path style="opacity:0.357" fill="#696563" d="M 402.5,235.5 C 401.903,242.763 400.57,249.763 398.5,256.5C 399.087,249.235 400.421,242.235 402.5,235.5 Z"/></g>
<g><path style="opacity:1" fill="#aea607" d="M 241.5,242.5 C 241.833,242.5 242.167,242.5 242.5,242.5C 255.792,244.482 269.459,245.149 283.5,244.5C 269.677,245.496 255.677,245.829 241.5,245.5C 241.5,244.5 241.5,243.5 241.5,242.5 Z"/></g>
<g><path style="opacity:1" fill="#3c3515" d="M 281.5,229.5 C 282.496,229.414 283.329,229.748 284,230.5C 284.667,242.167 284.667,253.833 284,265.5C 283.329,266.252 282.496,266.586 281.5,266.5C 281.783,265.711 282.283,265.044 283,264.5C 283.499,258.509 283.666,252.509 283.5,246.5C 269.5,246.5 255.5,246.5 241.5,246.5C 241.5,246.167 241.5,245.833 241.5,245.5C 255.677,245.829 269.677,245.496 283.5,244.5C 283.5,243.833 283.5,243.167 283.5,242.5C 283.5,241.833 283.5,241.167 283.5,240.5C 283.5,239.5 283.5,238.5 283.5,237.5C 269.5,237.5 255.5,237.5 241.5,237.5C 241.5,237.167 241.5,236.833 241.5,236.5C 255.5,236.5 269.5,236.5 283.5,236.5C 283.834,233.812 283.168,231.479 281.5,229.5 Z"/></g>
<g><path style="opacity:1" fill="#f8f00b" d="M 241.5,246.5 C 255.5,246.5 269.5,246.5 283.5,246.5C 283.666,252.509 283.499,258.509 283,264.5C 282.283,265.044 281.783,265.711 281.5,266.5C 269.162,266.667 256.829,266.5 244.5,266C 243.667,265.167 242.833,264.333 242,263.5C 241.501,257.843 241.334,252.176 241.5,246.5 Z"/></g>
<g><path style="opacity:1" fill="#393433" d="M 260.5,250.5 C 266.488,250.664 267.821,253.164 264.5,258C 258.202,258.495 256.868,255.995 260.5,250.5 Z"/></g>
<g><path style="opacity:1" fill="#00273c" d="M 194.5,236.5 C 194.5,243.833 194.5,251.167 194.5,258.5C 202.167,258.5 209.833,258.5 217.5,258.5C 217.5,251.167 217.5,243.833 217.5,236.5C 218.492,243.982 218.825,251.648 218.5,259.5C 210.167,259.5 201.833,259.5 193.5,259.5C 193.175,251.648 193.508,243.982 194.5,236.5 Z"/></g>
<g><path style="opacity:1" fill="#060606" d="M 194.5,236.5 C 202.167,236.5 209.833,236.5 217.5,236.5C 217.5,243.833 217.5,251.167 217.5,258.5C 209.833,258.5 202.167,258.5 194.5,258.5C 194.5,251.167 194.5,243.833 194.5,236.5 Z"/></g>
<g><path style="opacity:1" fill="#cecece" d="M 201.5,241.5 C 208.305,237.732 212.638,239.732 214.5,247.5C 212.697,255.546 208.03,257.879 200.5,254.5C 197.693,251.722 196.86,248.389 198,244.5C 198.422,242.574 199.589,241.574 201.5,241.5 Z"/></g>
<g><path style="opacity:1" fill="#171717" d="M 210.5,248.5 C 213.774,248.628 213.941,249.961 211,252.5C 210.51,251.207 210.343,249.873 210.5,248.5 Z"/></g>
<g><path style="opacity:1" fill="#161616" d="M 198.5,248.5 C 199.5,248.5 200.5,248.5 201.5,248.5C 201.354,253.421 200.354,253.421 198.5,248.5 Z"/></g>
<g><path style="opacity:1" fill="#4d4d4d" d="M 201.5,241.5 C 202.222,241.918 202.722,242.584 203,243.5C 204.383,240.924 205.217,241.258 205.5,244.5C 204.497,256.334 203.331,256.334 202,244.5C 201.517,245.448 201.351,246.448 201.5,247.5C 200.325,247.719 199.325,247.386 198.5,246.5C 199.26,244.64 200.26,242.973 201.5,241.5 Z"/></g>
<g><path style="opacity:1" fill="#383838" d="M 206.5,240.5 C 207.315,241.429 208.148,242.429 209,243.5C 209.333,242.833 209.667,242.167 210,241.5C 212.064,243.243 212.564,245.243 211.5,247.5C 210.749,246.624 210.249,245.624 210,244.5C 209.855,248.037 209.022,251.371 207.5,254.5C 206.507,249.88 206.173,245.214 206.5,240.5 Z"/></g>
<g><path style="opacity:1" fill="#000d13" d="M 203.5,263.5 C 205.288,263.215 206.955,263.548 208.5,264.5C 207.667,264.833 206.833,265.167 206,265.5C 204.624,265.316 203.791,264.649 203.5,263.5 Z"/></g>
<g><path style="opacity:0.235" fill="#757270" d="M 398.5,257.5 C 397.913,263.456 396.579,269.122 394.5,274.5C 395.075,268.54 396.408,262.874 398.5,257.5 Z"/></g>
<g><path style="opacity:1" fill="#efe902" d="M 283.5,311.5 C 282.921,308.669 281.588,306.336 279.5,304.5C 273.589,292.337 266.922,280.67 259.5,269.5C 261.397,268.195 263.731,267.529 266.5,267.5C 268.833,267.833 271.167,268.167 273.5,268.5C 280.854,278.533 288.687,288.2 297,297.5C 296.32,300.049 295.487,302.716 294.5,305.5C 291.5,307.833 288.833,310.5 286.5,313.5C 285.482,312.807 284.482,312.141 283.5,311.5 Z"/></g>
<g><path style="opacity:1" fill="#9c9c9c" d="M 228.5,271.5 C 213.167,271.5 197.833,271.5 182.5,271.5C 182.5,276.167 182.5,280.833 182.5,285.5C 197.833,285.5 213.167,285.5 228.5,285.5C 213.342,286.496 198.009,286.83 182.5,286.5C 181.5,286.167 180.833,285.5 180.5,284.5C 181.486,280.03 181.819,275.363 181.5,270.5C 197.342,270.17 213.009,270.504 228.5,271.5 Z"/></g>
<g><path style="opacity:1" fill="#061118" d="M 228.5,271.5 C 228.5,276.167 228.5,280.833 228.5,285.5C 213.167,285.5 197.833,285.5 182.5,285.5C 182.5,280.833 182.5,276.167 182.5,271.5C 197.833,271.5 213.167,271.5 228.5,271.5 Z"/></g>
<g><path style="opacity:1" fill="#008ad0" d="M 183.5,273.5 C 197.833,273.5 212.167,273.5 226.5,273.5C 226.5,276.833 226.5,280.167 226.5,283.5C 212.167,283.5 197.833,283.5 183.5,283.5C 183.5,280.167 183.5,276.833 183.5,273.5 Z"/></g>
<g><path style="opacity:1" fill="#201b17" d="M 271.5,274.5 C 273.017,274.511 274.184,275.177 275,276.5C 279.95,283.784 285.283,290.784 291,297.5C 291.667,298.167 291.667,298.833 291,299.5C 288.823,301.965 286.323,302.965 283.5,302.5C 279,294.833 274.5,287.167 270,279.5C 269.387,277.505 269.887,275.838 271.5,274.5 Z"/></g>
<g><path style="opacity:1" fill="#061118" d="M 210.5,276.5 C 214.555,276.176 218.555,276.509 222.5,277.5C 220.5,277.833 218.5,278.167 216.5,278.5C 214.048,278.461 212.048,277.794 210.5,276.5 Z"/></g>
<g><path style="opacity:1" fill="#807d7b" d="M 213.5,295.5 C 217.182,295.335 220.848,295.501 224.5,296C 225.672,296.419 226.672,297.085 227.5,298C 224.988,297.278 222.321,296.778 219.5,296.5C 216.814,297.012 214.147,297.179 211.5,297C 212.416,296.722 213.082,296.222 213.5,295.5 Z"/></g>
<g><path style="opacity:1" fill="#28231e" d="M 259.5,269.5 C 266.922,280.67 273.589,292.337 279.5,304.5C 279.167,304.5 278.833,304.5 278.5,304.5C 275.5,303.833 272.5,303.167 269.5,302.5C 271.956,301.878 273.623,300.378 274.5,298C 269.609,288.383 264.609,278.883 259.5,269.5 Z"/></g>
<g><path style="opacity:1" fill="#84817f" d="M 269.5,302.5 C 272.5,303.167 275.5,303.833 278.5,304.5C 275.15,304.665 271.817,304.498 268.5,304C 261.769,301.867 255.102,299.534 248.5,297C 245.5,296.667 242.5,296.333 239.5,296C 243.167,295.333 246.833,295.333 250.5,296C 256.625,298.875 262.958,301.041 269.5,302.5 Z"/></g>
<g><path style="opacity:1" fill="#9f9708" d="M 309.5,300.5 C 309.5,300.833 309.5,301.167 309.5,301.5C 305.5,301.5 301.5,301.5 297.5,301.5C 297.784,303.415 297.451,305.081 296.5,306.5C 296.5,304.5 296.5,302.5 296.5,300.5C 300.833,300.5 305.167,300.5 309.5,300.5 Z"/></g>
<g><path style="opacity:1" fill="#8b8987" d="M 196.5,303.5 C 196.5,303.167 196.5,302.833 196.5,302.5C 199.827,301.317 203.161,300.484 206.5,300C 203.395,301.868 200.062,303.035 196.5,303.5 Z"/></g>
<g><path style="opacity:1" fill="#fcf304" d="M 309.5,301.5 C 309.215,303.288 309.548,304.955 310.5,306.5C 313.973,308.14 316.64,310.64 318.5,314C 320.134,314.494 321.801,314.66 323.5,314.5C 323.5,318.833 323.5,323.167 323.5,327.5C 319.596,327.061 317.096,328.728 316,332.5C 314.226,333.965 312.392,335.298 310.5,336.5C 309.549,337.919 309.216,339.585 309.5,341.5C 305.167,341.5 300.833,341.5 296.5,341.5C 296.66,339.801 296.494,338.134 296,336.5C 292.641,334.305 289.807,331.638 287.5,328.5C 286.432,327.566 285.099,327.232 283.5,327.5C 283.5,323.5 283.5,319.5 283.5,315.5C 285.099,315.768 286.432,315.434 287.5,314.5C 289.874,311.126 292.874,308.459 296.5,306.5C 297.451,305.081 297.784,303.415 297.5,301.5C 301.5,301.5 305.5,301.5 309.5,301.5 Z"/></g>
<g><path style="opacity:1" fill="#322c25" d="M 279.5,304.5 C 281.588,306.336 282.921,308.669 283.5,311.5C 281.412,309.664 280.079,307.331 279.5,304.5 Z"/></g>
<g><path style="opacity:1" fill="#9d9505" d="M 287.5,314.5 C 286.432,315.434 285.099,315.768 283.5,315.5C 283.5,319.5 283.5,323.5 283.5,327.5C 285.099,327.232 286.432,327.566 287.5,328.5C 285.833,328.5 284.167,328.5 282.5,328.5C 282.5,323.833 282.5,319.167 282.5,314.5C 284.167,314.5 285.833,314.5 287.5,314.5 Z"/></g>
<g><path style="opacity:1" fill="#e7e6d9" d="M 305.5,315.5 C 309.318,316.799 310.818,319.466 310,323.5C 306.087,329.617 301.754,329.951 297,324.5C 295.481,316.855 298.315,313.855 305.5,315.5 Z"/></g>
<g><path style="opacity:1" fill="#211d1a" d="M 305.5,315.5 C 308.955,318.725 309.289,322.225 306.5,326C 298.754,326.937 296.421,323.937 299.5,317C 301.345,315.872 303.345,315.372 305.5,315.5 Z"/></g>
<g><path style="opacity:1" fill="#4e4844" d="M 310.5,299.5 C 311.309,301.292 311.809,303.292 312,305.5C 315.167,307.333 317.667,309.833 319.5,313C 321.473,313.495 323.473,313.662 325.5,313.5C 325.5,318.833 325.5,324.167 325.5,329.5C 323.473,329.338 321.473,329.505 319.5,330C 317.667,333.167 315.167,335.667 312,337.5C 311.505,339.473 311.338,341.473 311.5,343.5C 309.167,343.5 306.833,343.5 304.5,343.5C 304.5,343.167 304.5,342.833 304.5,342.5C 306.5,342.5 308.5,342.5 310.5,342.5C 310.5,340.5 310.5,338.5 310.5,336.5C 312.392,335.298 314.226,333.965 316,332.5C 317.096,328.728 319.596,327.061 323.5,327.5C 323.5,323.167 323.5,318.833 323.5,314.5C 321.801,314.66 320.134,314.494 318.5,314C 316.64,310.64 313.973,308.14 310.5,306.5C 309.548,304.955 309.215,303.288 309.5,301.5C 309.5,301.167 309.5,300.833 309.5,300.5C 310.167,300.5 310.5,300.167 310.5,299.5 Z"/></g>
<g><path style="opacity:1" fill="#4c4507" d="M 310.5,336.5 C 310.5,338.5 310.5,340.5 310.5,342.5C 308.5,342.5 306.5,342.5 304.5,342.5C 301.615,342.806 298.948,342.473 296.5,341.5C 300.833,341.5 305.167,341.5 309.5,341.5C 309.216,339.585 309.549,337.919 310.5,336.5 Z"/></g>
<g><path style="opacity:1" fill="#8c8987" d="M 232.5,343.5 C 232.343,344.873 232.51,346.207 233,347.5C 242.27,337.598 252.103,336.931 262.5,345.5C 259.738,344.62 257.071,343.454 254.5,342C 245.57,339.553 238.403,342.053 233,349.5C 232.308,350.437 232.475,351.103 233.5,351.5C 232.5,352.833 231.5,352.833 230.5,351.5C 231.525,351.103 231.692,350.437 231,349.5C 224.486,341.821 216.32,339.321 206.5,342C 216.03,337.619 224.197,339.452 231,347.5C 231.494,345.866 231.66,344.199 231.5,342.5C 231.815,329.117 231.482,315.784 230.5,302.5C 231.5,301.167 232.5,301.167 233.5,302.5C 232.518,316.117 232.185,329.784 232.5,343.5 Z"/></g>
<g><path style="opacity:1" fill="#9e9c9a" d="M 262.5,345.5 C 265.37,346.433 267.704,348.1 269.5,350.5C 266.63,349.567 264.296,347.9 262.5,345.5 Z"/></g>
<g><path style="opacity:1" fill="#241f1d" d="M 231.5,342.5 C 231.66,344.199 231.494,345.866 231,347.5C 224.197,339.452 216.03,337.619 206.5,342C 216.32,339.321 224.486,341.821 231,349.5C 231.692,350.437 231.525,351.103 230.5,351.5C 224.792,345.32 217.792,343.153 209.5,345C 202.662,348.171 196.662,352.505 191.5,358C 179.241,361.06 167.574,359.56 156.5,353.5C 155.374,352.192 155.374,350.858 156.5,349.5C 161.827,350.885 167.16,352.385 172.5,354C 177.5,354.667 182.5,354.667 187.5,354C 190.177,353.751 192.51,352.751 194.5,351C 191.821,351.218 189.155,351.885 186.5,353C 176.325,353.798 166.658,351.965 157.5,347.5C 158.529,345.483 159.529,343.483 160.5,341.5C 160.328,340.508 160.662,339.842 161.5,339.5C 161.511,341.017 162.177,342.184 163.5,343C 171.437,348.21 180.104,349.877 189.5,348C 196.833,344 204.167,340 211.5,336C 219.187,335.062 225.853,337.229 231.5,342.5 Z"/></g>
<g><path style="opacity:1" fill="#201c19" d="M 262.5,345.5 C 264.296,347.9 266.63,349.567 269.5,350.5C 273.253,353.878 277.753,355.211 283,354.5C 291.402,354.588 299.235,352.588 306.5,348.5C 307.525,349.374 308.192,350.541 308.5,352C 300.978,357.494 292.478,359.994 283,359.5C 274.643,360.239 268.143,357.072 263.5,350C 252.978,342.278 242.978,342.778 233.5,351.5C 232.475,351.103 232.308,350.437 233,349.5C 238.403,342.053 245.57,339.553 254.5,342C 257.071,343.454 259.738,344.62 262.5,345.5 Z"/></g>
<g><path style="opacity:1" fill="#969492" d="M 157.5,347.5 C 166.658,351.965 176.325,353.798 186.5,353C 189.155,351.885 191.821,351.218 194.5,351C 192.51,352.751 190.177,353.751 187.5,354C 182.5,354.667 177.5,354.667 172.5,354C 167.16,352.385 161.827,350.885 156.5,349.5C 156.833,348.833 157.167,348.167 157.5,347.5 Z"/></g>
<g><path style="opacity:1" fill="#9f9c9b" d="M 306.5,347.5 C 306.5,347.833 306.5,348.167 306.5,348.5C 299.235,352.588 291.402,354.588 283,354.5C 277.753,355.211 273.253,353.878 269.5,350.5C 274.194,352.072 279.028,353.072 284,353.5C 291.791,352.511 299.291,350.511 306.5,347.5 Z"/></g>
<g><path style="opacity:1" fill="#25201e" d="M 188.5,391.5 C 192.833,391.5 197.167,391.5 201.5,391.5C 201.5,392.5 201.5,393.5 201.5,394.5C 199.901,394.232 198.568,394.566 197.5,395.5C 197.5,399.167 197.5,402.833 197.5,406.5C 195.833,406.5 194.167,406.5 192.5,406.5C 192.5,402.833 192.5,399.167 192.5,395.5C 191.432,394.566 190.099,394.232 188.5,394.5C 188.5,393.5 188.5,392.5 188.5,391.5 Z"/></g>
<g><path style="opacity:1" fill="#25211e" d="M 157.5,391.5 C 161.514,391.334 165.514,391.501 169.5,392C 172.167,394 172.167,396 169.5,398C 172.167,400.667 172.167,403.333 169.5,406C 165.514,406.499 161.514,406.666 157.5,406.5C 157.5,401.5 157.5,396.5 157.5,391.5 Z"/></g>
<g><path style="opacity:1" fill="#1c1815" d="M 204.5,391.5 C 205.833,391.5 207.167,391.5 208.5,391.5C 208.335,395.182 208.501,398.848 209,402.5C 210.667,403.833 212.333,403.833 214,402.5C 214.499,398.848 214.665,395.182 214.5,391.5C 215.833,391.5 217.167,391.5 218.5,391.5C 218.666,395.514 218.499,399.514 218,403.5C 213.667,407.5 209.333,407.5 205,403.5C 204.501,399.514 204.334,395.514 204.5,391.5 Z"/></g>
<g><path style="opacity:1" fill="#e0dfdf" d="M 162.5,394.5 C 163.833,394.5 165.167,394.5 166.5,394.5C 166.5,395.5 166.5,396.5 166.5,397.5C 165.167,397.5 163.833,397.5 162.5,397.5C 162.5,396.5 162.5,395.5 162.5,394.5 Z"/></g>
<g><path style="opacity:1" fill="#827f7d" d="M 188.5,391.5 C 188.5,392.5 188.5,393.5 188.5,394.5C 190.099,394.232 191.432,394.566 192.5,395.5C 190.833,395.5 189.167,395.5 187.5,395.5C 187.232,393.901 187.566,392.568 188.5,391.5 Z"/></g>
<g><path style="opacity:1" fill="#84817f" d="M 201.5,391.5 C 202.434,392.568 202.768,393.901 202.5,395.5C 200.833,395.5 199.167,395.5 197.5,395.5C 198.568,394.566 199.901,394.232 201.5,394.5C 201.5,393.5 201.5,392.5 201.5,391.5 Z"/></g>
<g><path style="opacity:1" fill="#25201d" d="M 177.5,391.5 C 179.604,391.201 181.604,391.534 183.5,392.5C 185.572,397.05 187.238,401.717 188.5,406.5C 186.833,406.5 185.167,406.5 183.5,406.5C 183.5,405.5 183.5,404.5 183.5,403.5C 181.5,403.5 179.5,403.5 177.5,403.5C 177.5,404.5 177.5,405.5 177.5,406.5C 175.712,406.785 174.045,406.452 172.5,405.5C 174.572,400.95 176.238,396.283 177.5,391.5 Z"/></g>
<g><path style="opacity:1" fill="#e8e7e7" d="M 180.5,396.5 C 182.94,399.078 182.606,400.412 179.5,400.5C 179.433,399.041 179.766,397.708 180.5,396.5 Z"/></g>
<g><path style="opacity:1" fill="#24201d" d="M 239.5,391.5 C 241.467,391.261 243.301,391.594 245,392.5C 246.981,396.958 248.814,401.458 250.5,406C 249.667,406.167 248.833,406.333 248,406.5C 246.166,405.164 244.166,404.164 242,403.5C 239.815,405.108 237.315,406.108 234.5,406.5C 235.572,401.285 237.238,396.285 239.5,391.5 Z"/></g>
<g><path style="opacity:1" fill="#dedddd" d="M 241.5,396.5 C 244.347,398.798 244.013,400.131 240.5,400.5C 240.433,399.041 240.766,397.708 241.5,396.5 Z"/></g>
<g><path style="opacity:1" fill="#dddddc" d="M 162.5,400.5 C 164.288,400.215 165.955,400.548 167.5,401.5C 166.332,403.217 164.665,403.884 162.5,403.5C 162.5,402.5 162.5,401.5 162.5,400.5 Z"/></g>
<g><path style="opacity:1" fill="#221e1b" d="M 269.5,391.5 C 271.467,391.261 273.301,391.594 275,392.5C 277.372,396.905 278.872,401.572 279.5,406.5C 276.685,406.108 274.185,405.108 272,403.5C 269.815,405.108 267.315,406.108 264.5,406.5C 265.572,401.285 267.238,396.285 269.5,391.5 Z"/></g>
<g><path style="opacity:1" fill="#dededd" d="M 271.5,396.5 C 274.347,398.798 274.013,400.131 270.5,400.5C 270.433,399.041 270.766,397.708 271.5,396.5 Z"/></g>
<g><path style="opacity:1" fill="#282321" d="M 281.5,391.5 C 285.514,391.334 289.514,391.501 293.5,392C 296.265,394.966 295.932,397.633 292.5,400C 293.956,401.745 295.289,403.578 296.5,405.5C 294.926,406.631 293.259,406.798 291.5,406C 288.396,398.742 286.73,398.909 286.5,406.5C 284.833,406.5 283.167,406.5 281.5,406.5C 281.5,401.5 281.5,396.5 281.5,391.5 Z"/></g>
<g><path style="opacity:1" fill="#e1e0e0" d="M 286.5,394.5 C 287.833,394.5 289.167,394.5 290.5,394.5C 290.5,395.5 290.5,396.5 290.5,397.5C 289.167,397.5 287.833,397.5 286.5,397.5C 286.5,396.5 286.5,395.5 286.5,394.5 Z"/></g>
<g><path style="opacity:1" fill="#1f1b18" d="M 228.5,391.5 C 229.833,391.5 231.167,391.5 232.5,391.5C 232.666,395.846 232.499,400.179 232,404.5C 229.503,406.478 226.669,406.978 223.5,406C 221.963,404.89 221.297,403.39 221.5,401.5C 223.492,401.328 225.158,401.995 226.5,403.5C 227.086,403.291 227.586,402.957 228,402.5C 228.499,398.848 228.665,395.182 228.5,391.5 Z"/></g>
<g><path style="opacity:1" fill="#1f1b18" d="M 258.5,391.5 C 259.833,391.5 261.167,391.5 262.5,391.5C 262.666,395.846 262.499,400.179 262,404.5C 259.503,406.478 256.669,406.978 253.5,406C 251.963,404.89 251.297,403.39 251.5,401.5C 253.492,401.328 255.158,401.995 256.5,403.5C 257.086,403.291 257.586,402.957 258,402.5C 258.499,398.848 258.665,395.182 258.5,391.5 Z"/></g>
</svg>
