<?xml version="1.0" encoding="UTF-8"?>
<!DOCTYPE svg PUBLIC "-//W3C//DTD SVG 1.1//EN" "http://www.w3.org/Graphics/SVG/1.1/DTD/svg11.dtd">
<svg xmlns="http://www.w3.org/2000/svg" version="1.1" width="10312px" height="10312px" style="shape-rendering:geometricPrecision; text-rendering:geometricPrecision; image-rendering:optimizeQuality; fill-rule:evenodd; clip-rule:evenodd" xmlns:xlink="http://www.w3.org/1999/xlink">
<g><path style="opacity:0.997" fill="#fef000" d="M 5084.5,-0.5 C 5131.5,-0.5 5178.5,-0.5 5225.5,-0.5C 5873.41,9.51503 6497.74,135.682 7098.5,378C 7600.23,582.998 8056.89,858.331 8468.5,1204C 8893.79,1562.78 9252.29,1976.94 9544,2446.5C 9903.39,3030.56 10137.7,3662.23 10247,4341.5C 10287.5,4598.41 10309,4856.74 10311.5,5116.5C 10311.5,5142.5 10311.5,5168.5 10311.5,5194.5C 10305.6,5820.08 10191.1,6425.08 9968,7009.5C 9773.12,7512.9 9507.79,7972.9 9172,8389.5C 8798.99,8850 8362.16,9235.5 7861.5,9546C 7315.27,9881.9 6725.94,10108.6 6093.5,10226C 5806.38,10278.5 5517.04,10307 5225.5,10311.5C 5178.5,10311.5 5131.5,10311.5 5084.5,10311.5C 4416.76,10301.1 3774.76,10167.6 3158.5,9911C 2709.07,9721.29 2296.07,9474.63 1919.5,9171C 1458.65,8796.97 1072.81,8359.13 762,7857.5C 387.544,7246.55 149.877,6585.21 49,5873.5C 20.2295,5665.65 3.72948,5456.98 -0.5,5247.5C -0.5,5186.17 -0.5,5124.83 -0.5,5063.5C 11.2915,4461.38 123.792,3878.71 337,3315.5C 543.308,2778.18 829.308,2290.51 1195,1852.5C 1576.37,1398.21 2020.2,1020.05 2526.5,718C 3090.56,384.848 3696.89,166.515 4345.5,63C 4590.51,24.5555 4836.84,3.38887 5084.5,-0.5 Z"/></g>
<g><path style="opacity:0.356" fill="#009943" d="M 5043.5,189.5 C 5572.67,178.391 6090.34,248.891 6596.5,401C 7112.54,558.864 7589.54,792.864 8027.5,1103C 8497.37,1437.87 8897.87,1841.37 9229,2313.5C 9555.97,2782.52 9795.64,3294.18 9948,3848.5C 10076.8,4325.21 10133.8,4810.54 10119,5304.5C 10099,5968.03 9952.62,6601.7 9680,7205.5C 9445.07,7720.01 9133.07,8181.01 8744,8588.5C 8338.48,9011.09 7873.65,9352.26 7349.5,9612C 6765.46,9898.4 6148.46,10064.4 5498.5,10110C 4963,10146.3 4435.33,10098.3 3915.5,9966C 3384.11,9828.21 2889.77,9609.54 2432.5,9310C 1942.48,8986.69 1520.98,8589.19 1168,8117.5C 843.751,7680.73 596.751,7201.73 427,6680.5C 259.496,6157.32 180.163,5620.65 189,5070.5C 199.917,4445.57 323.583,3844.24 560,3266.5C 780.959,2733.48 1083.29,2254.14 1467,1828.5C 1895.42,1355.84 2394.92,978.339 2965.5,696C 3540.42,414.512 4147.42,249.845 4786.5,202C 4872.25,196.264 4957.91,192.098 5043.5,189.5 Z"/></g>
<g><path style="opacity:1" fill="#fef000" d="M 5105.5,281.5 C 5143.28,398.259 5180.61,515.259 5217.5,632.5C 5338.83,632.126 5460.17,631.959 5581.5,632C 5485.83,701.667 5390.17,771.333 5294.5,841C 5291.33,843.006 5288.66,845.506 5286.5,848.5C 5322.57,960.531 5358.73,1072.53 5395,1184.5C 5396.45,1188.82 5397.45,1193.16 5398,1197.5C 5300.64,1125.31 5203.14,1053.31 5105.5,981.5C 5007.81,1053.69 4909.97,1125.69 4812,1197.5C 4812.55,1193.16 4813.55,1188.82 4815,1184.5C 4851.27,1072.53 4887.43,960.531 4923.5,848.5C 4826.11,775.625 4728.11,703.458 4629.5,632C 4750.83,632.598 4872.17,632.431 4993.5,631.5C 5030.84,514.804 5068.17,398.137 5105.5,281.5 Z"/></g>
<g><path style="opacity:1" fill="#fef000" d="M 7524.5,907.5 C 7501.35,1022.36 7477.51,1137.36 7453,1252.5C 7451.64,1256.49 7451.47,1260.49 7452.5,1264.5C 7559.5,1321.33 7666.5,1378.17 7773.5,1435C 7651.22,1451.08 7528.89,1466.91 7406.5,1482.5C 7403.31,1492.25 7400.81,1502.25 7399,1512.5C 7376.82,1620.88 7354.49,1729.22 7332,1837.5C 7280.7,1729.08 7229.54,1620.58 7178.5,1512C 7056.21,1527.86 6933.88,1543.53 6811.5,1559C 6902.49,1476.35 6993.15,1393.35 7083.5,1310C 7032.22,1201.44 6981.05,1092.94 6930,984.5C 7036.81,1042.82 7143.97,1100.49 7251.5,1157.5C 7343.12,1074.88 7434.12,991.55 7524.5,907.5 Z"/></g>
<g><path style="opacity:1" fill="#fef000" d="M 2728.5,931.5 C 2819.81,1014.48 2911.15,1097.48 3002.5,1180.5C 3107.17,1120.83 3211.83,1061.17 3316.5,1001.5C 3316.83,1001.83 3317.17,1002.17 3317.5,1002.5C 3268.83,1112.5 3220.17,1222.5 3171.5,1332.5C 3262.96,1415.45 3354.29,1498.62 3445.5,1582C 3323.86,1567.55 3202.19,1553.21 3080.5,1539C 3032,1649.85 2983.5,1760.68 2935,1871.5C 2908.77,1751.85 2882.6,1632.18 2856.5,1512.5C 2735.18,1498.3 2613.84,1484.13 2492.5,1470C 2598.09,1410.73 2703.42,1351.07 2808.5,1291C 2781.53,1171.25 2754.86,1051.42 2728.5,931.5 Z"/></g>
<g><path style="opacity:0.099" fill="#fef000" d="M 5066.5,1365.5 C 5664.99,1353.84 6234.99,1474.68 6776.5,1728C 7228.82,1943.59 7623.99,2236.76 7962,2607.5C 8309.23,2990.64 8568.57,3428.3 8740,3920.5C 8927.14,4471.45 8986.47,5036.11 8918,5614.5C 8854.61,6126.68 8694.61,6606.01 8438,7052.5C 8212.1,7440.79 7925.93,7779.96 7579.5,8070C 7101.81,8465.98 6557.48,8730.32 5946.5,8863C 5351.16,8987.29 4759.49,8971.95 4171.5,8817C 3613.7,8665.33 3117.37,8402.66 2682.5,8029C 2276.94,7677.82 1958.77,7260.65 1728,6777.5C 1487.39,6263.99 1366.22,5723.32 1364.5,5155.5C 1366.26,4569.56 1494.76,4013.56 1750,3487.5C 1979.43,3023.61 2290.27,2621.77 2682.5,2282C 3108.23,1916.06 3593.56,1656.4 4138.5,1503C 4442.27,1419.36 4751.6,1373.53 5066.5,1365.5 Z"/></g>
<g><path style="opacity:1" fill="#e60112" d="M 5554.5,2707.5 C 5554.5,2749.17 5554.5,2790.83 5554.5,2832.5C 5410.83,2832.5 5267.17,2832.5 5123.5,2832.5C 5123.5,2790.83 5123.5,2749.17 5123.5,2707.5C 5137.5,2707.67 5151.5,2707.5 5165.5,2707C 5174.64,2706.07 5183.64,2704.4 5192.5,2702C 5212.74,2693.34 5219.24,2678.5 5212,2657.5C 5200.13,2620.05 5187.96,2582.72 5175.5,2545.5C 5082.83,2545.17 4990.16,2545.5 4897.5,2546.5C 4883.18,2583.64 4869.34,2620.97 4856,2658.5C 4847.67,2683.18 4856.17,2698.68 4881.5,2705C 4900.04,2707.92 4918.71,2709.09 4937.5,2708.5C 4940.29,2709.48 4943.29,2709.81 4946.5,2709.5C 4946.5,2750.83 4946.5,2792.17 4946.5,2833.5C 4828.5,2833.5 4710.5,2833.5 4592.5,2833.5C 4592.5,2791.83 4592.5,2750.17 4592.5,2708.5C 4609.45,2709.04 4626.12,2707.21 4642.5,2703C 4651.42,2699.4 4659.25,2694.24 4666,2687.5C 4671.75,2679.66 4676.75,2671.33 4681,2662.5C 4777,2417.83 4873,2173.17 4969,1928.5C 5003.6,1927.83 5038.26,1927.5 5073,1927.5C 5107.74,1927.5 5142.4,1927.83 5177,1928.5C 5271.39,2168.95 5366.06,2409.28 5461,2649.5C 5465.9,2660.31 5471.57,2670.65 5478,2680.5C 5489.2,2695.02 5504.03,2703.19 5522.5,2705C 5533.11,2706.59 5543.78,2707.42 5554.5,2707.5 Z"/></g>
<g><path style="opacity:1" fill="#e60112" d="M 6351.5,2131.5 C 6518.94,2222.72 6686.27,2314.22 6853.5,2406C 6892.32,2427.83 6928.65,2453.16 6962.5,2482C 6998.82,2514.31 7025.65,2553.14 7043,2598.5C 7064.76,2668.67 7056.43,2735.01 7018,2797.5C 6977.95,2860.47 6920.45,2895.3 6845.5,2902C 6790.59,2908.42 6736.92,2902.92 6684.5,2885.5C 6702.93,2978.47 6722.09,3071.47 6742,3164.5C 6744,3199.22 6756.5,3229.38 6779.5,3255C 6784.99,3259.25 6790.66,3263.25 6796.5,3267C 6812.82,3275.16 6828.82,3283.82 6844.5,3293C 6824.03,3329.63 6803.37,3366.13 6782.5,3402.5C 6697.46,3355.63 6612.29,3308.97 6527,3262.5C 6505.33,3103.16 6483.67,2943.83 6462,2784.5C 6461.78,2783.06 6461.28,2781.73 6460.5,2780.5C 6441.67,2770.59 6423.01,2760.42 6404.5,2750C 6401.28,2748.05 6397.95,2746.71 6394.5,2746C 6364.46,2799.91 6334.29,2853.75 6304,2907.5C 6295.98,2921.2 6289.32,2935.54 6284,2950.5C 6281.26,2962.87 6283.59,2974.2 6291,2984.5C 6299.94,2992.11 6309.44,2998.94 6319.5,3005C 6334.17,3013 6348.83,3021 6363.5,3029C 6342.91,3064.84 6322.58,3100.84 6302.5,3137C 6301.17,3137.67 6299.83,3137.67 6298.5,3137C 6169.17,3065.67 6039.83,2994.33 5910.5,2923C 5931.09,2887.16 5951.42,2851.16 5971.5,2815C 5973.29,2814.48 5974.96,2814.81 5976.5,2816C 5992.01,2824.92 6007.67,2833.59 6023.5,2842C 6041.86,2852 6060.2,2852 6078.5,2842C 6079.67,2840.83 6080.83,2839.67 6082,2838.5C 6093.09,2822 6103.42,2805 6113,2787.5C 6193.83,2641.84 6275.16,2496.51 6357,2351.5C 6362.72,2340.69 6367.05,2329.35 6370,2317.5C 6370.67,2312.5 6370.67,2307.5 6370,2302.5C 6362.91,2287.75 6352.08,2276.58 6337.5,2269C 6322.58,2261.74 6307.92,2254.07 6293.5,2246C 6292.98,2245.44 6292.64,2244.77 6292.5,2244C 6312.06,2206.38 6331.72,2168.88 6351.5,2131.5 Z"/></g>
<g><path style="opacity:1" fill="#fef000" d="M 5123.5,2414.5 C 5063.66,2414.83 5004,2414.5 4944.5,2413.5C 4974.69,2332.09 5005.19,2250.75 5036,2169.5C 5065.72,2250.94 5094.88,2332.61 5123.5,2414.5 Z"/></g>
<g><path style="opacity:1" fill="#e60112" d="M 3653.5,2270.5 C 3654.55,2270.35 3655.55,2270.52 3656.5,2271C 3734.91,2339.95 3813.41,2408.78 3892,2477.5C 3865.91,2510.29 3838.91,2542.62 3811,2574.5C 3766.2,2551.35 3719.03,2534.85 3669.5,2525C 3595.49,2511.14 3525.49,2522.14 3459.5,2558C 3431.97,2573.53 3408.8,2594.03 3390,2619.5C 3380.21,2634.38 3374.71,2650.71 3373.5,2668.5C 3374.74,2689.56 3384.41,2705.39 3402.5,2716C 3430.89,2731.58 3460.89,2735.58 3492.5,2728C 3504.25,2725.72 3515.92,2723.05 3527.5,2720C 3598.89,2697.87 3670.23,2675.54 3741.5,2653C 3785.85,2639 3831.18,2630 3877.5,2626C 3947.69,2620.07 4010.03,2639.07 4064.5,2683C 4136.73,2748.68 4164.56,2829.84 4148,2926.5C 4129.44,3007.98 4088.94,3076.15 4026.5,3131C 3975.14,3176.36 3916.47,3209.36 3850.5,3230C 3805.95,3241.74 3760.61,3247.57 3714.5,3247.5C 3718.57,3270.2 3722.91,3292.87 3727.5,3315.5C 3727.17,3316.17 3726.83,3316.83 3726.5,3317.5C 3699.75,3335.29 3672.92,3352.96 3646,3370.5C 3561.63,3285.63 3477.46,3200.63 3393.5,3115.5C 3421.83,3084.51 3450.49,3053.84 3479.5,3023.5C 3569.1,3083.32 3667.44,3106.48 3774.5,3093C 3842.24,3081.22 3900.4,3051.39 3949,3003.5C 3972.51,2979.29 3983.18,2950.29 3981,2916.5C 3973.6,2884.1 3953.77,2863.94 3921.5,2856C 3904.97,2852.17 3888.3,2851.5 3871.5,2854C 3848.51,2857.08 3825.84,2861.75 3803.5,2868C 3736.77,2888.8 3670.11,2909.8 3603.5,2931C 3557.9,2943.47 3511.56,2952.13 3464.5,2957C 3419.68,2962.53 3377.01,2955.53 3336.5,2936C 3265.84,2899.89 3221.67,2843.06 3204,2765.5C 3194.67,2713.8 3201,2664.13 3223,2616.5C 3254.14,2549.39 3299.97,2494.56 3360.5,2452C 3417.82,2410.33 3481.82,2385.33 3552.5,2377C 3563.47,2375.83 3574.47,2375.33 3585.5,2375.5C 3584.35,2358.99 3583.01,2342.49 3581.5,2326C 3581.83,2324.83 3582.17,2323.67 3582.5,2322.5C 3606.41,2305.39 3630.08,2288.06 3653.5,2270.5 Z"/></g>
<g><path style="opacity:1" fill="#f8b504" d="M 4944.5,2413.5 C 5004,2414.5 5063.66,2414.83 5123.5,2414.5C 5063.67,2415.83 5003.67,2415.83 4943.5,2414.5C 4943.62,2413.89 4943.96,2413.56 4944.5,2413.5 Z"/></g>
<g><path style="opacity:1" fill="#fef000" d="M 6573.5,2422.5 C 6630.62,2453.56 6687.29,2485.39 6743.5,2518C 6764.02,2530.17 6782.52,2545.01 6799,2562.5C 6832.81,2604.07 6835.15,2647.4 6806,2692.5C 6788.7,2718.41 6764.54,2733.58 6733.5,2738C 6712.87,2740.97 6692.54,2739.63 6672.5,2734C 6641.62,2724.26 6611.95,2711.59 6583.5,2696C 6542.41,2673.04 6501.25,2650.21 6460,2627.5C 6497.26,2559 6535.09,2490.66 6573.5,2422.5 Z"/></g>
<g><path style="opacity:1" fill="#fef000" d="M 8738.5,2450.5 C 8801.27,2553.85 8863.93,2657.35 8926.5,2761C 9045.16,2731.34 9163.82,2701.67 9282.5,2672C 9202.24,2765.75 9122.57,2859.92 9043.5,2954.5C 9106.23,3057.63 9169.23,3160.63 9232.5,3263.5C 9120.38,3219.22 9008.38,3173.89 8896.5,3127.5C 8816.84,3221.33 8737.34,3315.33 8658,3409.5C 8667.39,3291.14 8677.39,3172.81 8688,3054.5C 8688.83,3050.13 8688.66,3045.8 8687.5,3041.5C 8575.6,2996.81 8463.93,2951.65 8352.5,2906C 8471.09,2875.85 8589.76,2846.02 8708.5,2816.5C 8717.95,2694.45 8727.95,2572.45 8738.5,2450.5 Z"/></g>
<g><path style="opacity:1" fill="#fef000" d="M 1549.5,2499.5 C 1552.82,2620.66 1555.82,2742 1558.5,2863.5C 1676.4,2900.63 1794.4,2937.47 1912.5,2974C 1796.29,3011.63 1679.96,3048.8 1563.5,3085.5C 1566.97,3206.16 1569.81,3326.82 1572,3447.5C 1497.31,3350.15 1422.64,3252.81 1348,3155.5C 1232.58,3192.97 1117.24,3230.64 1002,3268.5C 1002.04,3266.72 1002.71,3265.05 1004,3263.5C 1073.45,3167.89 1142.28,3071.89 1210.5,2975.5C 1136.06,2877.88 1061.39,2780.38 986.5,2683C 1103.19,2719.23 1219.86,2755.89 1336.5,2793C 1338.17,2793.67 1339.83,2793.67 1341.5,2793C 1410.97,2695.23 1480.3,2597.39 1549.5,2499.5 Z"/></g>
<g><path style="opacity:1" fill="#f27809" d="M 5123.5,2707.5 C 5123.5,2749.17 5123.5,2790.83 5123.5,2832.5C 5267.17,2832.5 5410.83,2832.5 5554.5,2832.5C 5554.5,2790.83 5554.5,2749.17 5554.5,2707.5C 5555.5,2749.33 5555.83,2791.33 5555.5,2833.5C 5411.17,2833.5 5266.83,2833.5 5122.5,2833.5C 5122.17,2791.33 5122.5,2749.33 5123.5,2707.5 Z"/></g>
<g><path style="opacity:1" fill="#ec3c0d" d="M 4937.5,2708.5 C 4940.83,2708.5 4944.17,2708.5 4947.5,2708.5C 4947.5,2750.5 4947.5,2792.5 4947.5,2834.5C 4829,2834.83 4710.67,2834.5 4592.5,2833.5C 4710.5,2833.5 4828.5,2833.5 4946.5,2833.5C 4946.5,2792.17 4946.5,2750.83 4946.5,2709.5C 4943.29,2709.81 4940.29,2709.48 4937.5,2708.5 Z"/></g>
<g><path style="opacity:1" fill="#059943" d="M 5005.5,3659.5 C 5016.54,3659.18 5027.54,3659.68 5038.5,3661C 5043.88,3662.6 5048.04,3665.77 5051,3670.5C 5053.55,3674.93 5055.55,3679.6 5057,3684.5C 5059.95,3693.97 5061.78,3703.64 5062.5,3713.5C 5035.46,3714.89 5008.46,3716.89 4981.5,3719.5C 4980.23,3700.16 4978.89,3680.82 4977.5,3661.5C 4987.05,3661.72 4996.38,3661.06 5005.5,3659.5 Z"/></g>
<g><path style="opacity:1" fill="#009943" d="M 4182.5,4614.5 C 4182.56,4615.04 4182.89,4615.38 4183.5,4615.5C 4184.5,4603.85 4184.83,4592.19 4184.5,4580.5C 4184.54,4573.08 4185.37,4565.75 4187,4558.5C 4192.4,4544.3 4197.4,4529.96 4202,4515.5C 4202.76,4511.18 4203.43,4506.85 4204,4502.5C 4204.33,4490.17 4204.67,4477.83 4205,4465.5C 4225.09,4453.87 4245.25,4442.37 4265.5,4431C 4298.2,4428.77 4330.87,4426.11 4363.5,4423C 4446.31,4375.18 4505.14,4306.68 4540,4217.5C 4558.54,4194.63 4579.37,4174.13 4602.5,4156C 4610.83,4150.17 4619.5,4144.83 4628.5,4140C 4633.7,4135.13 4638.53,4129.97 4643,4124.5C 4643.29,4113.46 4642.79,4102.46 4641.5,4091.5C 4673.35,4094.29 4705.18,4097.29 4737,4100.5C 4752.5,4090.68 4765.83,4078.34 4777,4063.5C 4782.91,4055.26 4788.41,4046.76 4793.5,4038C 4787.1,4014.92 4781.1,3991.75 4775.5,3968.5C 4797.04,3966.91 4818.04,3962.74 4838.5,3956C 4854.28,3948.28 4869.62,3939.78 4884.5,3930.5C 4884.83,3929.17 4885.17,3927.83 4885.5,3926.5C 4884.07,3917.54 4883.57,3908.54 4884,3899.5C 4896.59,3870.98 4910.26,3842.98 4925,3815.5C 4942.64,3787.86 4965.97,3766.52 4995,3751.5C 5036.74,3779.62 5078.24,3808.12 5119.5,3837C 5121.38,3851.52 5123.38,3866.02 5125.5,3880.5C 5138.33,3882.94 5151,3886.11 5163.5,3890C 5183.95,3898.06 5204.28,3906.39 5224.5,3915C 5234.48,3914.39 5244.48,3913.56 5254.5,3912.5C 5255.83,3912.83 5257.17,3913.17 5258.5,3913.5C 5264.5,3921.5 5270.5,3929.5 5276.5,3937.5C 5279.33,3937.83 5282.17,3938.17 5285,3938.5C 5298.47,3936.92 5311.97,3936.09 5325.5,3936C 5341.16,3944.16 5356.49,3952.83 5371.5,3962C 5377.29,3966.12 5382.79,3970.62 5388,3975.5C 5391.35,3979.2 5393.35,3983.53 5394,3988.5C 5397.95,4015.47 5386.45,4030.3 5359.5,4033C 5318.75,4036.6 5278.08,4040.77 5237.5,4045.5C 5245.93,4055.43 5255.43,4064.1 5266,4071.5C 5267.89,4074.62 5269.23,4077.95 5270,4081.5C 5271.94,4092.45 5273.44,4103.45 5274.5,4114.5C 5245.14,4116.67 5215.81,4119.17 5186.5,4122C 5150.7,4127.48 5140.54,4146.65 5156,4179.5C 5163.25,4190 5168.92,4201.33 5173,4213.5C 5179.83,4225.83 5186.67,4238.17 5193.5,4250.5C 5160.84,4254.17 5128.18,4257.83 5095.5,4261.5C 5102.11,4274.38 5108.44,4287.38 5114.5,4300.5C 5116,4300.83 5117.5,4301.17 5119,4301.5C 5128.48,4300.25 5137.98,4299.75 5147.5,4300C 5169.8,4322.97 5193.3,4344.47 5218,4364.5C 5220.69,4393.17 5223.03,4421.83 5225,4450.5C 5215.63,4456.03 5206.13,4461.37 5196.5,4466.5C 5196.17,4468.33 5195.83,4470.17 5195.5,4472C 5196.46,4479.48 5197.12,4486.98 5197.5,4494.5C 5208.51,4493.83 5219.51,4493.33 5230.5,4493C 5239.47,4503.31 5250.14,4511.31 5262.5,4517C 5267.44,4518.09 5272.44,4518.75 5277.5,4519C 5282.81,4521.77 5286.64,4525.93 5289,4531.5C 5293.09,4540.02 5296.92,4548.69 5300.5,4557.5C 5321.29,4559.52 5341.62,4563.69 5361.5,4570C 5380.54,4576.37 5393.7,4588.87 5401,4607.5C 5405.38,4619.12 5403.71,4629.79 5396,4639.5C 5371.6,4666.15 5341.43,4676.65 5305.5,4671C 5275.24,4660.8 5248.74,4644.63 5226,4622.5C 5225.88,4635.87 5225.21,4649.21 5224,4662.5C 5222.73,4667.71 5220.39,4672.38 5217,4676.5C 5211.67,4683.17 5206.33,4689.83 5201,4696.5C 5202.04,4706.79 5202.37,4717.12 5202,4727.5C 5193.6,4746.87 5185.1,4766.21 5176.5,4785.5C 5184.2,4794.2 5192.53,4802.2 5201.5,4809.5C 5207.69,4815.55 5211.52,4822.88 5213,4831.5C 5214.85,4848.82 5216.18,4866.16 5217,4883.5C 5157.48,4926.33 5101.48,4973.66 5049,5025.5C 5045.09,5030.32 5041.42,5035.32 5038,5040.5C 5038.35,5065.85 5047.01,5087.85 5064,5106.5C 5074.8,5125.71 5080.64,5146.38 5081.5,5168.5C 5071.46,5169.28 5061.46,5170.28 5051.5,5171.5C 5051.75,5193.2 5053.25,5214.87 5056,5236.5C 5061.01,5276.97 5047.84,5310.14 5016.5,5336C 5001.99,5347.51 4986.65,5357.84 4970.5,5367C 4950.01,5377.75 4929.67,5388.75 4909.5,5400C 4907.95,5401.21 4906.78,5402.71 4906,5404.5C 4905.79,5408.09 4905.29,5411.59 4904.5,5415C 4879.24,5418.49 4853.91,5420.33 4828.5,5420.5C 4822.86,5413.02 4817.02,5405.69 4811,5398.5C 4799,5385.83 4787,5373.17 4775,5360.5C 4767.54,5349.9 4760.87,5338.9 4755,5327.5C 4718.89,5337.07 4682.73,5346.4 4646.5,5355.5C 4641.93,5347.37 4637.1,5339.37 4632,5331.5C 4629.01,5327.16 4625.01,5324.49 4620,5323.5C 4614.91,5325.55 4610.58,5324.55 4607,5320.5C 4599.97,5309.27 4594.13,5297.43 4589.5,5285C 4578.82,5285.39 4568.15,5286.22 4557.5,5287.5C 4553.65,5306.8 4549.31,5325.96 4544.5,5345C 4542.83,5345.67 4541.17,5345.67 4539.5,5345C 4525.67,5340.88 4511.67,5337.38 4497.5,5334.5C 4478.52,5340.99 4459.52,5347.49 4440.5,5354C 4430.68,5356.78 4420.68,5357.78 4410.5,5357C 4403.33,5355.17 4398.83,5350.67 4397,5343.5C 4390.5,5339.42 4384.83,5334.42 4380,5328.5C 4377.23,5322.83 4375.9,5316.83 4376,5310.5C 4375.67,5297.83 4375.33,5285.17 4375,5272.5C 4356.25,5283.46 4337.41,5294.29 4318.5,5305C 4315.1,5306.92 4311.43,5307.92 4307.5,5308C 4282.17,5310.11 4256.84,5311.78 4231.5,5313C 4223.63,5305.8 4217.3,5297.47 4212.5,5288C 4199.21,5289.2 4185.88,5290.36 4172.5,5291.5C 4170.17,5291.17 4167.83,5290.83 4165.5,5290.5C 4161,5278.84 4155.84,5267.5 4150,5256.5C 4146.92,5253.71 4143.42,5251.54 4139.5,5250C 4130.72,5246.44 4122.05,5242.61 4113.5,5238.5C 4110.77,5219.27 4108.6,5199.93 4107,5180.5C 4100.33,5171.83 4093.67,5163.17 4087,5154.5C 4086.14,5129.72 4084.14,5105.06 4081,5080.5C 4073.75,5068.33 4066.75,5056 4060,5043.5C 4020.16,5029.92 3988.16,5005.92 3964,4971.5C 3960.88,4966.14 3958.55,4960.48 3957,4954.5C 3954.58,4928.8 3951.91,4903.14 3949,4877.5C 3936.82,4859.81 3924.16,4842.48 3911,4825.5C 3910.19,4810.48 3909.19,4795.48 3908,4780.5C 3901.67,4772.17 3895.33,4763.83 3889,4755.5C 3887.17,4736.55 3885.67,4717.55 3884.5,4698.5C 3884.78,4694.26 3885.95,4690.26 3888,4686.5C 3904.98,4649.57 3921.98,4612.57 3939,4575.5C 3950.43,4574.31 3961.93,4573.31 3973.5,4572.5C 3979.86,4572.23 3985.52,4574.06 3990.5,4578C 3998.23,4586.4 4006.57,4594.07 4015.5,4601C 4021.58,4605.04 4028.24,4607.37 4035.5,4608C 4062.9,4607.94 4090.23,4606.44 4117.5,4603.5C 4139.22,4606.84 4160.89,4610.51 4182.5,4614.5 Z"/></g>
<g><path style="opacity:1" fill="#079943" d="M 5530.5,3943.5 C 5533.5,3943.5 5536.5,3943.5 5539.5,3943.5C 5540.23,3957.9 5541.57,3972.23 5543.5,3986.5C 5510.81,3989.5 5478.14,3992.34 5445.5,3995C 5450.03,3985.43 5455.2,3976.26 5461,3967.5C 5468.74,3958.21 5478.58,3952.38 5490.5,3950C 5503.94,3947.58 5517.27,3945.42 5530.5,3943.5 Z"/></g>
<g><path style="opacity:1" fill="#049943" d="M 6503.5,3971.5 C 6507.5,3971.5 6511.5,3971.5 6515.5,3971.5C 6515.65,3984.65 6517.15,3997.65 6520,4010.5C 6520.67,4015.5 6520.67,4020.5 6520,4025.5C 6509.91,4031.8 6500.07,4038.46 6490.5,4045.5C 6489.67,4055.82 6489.17,4066.15 6489,4076.5C 6488.25,4088.87 6482.08,4097.04 6470.5,4101C 6457.32,4104.33 6443.99,4106.83 6430.5,4108.5C 6429.97,4089.1 6430.8,4069.76 6433,4050.5C 6439.47,4025.95 6445.3,4001.28 6450.5,3976.5C 6468.34,3975.1 6486,3973.43 6503.5,3971.5 Z"/></g>
<g><path style="opacity:1" fill="#059943" d="M 6300.5,4106.5 C 6316.09,4107.98 6331.09,4111.81 6345.5,4118C 6355.95,4123.45 6364.12,4131.28 6370,4141.5C 6377.44,4155.37 6383.44,4169.7 6388,4184.5C 6369.3,4187.19 6350.47,4188.02 6331.5,4187C 6316.61,4184.42 6308.11,4175.59 6306,4160.5C 6303.51,4142.57 6301.67,4124.57 6300.5,4106.5 Z"/></g>
<g><path style="opacity:1" fill="#009943" d="M 1826.5,4155.5 C 1837.74,4154.28 1848.41,4156.12 1858.5,4161C 1862.21,4164.91 1865.04,4169.41 1867,4174.5C 1869.07,4180.88 1871.24,4187.21 1873.5,4193.5C 1873.41,4195.43 1872.41,4196.59 1870.5,4197C 1858.05,4201.72 1845.72,4206.72 1833.5,4212C 1843.17,4211.07 1852.84,4209.74 1862.5,4208C 1870.68,4206.9 1878.68,4207.56 1886.5,4210C 1890.23,4212.95 1892.23,4216.79 1892.5,4221.5C 1903.51,4220.83 1914.51,4220.33 1925.5,4220C 1932.83,4228.67 1940.83,4236.67 1949.5,4244C 1965.09,4247.94 1980.59,4252.11 1996,4256.5C 2059.47,4250.34 2122.97,4244.84 2186.5,4240C 2193.58,4252.83 2200.91,4265.5 2208.5,4278C 2218.49,4278.5 2228.49,4278.67 2238.5,4278.5C 2239.12,4288.18 2239.96,4297.85 2241,4307.5C 2248.86,4318.54 2255.7,4330.2 2261.5,4342.5C 2271.99,4341.71 2282.32,4343.04 2292.5,4346.5C 2293.72,4360.74 2295.39,4374.91 2297.5,4389C 2323.39,4400.61 2348.72,4413.28 2373.5,4427C 2389.63,4437.45 2404.3,4449.79 2417.5,4464C 2428.81,4463.34 2440.15,4463 2451.5,4463C 2457.2,4469.03 2463.2,4474.7 2469.5,4480C 2497.49,4497.97 2523.16,4518.97 2546.5,4543C 2558.43,4552.91 2571.43,4561.24 2585.5,4568C 2602.91,4575.53 2620.58,4582.36 2638.5,4588.5C 2641.38,4605.72 2645.21,4622.72 2650,4639.5C 2654.58,4653.84 2662.08,4666.34 2672.5,4677C 2676.39,4680.11 2680.72,4682.44 2685.5,4684C 2699.49,4683.7 2713.49,4683.2 2727.5,4682.5C 2727.3,4680.01 2727.8,4677.68 2729,4675.5C 2733.52,4670.65 2738.85,4666.98 2745,4664.5C 2755.46,4668.93 2765.96,4673.26 2776.5,4677.5C 2776.83,4676 2777.17,4674.5 2777.5,4673C 2776.54,4665.19 2775.87,4657.35 2775.5,4649.5C 2795.03,4648.54 2814.53,4647.21 2834,4645.5C 2835.71,4645.44 2837.04,4646.11 2838,4647.5C 2845.63,4660.6 2853.13,4673.77 2860.5,4687C 2856.14,4696.23 2851.64,4705.39 2847,4714.5C 2846.33,4715.5 2846.33,4716.5 2847,4717.5C 2861.01,4734.66 2875.85,4751.16 2891.5,4767C 2899,4772.5 2906.5,4778 2914,4783.5C 2922.32,4801.47 2930.82,4819.3 2939.5,4837C 2960.48,4833.71 2981.48,4830.05 3002.5,4826C 2991.6,4824.29 2980.77,4822.45 2970,4820.5C 2967.72,4801.2 2965.88,4781.87 2964.5,4762.5C 2991.53,4760.83 3018.53,4758.66 3045.5,4756C 3058.12,4752.85 3070.78,4750.02 3083.5,4747.5C 3085.63,4767.14 3087.13,4786.8 3088,4806.5C 3082.76,4816.48 3077.92,4826.65 3073.5,4837C 3074.27,4838.22 3075.27,4839.22 3076.5,4840C 3099.49,4852.49 3122.16,4865.49 3144.5,4879C 3151.76,4884.26 3157.59,4890.76 3162,4898.5C 3163.56,4910.79 3161.56,4922.46 3156,4933.5C 3146.89,4948.29 3135.89,4961.62 3123,4973.5C 3122.36,4974.61 3121.86,4975.78 3121.5,4977C 3124.74,4981.95 3128.57,4986.45 3133,4990.5C 3136.91,4996.22 3139.24,5002.56 3140,5009.5C 3141.58,5026.17 3143.08,5042.83 3144.5,5059.5C 3181.51,5061.46 3218.51,5063.63 3255.5,5066C 3262.87,5079.25 3270.37,5092.41 3278,5105.5C 3280.18,5130.18 3282.51,5154.85 3285,5179.5C 3286.46,5187.42 3289.79,5194.42 3295,5200.5C 3308.48,5213.98 3323.65,5225.15 3340.5,5234C 3377.75,5252.53 3415.08,5270.86 3452.5,5289C 3480.11,5302.61 3504.94,5320.11 3527,5341.5C 3536.81,5352.45 3543.48,5365.12 3547,5379.5C 3548.09,5390.56 3549.59,5401.56 3551.5,5412.5C 3546.22,5423.4 3541.22,5434.4 3536.5,5445.5C 3538.77,5469.23 3541.27,5492.9 3544,5516.5C 3538.92,5526.07 3534.09,5535.73 3529.5,5545.5C 3535.05,5554.56 3541.22,5563.23 3548,5571.5C 3549.67,5586.21 3551.51,5600.88 3553.5,5615.5C 3561.02,5619.51 3567.52,5624.84 3573,5631.5C 3575.86,5635.64 3576.19,5639.97 3574,5644.5C 3566.67,5653.17 3559.33,5661.83 3552,5670.5C 3546.77,5678.35 3544.27,5687.02 3544.5,5696.5C 3545.37,5712.56 3546.87,5728.56 3549,5744.5C 3550.28,5754.12 3549.28,5763.45 3546,5772.5C 3543.17,5777.33 3540.33,5782.17 3537.5,5787C 3552.28,5781.96 3566.95,5776.29 3581.5,5770C 3601.8,5766.23 3622.14,5762.56 3642.5,5759C 3664.58,5753.77 3686.75,5748.94 3709,5744.5C 3715.59,5756.81 3724.42,5767.31 3735.5,5776C 3753.05,5784.61 3770.71,5792.94 3788.5,5801C 3797.87,5806.69 3806.37,5813.53 3814,5821.5C 3820.5,5817 3827,5812.5 3833.5,5808C 3867.18,5795.82 3898.84,5799.48 3928.5,5819C 3952.82,5836.16 3977.49,5852.83 4002.5,5869C 4015.35,5876.5 4029.02,5881.84 4043.5,5885C 4052.83,5885.67 4062.17,5885.67 4071.5,5885C 4111.17,5881.33 4150.83,5877.67 4190.5,5874C 4211.02,5872.49 4227.85,5863.99 4241,5848.5C 4251.09,5831.66 4259.59,5813.99 4266.5,5795.5C 4283.09,5793.12 4299.76,5791.95 4316.5,5792C 4327.83,5799.33 4339.17,5806.67 4350.5,5814C 4377.35,5817.45 4404.18,5820.95 4431,5824.5C 4442.14,5823.25 4453.31,5822.25 4464.5,5821.5C 4478.77,5822.65 4492.43,5826.15 4505.5,5832C 4524.95,5839.89 4544.28,5848.06 4563.5,5856.5C 4565.09,5866.47 4566.59,5876.47 4568,5886.5C 4579.5,5899.33 4591,5912.17 4602.5,5925C 4630.92,5922.54 4659.42,5921.04 4688,5920.5C 4713.56,5921.91 4739.06,5924.07 4764.5,5927C 4773.61,5934.77 4783.27,5941.77 4793.5,5948C 4807.11,5954.14 4820.45,5960.81 4833.5,5968C 4843.88,5975.25 4850.38,5985.08 4853,5997.5C 4855.98,6028.83 4858.82,6060.16 4861.5,6091.5C 4847.17,6092.64 4832.84,6093.8 4818.5,6095C 4804.8,6095.86 4791.13,6095.53 4777.5,6094C 4768.06,6091.61 4759.4,6087.61 4751.5,6082C 4743.23,6075.74 4735.57,6068.74 4728.5,6061C 4718.17,6060.67 4707.83,6060.33 4697.5,6060C 4688.54,6059.26 4679.88,6057.26 4671.5,6054C 4651.78,6053.36 4632.11,6054.03 4612.5,6056C 4602.67,6061.75 4593,6067.75 4583.5,6074C 4539.86,6078.05 4496.2,6081.39 4452.5,6084C 4441.33,6078.83 4429.83,6074.67 4418,6071.5C 4366.63,6077.52 4315.13,6081.68 4263.5,6084C 4260.45,6083.39 4257.95,6081.89 4256,6079.5C 4252.28,6072.45 4247.78,6065.95 4242.5,6060C 4226.44,6059.89 4210.44,6058.89 4194.5,6057C 4173.28,6052.35 4151.95,6048.35 4130.5,6045C 4112.82,6043.65 4095.15,6043.32 4077.5,6044C 4071.2,6037.72 4065.86,6030.72 4061.5,6023C 4058.91,6021.8 4056.24,6020.8 4053.5,6020C 4038.47,6019.71 4023.47,6020.37 4008.5,6022C 3996.78,6022.68 3986.11,6026.35 3976.5,6033C 3967.47,6042.08 3963.14,6053.08 3963.5,6066C 3965.8,6090.93 3968.8,6115.76 3972.5,6140.5C 3968.83,6140.72 3965.16,6141.06 3961.5,6141.5C 3959.36,6141.39 3957.53,6140.72 3956,6139.5C 3953.34,6106.78 3950.18,6074.11 3946.5,6041.5C 3938.5,6035.55 3929.5,6032.05 3919.5,6031C 3908.17,6030.33 3896.83,6030.33 3885.5,6031C 3861.04,6034.21 3836.54,6037.04 3812,6039.5C 3794.54,6038.79 3779.04,6032.96 3765.5,6022C 3741.55,6001.88 3723.55,5977.38 3711.5,5948.5C 3682.64,5946.5 3653.8,5944.16 3625,5941.5C 3584.8,5944.49 3544.63,5947.99 3504.5,5952C 3502.57,5952.25 3500.73,5952.75 3499,5953.5C 3497.33,5963.5 3495.67,5973.5 3494,5983.5C 3489.23,5968.97 3485.23,5954.3 3482,5939.5C 3500.71,5918.46 3519.04,5897.13 3537,5875.5C 3538.46,5862.86 3538.79,5850.2 3538,5837.5C 3536.41,5823.19 3535.08,5808.86 3534,5794.5C 3533.69,5793.69 3533.19,5793.03 3532.5,5792.5C 3522.21,5793.94 3511.88,5794.77 3501.5,5795C 3491.02,5785.27 3480.35,5775.77 3469.5,5766.5C 3455.94,5774.45 3441.94,5781.61 3427.5,5788C 3419.73,5797.11 3412.73,5806.77 3406.5,5817C 3395.64,5819.27 3384.64,5820.27 3373.5,5820C 3350.68,5796.95 3326.02,5776.29 3299.5,5758C 3282.67,5746.75 3265.67,5735.75 3248.5,5725C 3196.5,5694.33 3144.5,5663.67 3092.5,5633C 3062.41,5613.95 3033.75,5592.95 3006.5,5570C 2989.75,5554.59 2975.25,5537.43 2963,5518.5C 2959.41,5511.83 2956.25,5505 2953.5,5498C 2937.97,5495.4 2923.64,5489.74 2910.5,5481C 2874.38,5454.91 2845.55,5422.41 2824,5383.5C 2818.75,5373.5 2813.92,5363.33 2809.5,5353C 2787.24,5350.04 2764.91,5347.87 2742.5,5346.5C 2739.69,5307.44 2736.19,5268.44 2732,5229.5C 2718.59,5210.34 2705.92,5190.68 2694,5170.5C 2684,5155.16 2671.83,5141.66 2657.5,5130C 2646.84,5122.67 2635.84,5115.83 2624.5,5109.5C 2621.9,5091.88 2616.4,5075.21 2608,5059.5C 2599,5049.17 2590,5038.83 2581,5028.5C 2574.57,5019.64 2569.74,5009.97 2566.5,4999.5C 2544.5,4995.83 2522.5,4992.17 2500.5,4988.5C 2489.95,4956.69 2476.79,4926.02 2461,4896.5C 2454.33,4886.5 2447.67,4876.5 2441,4866.5C 2439.33,4850.83 2437.67,4835.17 2436,4819.5C 2433.97,4807.12 2428.97,4796.12 2421,4786.5C 2407.27,4770.43 2391.44,4756.93 2373.5,4746C 2334.15,4721.83 2291.82,4704.99 2246.5,4695.5C 2241.34,4646 2220.01,4605.17 2182.5,4573C 2162.54,4557.01 2141.2,4543.01 2118.5,4531C 2086.68,4515.59 2055.01,4499.92 2023.5,4484C 1975.96,4456.09 1933.46,4421.59 1896,4380.5C 1875.96,4358.8 1856.3,4336.8 1837,4314.5C 1833.5,4281.19 1830.34,4247.86 1827.5,4214.5C 1816.49,4215.17 1805.49,4215.67 1794.5,4216C 1785.64,4207.47 1777.14,4198.64 1769,4189.5C 1764.99,4180.31 1761.49,4170.97 1758.5,4161.5C 1781.35,4159.93 1804.02,4157.93 1826.5,4155.5 Z"/></g>
<g><path style="opacity:1" fill="#039943" d="M 6792.5,4191.5 C 6793.83,4191.5 6795.17,4191.5 6796.5,4191.5C 6799.59,4220.94 6801.92,4250.44 6803.5,4280C 6803.54,4287.21 6803.04,4294.38 6802,4301.5C 6798.39,4312.6 6795.72,4323.94 6794,4335.5C 6788.65,4337.89 6783.15,4340.05 6777.5,4342C 6756.47,4348.19 6735.47,4354.35 6714.5,4360.5C 6715.92,4320.85 6717.42,4281.18 6719,4241.5C 6723.44,4238.7 6727.6,4235.53 6731.5,4232C 6739.61,4223.8 6747.94,4215.8 6756.5,4208C 6759.83,4206 6763.17,4204 6766.5,4202C 6775.39,4198.77 6784.05,4195.27 6792.5,4191.5 Z"/></g>
<g><path style="opacity:1" fill="#069943" d="M 6287.5,4251.5 C 6290.78,4251.22 6293.94,4251.55 6297,4252.5C 6300.5,4263.84 6305.83,4274.17 6313,4283.5C 6316.85,4292.8 6318.19,4302.47 6317,4312.5C 6313.1,4325.15 6309.27,4337.82 6305.5,4350.5C 6294.92,4352.38 6284.26,4353.38 6273.5,4353.5C 6272.07,4339.52 6271.23,4325.52 6271,4311.5C 6276.51,4306.97 6280.67,4301.47 6283.5,4295C 6276.38,4281.72 6269.05,4268.55 6261.5,4255.5C 6270.36,4254.52 6279.03,4253.19 6287.5,4251.5 Z"/></g>
<g><path style="opacity:1" fill="#039943" d="M 6692.5,4316.5 C 6693.5,4316.5 6694.5,4316.5 6695.5,4316.5C 6698.95,4353.63 6701.95,4390.8 6704.5,4428C 6704.21,4429.89 6703.21,4431.22 6701.5,4432C 6693.13,4436.51 6685.13,4441.51 6677.5,4447C 6674.54,4452.78 6672.71,4458.95 6672,4465.5C 6669.63,4479.03 6667.13,4492.53 6664.5,4506C 6664.83,4506.5 6665.17,4507 6665.5,4507.5C 6672.82,4500.68 6679.99,4493.68 6687,4486.5C 6698.91,4470.34 6710.58,4454.01 6722,4437.5C 6740.99,4410.85 6765.99,4392.18 6797,4381.5C 6804.96,4399.26 6812.8,4417.09 6820.5,4435C 6810.67,4441.42 6800.67,4447.58 6790.5,4453.5C 6787.6,4466.44 6783.76,4479.1 6779,4491.5C 6778.33,4499.17 6778.33,4506.83 6779,4514.5C 6781.26,4520.77 6785.1,4525.94 6790.5,4530C 6800,4536.25 6809.67,4542.25 6819.5,4548C 6825.45,4551.75 6829.62,4556.92 6832,4563.5C 6832.34,4569.54 6833,4575.54 6834,4581.5C 6836.02,4583.01 6835.86,4584.35 6833.5,4585.5C 6834.56,4588.1 6834.73,4590.77 6834,4593.5C 6831.32,4592.43 6828.99,4593.09 6827,4595.5C 6823.99,4599.51 6821.49,4603.84 6819.5,4608.5C 6799.59,4609.13 6780.26,4605.96 6761.5,4599C 6741.58,4586.79 6721.41,4574.96 6701,4563.5C 6703.03,4591.16 6705.36,4618.83 6708,4646.5C 6709.48,4650.13 6711.48,4653.47 6714,4656.5C 6726.81,4670.3 6738.47,4684.97 6749,4700.5C 6758.99,4718.81 6765.16,4738.31 6767.5,4759C 6746.57,4758.25 6727.57,4751.91 6710.5,4740C 6700.42,4730.31 6690.92,4720.14 6682,4709.5C 6680.61,4699.8 6679.11,4690.13 6677.5,4680.5C 6669.29,4680.49 6663.46,4676.82 6660,4669.5C 6658.74,4653.54 6658.08,4637.54 6658,4621.5C 6651.67,4612.83 6645.33,4604.17 6639,4595.5C 6632.18,4528.21 6626.18,4460.88 6621,4393.5C 6626.53,4380.58 6631.86,4367.58 6637,4354.5C 6641.78,4343.39 6649.61,4335.22 6660.5,4330C 6671.11,4325.19 6681.78,4320.69 6692.5,4316.5 Z"/></g>
<g><path style="opacity:1" fill="#019943" d="M 6260.5,4397.5 C 6273.26,4396.14 6283.1,4400.8 6290,4411.5C 6292.59,4416.26 6294.59,4421.26 6296,4426.5C 6297.54,4438.66 6299.04,4450.83 6300.5,4463C 6296.22,4483.62 6291.39,4504.12 6286,4524.5C 6228.19,4567.61 6167.69,4606.77 6104.5,4642C 6067.8,4644.84 6031.14,4648 5994.5,4651.5C 5977.91,4648.61 5961.41,4645.28 5945,4641.5C 5944.17,4641.67 5943.33,4641.83 5942.5,4642C 5933.96,4652.44 5922.96,4658.44 5909.5,4660C 5879.31,4661.33 5849.14,4663.17 5819,4665.5C 5816.5,4665.33 5814,4665.17 5811.5,4665C 5779.14,4654.22 5746.98,4643.05 5715,4631.5C 5705.58,4636.79 5696.08,4641.96 5686.5,4647C 5655.99,4660.06 5625.33,4672.72 5594.5,4685C 5583.01,4690.58 5571.68,4696.41 5560.5,4702.5C 5560.17,4704 5559.83,4705.5 5559.5,4707C 5561.12,4721.14 5561.95,4735.3 5562,4749.5C 5557.07,4762.8 5552.23,4776.13 5547.5,4789.5C 5568.45,4833.21 5599.45,4868.04 5640.5,4894C 5656.8,4904.1 5674.46,4908.44 5693.5,4907C 5700.68,4904.82 5706.85,4900.99 5712,4895.5C 5721.67,4881.16 5732.83,4867.99 5745.5,4856C 5755.66,4848.59 5767,4843.92 5779.5,4842C 5813.2,4839.28 5846.86,4836.28 5880.5,4833C 5900.51,4825.66 5920.51,4818.33 5940.5,4811C 5945.13,4805.02 5948.96,4798.52 5952,4791.5C 5953.94,4788.89 5956.44,4787.06 5959.5,4786C 5967.37,4783.92 5975.37,4782.59 5983.5,4782C 6005.83,4780 6028.16,4778.17 6050.5,4776.5C 6047.26,4801.17 6043.93,4825.84 6040.5,4850.5C 6012.18,4858 5985.84,4869.83 5961.5,4886C 5944.83,4898.67 5930.99,4913.83 5920,4931.5C 5919.25,4932.13 5918.42,4932.63 5917.5,4933C 5896.48,4934.67 5875.48,4936.5 5854.5,4938.5C 5845.18,4948.98 5835.68,4959.32 5826,4969.5C 5818.21,4985.66 5813.38,5002.66 5811.5,5020.5C 5810.33,5035.9 5817.33,5042.9 5832.5,5041.5C 5834.01,5031.46 5835.84,5021.46 5838,5011.5C 5839.33,5003.17 5844.16,4998.67 5852.5,4998C 5866.52,4996.27 5880.52,4994.44 5894.5,4992.5C 5901.57,5011.37 5908.23,5030.37 5914.5,5049.5C 5898.99,5054.61 5883.99,5060.77 5869.5,5068C 5874.63,5075.75 5880.13,5083.25 5886,5090.5C 5887.13,5096.15 5888.3,5101.82 5889.5,5107.5C 5904.61,5114.63 5917.78,5124.29 5929,5136.5C 5935.29,5146.7 5939.62,5157.7 5942,5169.5C 5945.19,5199.52 5948.36,5229.52 5951.5,5259.5C 5966.11,5261.66 5980.44,5265.16 5994.5,5270C 6007.82,5276.45 6015.98,5286.95 6019,5301.5C 6023.04,5319.23 6020.04,5335.57 6010,5350.5C 5999.51,5361.66 5987.35,5370.49 5973.5,5377C 5952.84,5385.17 5933.17,5395.17 5914.5,5407C 5902.4,5417.7 5894.23,5430.86 5890,5446.5C 5884.17,5453.08 5876.84,5456.08 5868,5455.5C 5857.13,5454.56 5848.13,5449.9 5841,5441.5C 5831.05,5427.94 5824.05,5412.94 5820,5396.5C 5817.34,5384.22 5815.01,5371.88 5813,5359.5C 5801.08,5353.2 5790.41,5345.2 5781,5335.5C 5778.12,5330.13 5775.62,5324.63 5773.5,5319C 5768.76,5316.57 5763.76,5314.9 5758.5,5314C 5748.39,5311.63 5738.22,5309.8 5728,5308.5C 5721.24,5288.99 5715.08,5269.33 5709.5,5249.5C 5712.44,5234.04 5715.1,5218.54 5717.5,5203C 5716.28,5176.71 5713.94,5150.54 5710.5,5124.5C 5710,5123.48 5709.33,5123.31 5708.5,5124C 5698.5,5133 5688.5,5142 5678.5,5151C 5658.58,5153.32 5638.74,5156.16 5619,5159.5C 5618.5,5159.83 5618,5160.17 5617.5,5160.5C 5629.49,5183.16 5641.99,5205.49 5655,5227.5C 5665.39,5333.05 5674.89,5438.55 5683.5,5544C 5653.67,5563.09 5623.33,5581.42 5592.5,5599C 5583.41,5603.88 5574.07,5608.21 5564.5,5612C 5555.57,5613.69 5547.57,5611.69 5540.5,5606C 5535.63,5601.47 5531.13,5596.63 5527,5591.5C 5520.33,5580.83 5513.67,5570.17 5507,5559.5C 5505.83,5545.46 5504.33,5531.46 5502.5,5517.5C 5507.36,5506.94 5512.36,5496.44 5517.5,5486C 5515.04,5470.57 5513.54,5455.07 5513,5439.5C 5521.17,5415.67 5529.33,5391.83 5537.5,5368C 5528.21,5336.55 5519.04,5305.05 5510,5273.5C 5507.71,5271.23 5504.87,5270.06 5501.5,5270C 5466.7,5265.07 5432.04,5259.57 5397.5,5253.5C 5400.04,5246.91 5403.71,5241.07 5408.5,5236C 5409.79,5235.51 5411.13,5235.34 5412.5,5235.5C 5409.09,5207.23 5406.59,5178.89 5405,5150.5C 5414.58,5145.29 5424.08,5139.96 5433.5,5134.5C 5433.83,5132.67 5434.17,5130.83 5434.5,5129C 5433.62,5120.51 5432.96,5112.01 5432.5,5103.5C 5444.24,5100.31 5455.9,5096.81 5467.5,5093C 5474.68,5089.64 5477.68,5083.97 5476.5,5076C 5475.96,5065.15 5475.29,5054.32 5474.5,5043.5C 5463.87,5044.72 5453.21,5045.39 5442.5,5045.5C 5440.09,5021.19 5438.25,4996.86 5437,4972.5C 5442.44,4960.84 5447.11,4948.84 5451,4936.5C 5459.71,4928.79 5468.71,4921.45 5478,4914.5C 5477.62,4900.45 5476.46,4886.45 5474.5,4872.5C 5474.83,4871.83 5475.17,4871.17 5475.5,4870.5C 5482.35,4865.57 5489.68,4861.41 5497.5,4858C 5500.11,4856.06 5501.94,4853.56 5503,4850.5C 5503.67,4842.5 5503.67,4834.5 5503,4826.5C 5499.75,4793.51 5496.58,4760.51 5493.5,4727.5C 5497.52,4702.42 5502.02,4677.42 5507,4652.5C 5520.76,4645.37 5534.59,4638.37 5548.5,4631.5C 5552.89,4616.84 5557.56,4602.34 5562.5,4588C 5588.77,4580.85 5615.11,4574.02 5641.5,4567.5C 5645.5,4552.5 5649.5,4537.5 5653.5,4522.5C 5676.16,4520.92 5698.82,4519.75 5721.5,4519C 5735.28,4524.73 5748.95,4530.73 5762.5,4537C 5774.29,4541.93 5786.29,4546.26 5798.5,4550C 5805.08,4551.55 5811.75,4552.38 5818.5,4552.5C 5834.69,4551.47 5850.86,4550.14 5867,4548.5C 5889.6,4552.18 5912.1,4556.35 5934.5,4561C 5940.64,4566.96 5946.3,4573.29 5951.5,4580C 5953.09,4580.86 5954.75,4581.53 5956.5,4582C 5976.9,4582.62 5997.24,4581.62 6017.5,4579C 6027.5,4573 6037.5,4567 6047.5,4561C 6063.8,4559.48 6080.13,4558.48 6096.5,4558C 6111.95,4552.11 6127.28,4545.94 6142.5,4539.5C 6142.83,4537.17 6143.17,4534.83 6143.5,4532.5C 6142.78,4524.81 6142.28,4517.14 6142,4509.5C 6172.44,4481.06 6202.28,4451.89 6231.5,4422C 6240.5,4412.86 6250.16,4404.7 6260.5,4397.5 Z"/></g>
<g><path style="opacity:1" fill="#049943" d="M 3882.5,4407.5 C 3885.25,4407.19 3887.91,4407.52 3890.5,4408.5C 3898.11,4426.05 3905.44,4443.72 3912.5,4461.5C 3891.36,4468.93 3870.2,4476.27 3849,4483.5C 3839.74,4460.57 3830.58,4437.57 3821.5,4414.5C 3841.94,4411.82 3862.27,4409.49 3882.5,4407.5 Z"/></g>
<g><path style="opacity:1" fill="#039943" d="M 7151.5,4576.5 C 7169.55,4582.77 7186.05,4591.77 7201,4603.5C 7203.78,4606.72 7205.78,4610.38 7207,4614.5C 7207.67,4621.83 7207.67,4629.17 7207,4636.5C 7202.26,4649.23 7198.42,4662.23 7195.5,4675.5C 7188.97,4673.32 7183.13,4669.99 7178,4665.5C 7177.51,4664.21 7177.34,4662.87 7177.5,4661.5C 7142.6,4665.6 7107.6,4668.1 7072.5,4669C 7062.38,4667.19 7055.88,4661.36 7053,4651.5C 7050.08,4640.19 7048.24,4628.86 7047.5,4617.5C 7082.27,4603.81 7116.93,4590.14 7151.5,4576.5 Z"/></g>
<g><path style="opacity:1" fill="#59b62e" d="M 4184.5,4580.5 C 4184.83,4592.19 4184.5,4603.85 4183.5,4615.5C 4182.89,4615.38 4182.56,4615.04 4182.5,4614.5C 4183.17,4603.17 4183.83,4591.83 4184.5,4580.5 Z"/></g>
<g><path style="opacity:1" fill="#069943" d="M 1927.5,4611.5 C 1954.31,4609.35 1980.31,4612.85 2005.5,4622C 2030.33,4634.17 2047.49,4653.34 2057,4679.5C 2060.95,4690.97 2064.12,4702.64 2066.5,4714.5C 2013.25,4715.96 1971.42,4694.96 1941,4651.5C 1933.98,4639.62 1928.82,4626.95 1925.5,4613.5C 1926.24,4612.82 1926.91,4612.15 1927.5,4611.5 Z"/></g>
<g><path style="opacity:1" fill="#039943" d="M 7809.5,4618.5 C 7826.84,4618.33 7844.17,4618.5 7861.5,4619C 7869,4619.29 7876,4621.29 7882.5,4625C 7889.46,4633.96 7898.12,4640.63 7908.5,4645C 7919.05,4648.07 7929.72,4650.74 7940.5,4653C 7947.63,4666.09 7954.63,4679.25 7961.5,4692.5C 7953.3,4699.86 7943.96,4705.36 7933.5,4709C 7911.14,4711.89 7888.81,4713.72 7866.5,4714.5C 7861.07,4698.14 7853.4,4682.97 7843.5,4669C 7839.11,4666.14 7834.45,4663.81 7829.5,4662C 7823.11,4656.06 7818.61,4648.9 7816,4640.5C 7813.32,4633.3 7811.15,4625.96 7809.5,4618.5 Z"/></g>
<g><path style="opacity:1" fill="#009943" d="M 8694.5,4873.5 C 8695.15,4885.27 8695.81,4896.93 8696.5,4908.5C 8699.28,5206.16 8701.11,5503.83 8702,5801.5C 8684.22,5783.39 8667.55,5764.39 8652,5744.5C 8636.7,5726.18 8617.86,5713.02 8595.5,5705C 8581.1,5700.85 8566.44,5699.52 8551.5,5701C 8535.69,5710.8 8521.02,5722.14 8507.5,5735C 8496.19,5736.22 8484.85,5737.22 8473.5,5738C 8457.59,5750.87 8441.42,5763.37 8425,5775.5C 8408.81,5771.24 8392.64,5766.91 8376.5,5762.5C 8375.68,5772.18 8376.02,5781.85 8377.5,5791.5C 8334.17,5795.17 8290.83,5798.83 8247.5,5802.5C 8246.17,5802.5 8244.83,5802.5 8243.5,5802.5C 8243.5,5799.17 8243.5,5795.83 8243.5,5792.5C 8245.34,5760.42 8247.84,5728.42 8251,5696.5C 8259.78,5693.36 8268.28,5689.53 8276.5,5685C 8282.98,5681.2 8287.14,5675.7 8289,5668.5C 8289.13,5655.79 8289.79,5643.13 8291,5630.5C 8292.34,5623.48 8294.67,5616.81 8298,5610.5C 8312.09,5602.54 8326.25,5594.71 8340.5,5587C 8296.54,5573.36 8264.71,5545.86 8245,5504.5C 8233.5,5473.82 8224.16,5442.49 8217,5410.5C 8207.66,5370.63 8188.16,5336.8 8158.5,5309C 8139.19,5293.5 8117.85,5281.34 8094.5,5272.5C 8080.27,5277.08 8066.6,5282.91 8053.5,5290C 8037.07,5294.09 8020.4,5295.42 8003.5,5294C 7984.68,5287.83 7965.34,5285.17 7945.5,5286C 7932.17,5262.33 7918.83,5238.67 7905.5,5215C 7870.52,5218.13 7835.52,5221.46 7800.5,5225C 7793.17,5225.67 7785.83,5225.67 7778.5,5225C 7771.19,5220.36 7763.85,5215.7 7756.5,5211C 7744.89,5206.56 7732.89,5203.73 7720.5,5202.5C 7723.69,5186.74 7727.36,5171.07 7731.5,5155.5C 7713.15,5151.62 7694.65,5148.62 7676,5146.5C 7650.82,5148.27 7625.65,5150.27 7600.5,5152.5C 7599.17,5152.17 7597.83,5151.83 7596.5,5151.5C 7583.25,5133.34 7570.25,5115.01 7557.5,5096.5C 7560.08,5091.67 7562.92,5087 7566,5082.5C 7572.38,5075.12 7578.38,5067.45 7584,5059.5C 7585.48,5045.86 7585.81,5032.2 7585,5018.5C 7561.04,5037.14 7545.04,5061.14 7537,5090.5C 7532.83,5114.69 7525.16,5137.69 7514,5159.5C 7509.38,5166.45 7504.38,5173.12 7499,5179.5C 7489.14,5188.36 7479.64,5197.52 7470.5,5207C 7459.52,5215.81 7448.19,5216.48 7436.5,5209C 7419.86,5193.08 7412.69,5173.58 7415,5150.5C 7416.28,5143.07 7420.44,5138.4 7427.5,5136.5C 7427.3,5126.45 7426.47,5116.45 7425,5106.5C 7414.68,5091.37 7403.51,5076.87 7391.5,5063C 7379.88,5052.56 7366.21,5046.56 7350.5,5045C 7328.85,5043.17 7307.18,5043 7285.5,5044.5C 7286.92,5032.49 7289.75,5020.82 7294,5009.5C 7302.78,4992.17 7316.94,4982.34 7336.5,4980C 7357.81,4978.11 7379.15,4976.45 7400.5,4975C 7411.54,4974.53 7422.04,4972.03 7432,4967.5C 7435.02,4958.46 7438.85,4949.79 7443.5,4941.5C 7433.4,4937.12 7423.07,4933.29 7412.5,4930C 7394.46,4929.89 7376.46,4930.89 7358.5,4933C 7348.33,4939.17 7338.17,4945.33 7328,4951.5C 7310.58,4942.21 7293.08,4933.04 7275.5,4924C 7273.38,4912.26 7271.55,4900.42 7270,4888.5C 7268.14,4865.49 7266.3,4842.49 7264.5,4819.5C 7248.01,4817.73 7231.68,4814.9 7215.5,4811C 7203.5,4810.33 7191.5,4810.33 7179.5,4811C 7162.51,4812.83 7145.51,4814.33 7128.5,4815.5C 7126.97,4787.93 7133.14,4762.26 7147,4738.5C 7153.64,4727.7 7160.47,4717.03 7167.5,4706.5C 7184.69,4698.74 7202.02,4691.24 7219.5,4684C 7249.67,4666.41 7280,4649.08 7310.5,4632C 7334.35,4628.36 7358.35,4626.69 7382.5,4627C 7403.41,4634.96 7424.41,4642.62 7445.5,4650C 7458.2,4649.66 7470.87,4648.99 7483.5,4648C 7499.92,4655.81 7516.25,4663.81 7532.5,4672C 7543.36,4671.89 7554.19,4671.06 7565,4669.5C 7575.26,4678.09 7585.26,4687.09 7595,4696.5C 7600.24,4703.31 7603.57,4710.98 7605,4719.5C 7609.73,4771.83 7614.39,4824.16 7619,4876.5C 7628.84,4891.5 7638.17,4906.83 7647,4922.5C 7649.14,4925.94 7651.64,4929.11 7654.5,4932C 7673.83,4941.33 7693.17,4950.67 7712.5,4960C 7723.43,4963.81 7734.43,4967.31 7745.5,4970.5C 7747.49,4996.59 7750.33,5022.59 7754,5048.5C 7786.01,5038.66 7818.18,5029.33 7850.5,5020.5C 7849.49,5010.51 7848.99,5000.51 7849,4990.5C 7858.12,4983.71 7866.96,4976.55 7875.5,4969C 7886.98,4963.09 7898.98,4958.59 7911.5,4955.5C 7911.49,4941.15 7911.32,4926.81 7911,4912.5C 7931.02,4896.31 7951.19,4880.31 7971.5,4864.5C 7972.38,4854.48 7972.04,4844.48 7970.5,4834.5C 7942.18,4836.77 7913.84,4838.6 7885.5,4840C 7877.3,4831.47 7868.8,4823.3 7860,4815.5C 7856.28,4811.45 7852.95,4807.12 7850,4802.5C 7849.1,4796.47 7848.44,4790.47 7848,4784.5C 7849.78,4785.48 7851.45,4785.15 7853,4783.5C 7857.26,4777.31 7861.26,4770.97 7865,4764.5C 7882.65,4769.66 7900.48,4774 7918.5,4777.5C 7944.76,4775.19 7970.92,4772.52 7997,4769.5C 7993.63,4789.75 7990.46,4810.08 7987.5,4830.5C 8008.58,4829.13 8029.58,4826.96 8050.5,4824C 8057.78,4809.26 8065.95,4795.09 8075,4781.5C 8079.72,4775.91 8084.55,4770.41 8089.5,4765C 8093.02,4762.49 8096.86,4760.65 8101,4759.5C 8104.32,4749.89 8107.49,4740.22 8110.5,4730.5C 8136.8,4727.91 8163.14,4725.58 8189.5,4723.5C 8191.17,4723.83 8192.83,4724.17 8194.5,4724.5C 8201.33,4733.5 8208.17,4742.5 8215,4751.5C 8215.92,4761.16 8216.76,4770.83 8217.5,4780.5C 8291.27,4777.68 8362.94,4788.51 8432.5,4813C 8454.35,4820.58 8474.01,4831.75 8491.5,4846.5C 8511.86,4847.16 8532.2,4848.33 8552.5,4850C 8590.64,4855.89 8628.64,4862.56 8666.5,4870C 8675.8,4871.5 8685.14,4872.66 8694.5,4873.5 Z"/></g>
<g><path style="opacity:1" fill="#069943" d="M 7716.5,4656.5 C 7728.52,4658.15 7740.52,4659.98 7752.5,4662C 7758.43,4663.92 7763.26,4667.42 7767,4672.5C 7771.95,4680.05 7777.61,4687.05 7784,4693.5C 7785.62,4708.14 7786.79,4722.8 7787.5,4737.5C 7765.7,4730.3 7744.03,4722.63 7722.5,4714.5C 7719.33,4695.32 7717.33,4675.98 7716.5,4656.5 Z"/></g>
<g><path style="opacity:1" fill="#069943" d="M 6595.5,4671.5 C 6612.23,4674.13 6628.9,4677.13 6645.5,4680.5C 6647.73,4704.51 6650.06,4728.51 6652.5,4752.5C 6637.14,4753.89 6621.81,4753.72 6606.5,4752C 6594.42,4748.39 6587.58,4740.22 6586,4727.5C 6584.04,4714.22 6582.54,4700.88 6581.5,4687.5C 6585.15,4687.38 6587.98,4685.71 6590,4682.5C 6592.37,4679.09 6594.2,4675.42 6595.5,4671.5 Z"/></g>
<g><path style="opacity:1" fill="#069943" d="M 2962.5,4744.5 C 2962.92,4746.78 2962.26,4748.45 2960.5,4749.5C 2947.71,4748.12 2935.04,4745.96 2922.5,4743C 2912.09,4740.22 2905.25,4733.72 2902,4723.5C 2898.2,4710.97 2895.03,4698.31 2892.5,4685.5C 2905.15,4684.33 2917.82,4684.17 2930.5,4685C 2944.18,4685.07 2953.01,4691.57 2957,4704.5C 2959.71,4717.71 2961.55,4731.04 2962.5,4744.5 Z"/></g>
<g><path style="opacity:1" fill="#0b9a43" d="M 2176.5,4704.5 C 2177.38,4704.37 2178.04,4704.7 2178.5,4705.5C 2186.56,4723.29 2194.89,4740.95 2203.5,4758.5C 2202.33,4758.83 2201.17,4759.17 2200,4759.5C 2188.81,4758.9 2177.65,4758.06 2166.5,4757C 2151.63,4752.75 2145.8,4742.92 2149,4727.5C 2150.4,4723.21 2152.9,4719.71 2156.5,4717C 2163.4,4713.06 2170.07,4708.89 2176.5,4704.5 Z"/></g>
<g><path style="opacity:1" fill="#079943" d="M 2114.5,4725.5 C 2116.72,4739.64 2118.39,4753.97 2119.5,4768.5C 2108.5,4769.44 2097.5,4770.44 2086.5,4771.5C 2085.58,4757.16 2084.58,4742.83 2083.5,4728.5C 2094.01,4727.88 2104.35,4726.88 2114.5,4725.5 Z"/></g>
<g><path style="opacity:1" fill="#88c722" d="M 2962.5,4744.5 C 2963.46,4746.26 2963.79,4748.26 2963.5,4750.5C 2962.21,4750.74 2961.21,4750.4 2960.5,4749.5C 2962.26,4748.45 2962.92,4746.78 2962.5,4744.5 Z"/></g>
<g><path style="opacity:1" fill="#039943" d="M 2210.5,4788.5 C 2216.18,4788.33 2221.84,4788.5 2227.5,4789C 2232.41,4791.57 2237.08,4794.57 2241.5,4798C 2255.18,4805.21 2269.68,4809.71 2285,4811.5C 2291.2,4829.77 2297.2,4848.1 2303,4866.5C 2306.57,4884.04 2308.9,4901.71 2310,4919.5C 2307.19,4928.97 2301.03,4935.14 2291.5,4938C 2277.11,4942.28 2262.45,4944.61 2247.5,4945C 2242.17,4940.67 2236.83,4936.33 2231.5,4932C 2218.82,4918.66 2205.49,4905.99 2191.5,4894C 2174.27,4877.38 2163.44,4857.22 2159,4833.5C 2157.32,4824.89 2156.15,4816.23 2155.5,4807.5C 2169.31,4804.39 2182.31,4799.23 2194.5,4792C 2199.87,4790.36 2205.2,4789.2 2210.5,4788.5 Z"/></g>
<g><path style="opacity:1" fill="#039943" d="M 6655.5,4792.5 C 6677.96,4800.1 6700.3,4808.1 6722.5,4816.5C 6723.64,4826.17 6724.8,4835.84 6726,4845.5C 6736.93,4850.2 6748.1,4854.2 6759.5,4857.5C 6760.86,4871.8 6761.53,4886.13 6761.5,4900.5C 6745.18,4902.17 6728.85,4903.33 6712.5,4904C 6684.42,4887.88 6656.59,4871.38 6629,4854.5C 6628.18,4845.12 6628.52,4835.79 6630,4826.5C 6638.72,4815.29 6647.22,4803.96 6655.5,4792.5 Z"/></g>
<g><path style="opacity:1" fill="#079943" d="M 7051.5,4860.5 C 7059.17,4860.33 7066.84,4860.5 7074.5,4861C 7085.79,4861.95 7093.29,4867.79 7097,4878.5C 7101.1,4890.21 7103.93,4902.21 7105.5,4914.5C 7085.54,4916.25 7065.54,4916.75 7045.5,4916C 7039.12,4914.57 7034.29,4911.07 7031,4905.5C 7025.15,4891.76 7021.65,4877.43 7020.5,4862.5C 7031.03,4862.53 7041.36,4861.86 7051.5,4860.5 Z"/></g>
<g><path style="opacity:1" fill="#069943" d="M 6061.5,4862.5 C 6075.82,4862.41 6087.32,4868.08 6096,4879.5C 6103.86,4890.39 6110.03,4902.22 6114.5,4915C 6114.36,4915.77 6114.02,4916.44 6113.5,4917C 6100.19,4920.77 6087.53,4926.1 6075.5,4933C 6060.75,4937.02 6045.75,4938.35 6030.5,4937C 6016.02,4932.88 6001.35,4929.71 5986.5,4927.5C 5988.75,4899.18 6003.08,4879.68 6029.5,4869C 6040.07,4865.63 6050.74,4863.47 6061.5,4862.5 Z"/></g>
<g><path style="opacity:1" fill="#40af32" d="M 8694.5,4873.5 C 8696.48,4884.79 8697.15,4896.45 8696.5,4908.5C 8695.81,4896.93 8695.15,4885.27 8694.5,4873.5 Z"/></g>
<g><path style="opacity:1" fill="#099a43" d="M 3232.5,5026.5 C 3231.83,5025.83 3231.17,5025.17 3230.5,5024.5C 3230.07,5016.14 3229.41,5007.81 3228.5,4999.5C 3217.84,5000.28 3207.17,5000.94 3196.5,5001.5C 3197.56,5011.16 3198.56,5020.83 3199.5,5030.5C 3207.16,5030.11 3214.83,5029.78 3222.5,5029.5C 3224.41,5029.22 3226.08,5029.55 3227.5,5030.5C 3213.53,5036.49 3199.53,5042.49 3185.5,5048.5C 3184.75,5047.62 3184.25,5046.62 3184,5045.5C 3181.92,5022.15 3179.76,4998.81 3177.5,4975.5C 3199.21,4978.58 3220.88,4981.91 3242.5,4985.5C 3240.7,4964.86 3239.53,4944.19 3239,4923.5C 3241.73,4910.44 3249.56,4902.27 3262.5,4899C 3267.97,4898.15 3273.47,4897.65 3279,4897.5C 3302.78,4900.19 3326.61,4902.19 3350.5,4903.5C 3350.94,4912.87 3351.44,4922.2 3352,4931.5C 3325.18,4924.57 3298.34,4917.57 3271.5,4910.5C 3272.05,4922.43 3274.55,4934.1 3279,4945.5C 3282.03,4954.53 3288.2,4960.03 3297.5,4962C 3316.53,4962.61 3335.53,4962.11 3354.5,4960.5C 3354.16,4951.14 3353.5,4941.81 3352.5,4932.5C 3357.82,4932.02 3363.16,4931.69 3368.5,4931.5C 3369.89,4946.16 3371.23,4960.83 3372.5,4975.5C 3351.16,4977.06 3329.82,4978.72 3308.5,4980.5C 3309.55,4989.51 3310.55,4998.51 3311.5,5007.5C 3310.5,5007.83 3309.5,5008.17 3308.5,5008.5C 3287.22,5005.8 3265.88,5003.97 3244.5,5003C 3240.36,5010.78 3236.36,5018.62 3232.5,5026.5 Z"/></g>
<g><path style="opacity:1" fill="#039943" d="M 6228.5,4903.5 C 6232.18,4903.33 6235.85,4903.5 6239.5,4904C 6246.5,4912.33 6253.5,4920.67 6260.5,4929C 6282.21,4928.05 6303.87,4926.72 6325.5,4925C 6329.89,4934.84 6333.89,4944.84 6337.5,4955C 6335.41,4963.85 6333.25,4972.69 6331,4981.5C 6277.58,4986.83 6224.08,4991.83 6170.5,4996.5C 6169.74,4982.61 6168.4,4968.78 6166.5,4955C 6171.13,4940.11 6175.96,4925.27 6181,4910.5C 6196.98,4908.53 6212.82,4906.2 6228.5,4903.5 Z"/></g>
<g><path style="opacity:1" fill="#069943" d="M 2395.5,4971.5 C 2397.12,4971.36 2398.29,4972.03 2399,4973.5C 2408.55,5000.98 2417.38,5028.64 2425.5,5056.5C 2408.2,5058.9 2390.87,5060.23 2373.5,5060.5C 2366.9,5043.87 2360.4,5027.21 2354,5010.5C 2352.03,5003.9 2351.53,4997.23 2352.5,4990.5C 2367.04,4984.39 2381.37,4978.06 2395.5,4971.5 Z"/></g>
<g><path style="opacity:1" fill="#fbef01" d="M 3230.5,5024.5 C 3230.5,5025.83 3230.5,5027.17 3230.5,5028.5C 3227.61,5028.19 3224.95,5028.53 3222.5,5029.5C 3214.83,5029.78 3207.16,5030.11 3199.5,5030.5C 3198.56,5020.83 3197.56,5011.16 3196.5,5001.5C 3207.17,5000.94 3217.84,5000.28 3228.5,4999.5C 3229.41,5007.81 3230.07,5016.14 3230.5,5024.5 Z"/></g>
<g><path style="opacity:1" fill="#029943" d="M 7030.5,5021.5 C 7070.94,5027.96 7111.27,5034.96 7151.5,5042.5C 7170.56,5083.62 7189.89,5124.62 7209.5,5165.5C 7197.28,5169.41 7185.61,5174.57 7174.5,5181C 7158.87,5186.41 7143.2,5186.75 7127.5,5182C 7106.22,5171.05 7089.89,5155.05 7078.5,5134C 7058.84,5131.93 7039.17,5129.93 7019.5,5128C 6999.49,5127.48 6979.49,5127.81 6959.5,5129C 6913.87,5133.6 6868.21,5137.77 6822.5,5141.5C 6818.44,5141.42 6814.44,5140.92 6810.5,5140C 6796.88,5136.18 6783.21,5132.68 6769.5,5129.5C 6768.12,5116.11 6766.28,5102.77 6764,5089.5C 6763.33,5074.82 6762.5,5060.15 6761.5,5045.5C 6782.2,5044.28 6802.87,5042.61 6823.5,5040.5C 6831.08,5044.78 6839.08,5048.28 6847.5,5051C 6856.46,5052.38 6865.46,5052.72 6874.5,5052C 6896.46,5049.04 6918.46,5046.37 6940.5,5044C 6950.5,5038 6960.5,5032 6970.5,5026C 6990.69,5024.91 7010.69,5023.41 7030.5,5021.5 Z"/></g>
<g><path style="opacity:1" fill="#fef000" d="M 383.5,5027.5 C 617.864,5111.62 852.197,5195.96 1086.5,5280.5C 1089.12,5329.14 1089.78,5377.8 1088.5,5426.5C 857.833,5520.83 627.167,5615.17 396.5,5709.5C 394.465,5659.85 393.298,5610.18 393,5560.5C 445.746,5539.7 498.413,5518.7 551,5497.5C 549.673,5407.17 548.007,5316.84 546,5226.5C 492.667,5208.5 439.333,5190.5 386,5172.5C 385.093,5124.17 384.26,5075.83 383.5,5027.5 Z"/></g>
<g><path style="opacity:1" fill="#5fb82d" d="M 3230.5,5024.5 C 3231.17,5025.17 3231.83,5025.83 3232.5,5026.5C 3231.56,5028.69 3229.89,5030.02 3227.5,5030.5C 3226.08,5029.55 3224.41,5029.22 3222.5,5029.5C 3224.95,5028.53 3227.61,5028.19 3230.5,5028.5C 3230.5,5027.17 3230.5,5025.83 3230.5,5024.5 Z"/></g>
<g><path style="opacity:1" fill="#fef000" d="M 9250.5,5040.5 C 9483.15,5056.54 9715.82,5072.54 9948.5,5088.5C 9946.4,5130.54 9943.56,5172.54 9940,5214.5C 9939.44,5215.02 9938.77,5215.36 9938,5215.5C 9756.86,5202.85 9575.69,5190.68 9394.5,5179C 9572.96,5236.88 9751.63,5294.04 9930.5,5350.5C 9927.07,5394.8 9924.07,5439.14 9921.5,5483.5C 9736.41,5514.92 9551.41,5546.75 9366.5,5579C 9548.15,5591.79 9729.82,5604.29 9911.5,5616.5C 9908.78,5659.19 9905.78,5701.85 9902.5,5744.5C 9669.81,5728.8 9437.15,5712.8 9204.5,5696.5C 9208.88,5627.82 9213.55,5559.15 9218.5,5490.5C 9380.08,5461.27 9541.42,5431.1 9702.5,5400C 9547.4,5349.13 9392.4,5297.97 9237.5,5246.5C 9237.17,5244 9236.83,5241.5 9236.5,5239C 9241.24,5172.83 9245.9,5106.67 9250.5,5040.5 Z"/></g>
<g><path style="opacity:1" fill="#039943" d="M 2464.5,5083.5 C 2467.5,5083.5 2470.5,5083.5 2473.5,5083.5C 2478.89,5101.7 2489.39,5116.03 2505,5126.5C 2506.37,5129.19 2507.7,5131.85 2509,5134.5C 2512.21,5160.1 2514.87,5185.77 2517,5211.5C 2523.08,5239.08 2528.58,5266.74 2533.5,5294.5C 2518.01,5288.76 2503.68,5280.92 2490.5,5271C 2451.12,5241.39 2421.96,5203.89 2403,5158.5C 2400.36,5150.28 2398.19,5141.94 2396.5,5133.5C 2406.5,5132.24 2416.5,5130.91 2426.5,5129.5C 2419.42,5116.34 2412.09,5103.34 2404.5,5090.5C 2424.61,5087.86 2444.61,5085.52 2464.5,5083.5 Z"/></g>
<g><path style="opacity:1" fill="#059943" d="M 3889.5,5099.5 C 3906.17,5099.33 3922.84,5099.5 3939.5,5100C 3950.29,5100.95 3960.63,5103.61 3970.5,5108C 3989.52,5119.05 3993.36,5133.89 3982,5152.5C 3972.83,5163.25 3961.16,5167.92 3947,5166.5C 3926.72,5167.7 3911.39,5159.7 3901,5142.5C 3895.6,5129.56 3891.43,5116.23 3888.5,5102.5C 3888.69,5101.42 3889.02,5100.42 3889.5,5099.5 Z"/></g>
<g><path style="opacity:1" fill="#029943" d="M 6487.5,5099.5 C 6526.18,5100.49 6564.84,5101.82 6603.5,5103.5C 6614.53,5118.03 6625.36,5132.69 6636,5147.5C 6649.53,5167.9 6658.03,5190.23 6661.5,5214.5C 6645.76,5219.69 6630.09,5225.19 6614.5,5231C 6587.23,5235.04 6559.9,5237.54 6532.5,5238.5C 6519.78,5225.95 6507.62,5212.95 6496,5199.5C 6475.29,5174.59 6471.29,5147.26 6484,5117.5C 6485.49,5111.55 6486.66,5105.55 6487.5,5099.5 Z"/></g>
<g><path style="opacity:1" fill="#039943" d="M 3496.5,5134.5 C 3498.72,5134.18 3500.56,5134.84 3502,5136.5C 3506.64,5145.48 3512.47,5153.65 3519.5,5161C 3524.84,5160.92 3529,5163.08 3532,5167.5C 3537.86,5182.09 3543.53,5196.75 3549,5211.5C 3559.33,5231.17 3574.33,5246.17 3594,5256.5C 3595.04,5266.15 3595.88,5275.82 3596.5,5285.5C 3606.82,5284.52 3617.16,5284.02 3627.5,5284C 3634.26,5301.44 3640.93,5318.94 3647.5,5336.5C 3643.83,5341.83 3640.17,5347.17 3636.5,5352.5C 3602.79,5352.21 3572.12,5342.37 3544.5,5323C 3527.68,5309.43 3510.68,5296.09 3493.5,5283C 3484.67,5277.08 3475.67,5271.42 3466.5,5266C 3454.54,5260.35 3442.21,5255.68 3429.5,5252C 3417.69,5249.97 3406.02,5247.3 3394.5,5244C 3383.56,5239.72 3375.06,5232.55 3369,5222.5C 3365.89,5217 3363.05,5211.33 3360.5,5205.5C 3376.43,5203.28 3392.43,5201.62 3408.5,5200.5C 3407.03,5185.51 3406.7,5170.51 3407.5,5155.5C 3423.18,5159.67 3438.84,5163.67 3454.5,5167.5C 3454.08,5158.48 3453.41,5149.48 3452.5,5140.5C 3467.59,5140.58 3482.25,5138.58 3496.5,5134.5 Z"/></g>
<g><path style="opacity:1" fill="#019943" d="M 663.5,5267.5 C 750.186,5296.23 836.853,5325.06 923.5,5354C 838.317,5386.84 753.15,5419.67 668,5452.5C 666.384,5390.83 664.884,5329.17 663.5,5267.5 Z"/></g>
<g><path style="opacity:1" fill="#0a9a43" d="M 3835.5,5276.5 C 3837.17,5276.5 3838.83,5276.5 3840.5,5276.5C 3841.03,5286.16 3841.36,5295.83 3841.5,5305.5C 3852.59,5304.96 3859.76,5309.96 3863,5320.5C 3864.81,5336.37 3858.98,5348.54 3845.5,5357C 3840.16,5360.11 3834.49,5362.45 3828.5,5364C 3809.23,5367.33 3789.9,5368.33 3770.5,5367C 3758.51,5363.67 3751.34,5355.84 3749,5343.5C 3746.51,5324.22 3744.67,5304.89 3743.5,5285.5C 3774.34,5282.81 3805.01,5279.81 3835.5,5276.5 Z"/></g>
<g><path style="opacity:1" fill="#fdf000" d="M 3761.5,5299.5 C 3788.29,5301.12 3814.96,5303.62 3841.5,5307C 3837.46,5321.32 3834.13,5335.82 3831.5,5350.5C 3814.08,5349.52 3796.75,5347.69 3779.5,5345C 3773.07,5343.57 3768.91,5339.74 3767,5333.5C 3765.27,5322.14 3763.44,5310.8 3761.5,5299.5 Z"/></g>
<g><path style="opacity:1" fill="#069943" d="M 2559.5,5304.5 C 2572.53,5304.23 2585.53,5304.73 2598.5,5306C 2609.78,5306.95 2617.28,5312.78 2621,5323.5C 2624.46,5334.3 2626.96,5345.3 2628.5,5356.5C 2614.83,5356.67 2601.16,5356.5 2587.5,5356C 2577.45,5354.4 2570.62,5348.9 2567,5339.5C 2563.29,5328.1 2560.79,5316.44 2559.5,5304.5 Z"/></g>
<g><path style="opacity:1" fill="#059943" d="M 7547.5,5332.5 C 7548.5,5332.5 7549.5,5332.5 7550.5,5332.5C 7557.17,5347.35 7563.34,5362.35 7569,5377.5C 7559.29,5391.75 7549.46,5405.92 7539.5,5420C 7524.23,5422.31 7508.89,5424.48 7493.5,5426.5C 7488.59,5441.05 7483.59,5455.55 7478.5,5470C 7470.2,5471.36 7461.86,5472.53 7453.5,5473.5C 7452.17,5473.17 7450.83,5472.83 7449.5,5472.5C 7447.26,5453.57 7445.59,5434.57 7444.5,5415.5C 7458.79,5412.14 7472.62,5407.47 7486,5401.5C 7486.86,5399.91 7487.53,5398.25 7488,5396.5C 7488.5,5382.84 7488.67,5369.17 7488.5,5355.5C 7508.47,5348.4 7528.13,5340.74 7547.5,5332.5 Z"/></g>
<g><path style="opacity:1" fill="#039943" d="M 7771.5,5344.5 C 7773.92,5344.19 7776.26,5344.53 7778.5,5345.5C 7784.33,5353.17 7790.17,5360.83 7796,5368.5C 7803.46,5426.31 7809.63,5484.31 7814.5,5542.5C 7787.47,5544.11 7760.47,5546.11 7733.5,5548.5C 7731.78,5559.17 7729.94,5569.83 7728,5580.5C 7727.06,5584.21 7725.23,5587.37 7722.5,5590C 7706.29,5593.24 7689.95,5595.74 7673.5,5597.5C 7671.37,5574.82 7669.04,5552.16 7666.5,5529.5C 7666.71,5528.01 7667.38,5526.84 7668.5,5526C 7688.24,5518.86 7707.91,5511.53 7727.5,5504C 7719.72,5497.56 7714.05,5489.73 7710.5,5480.5C 7694.61,5483 7678.61,5484.34 7662.5,5484.5C 7662.71,5472.12 7662.04,5459.79 7660.5,5447.5C 7660.61,5439.55 7664.61,5434.72 7672.5,5433C 7683.39,5429.36 7694.39,5426.19 7705.5,5423.5C 7705.11,5409.12 7705.61,5394.79 7707,5380.5C 7713.29,5368.87 7721.13,5358.37 7730.5,5349C 7744.3,5347.34 7757.96,5345.84 7771.5,5344.5 Z"/></g>
<g><path style="opacity:1" fill="#039943" d="M 6098.5,5348.5 C 6100.79,5348.24 6102.96,5348.58 6105,5349.5C 6111.27,5362.87 6117.1,5376.37 6122.5,5390C 6114.25,5410 6105.59,5429.83 6096.5,5449.5C 6099.59,5455.43 6103.93,5460.26 6109.5,5464C 6111.24,5464.65 6112.9,5464.48 6114.5,5463.5C 6116.86,5476.38 6117.69,5489.38 6117,5502.5C 6115.26,5506.24 6112.76,5509.41 6109.5,5512C 6097.13,5517.04 6084.63,5521.54 6072,5525.5C 6070.35,5539.73 6066.69,5553.39 6061,5566.5C 6055.89,5571.97 6049.73,5575.81 6042.5,5578C 6032.93,5581.04 6023.43,5584.2 6014,5587.5C 6010.6,5564.62 6008.93,5541.62 6009,5518.5C 6009.88,5515.9 6011.38,5513.73 6013.5,5512C 6022.11,5508.7 6030.11,5504.36 6037.5,5499C 6029.53,5486.19 6022.19,5473.03 6015.5,5459.5C 6025.45,5448.38 6035.62,5437.38 6046,5426.5C 6045.47,5414.52 6044.97,5402.52 6044.5,5390.5C 6041.48,5374.36 6047.48,5363.19 6062.5,5357C 6074.51,5353.6 6086.51,5350.76 6098.5,5348.5 Z"/></g>
<g><path style="opacity:1" fill="#0e9a43" d="M 2671.5,5365.5 C 2673.77,5365.14 2675.6,5365.81 2677,5367.5C 2677.62,5376.53 2678.45,5385.53 2679.5,5394.5C 2663.14,5395.95 2646.81,5397.61 2630.5,5399.5C 2630.37,5389.46 2629.71,5379.46 2628.5,5369.5C 2643.01,5368.54 2657.35,5367.21 2671.5,5365.5 Z"/></g>
<g><path style="opacity:1" fill="#049943" d="M 5993.5,5401.5 C 5997.76,5425.46 5995.59,5449.13 5987,5472.5C 5976.42,5495.74 5958.92,5511.24 5934.5,5519C 5926.36,5521.69 5918.02,5523.52 5909.5,5524.5C 5909.09,5512.41 5909.93,5500.41 5912,5488.5C 5916.6,5474.69 5921.6,5461.02 5927,5447.5C 5929.74,5433.97 5930.91,5420.3 5930.5,5406.5C 5951.71,5405.65 5972.71,5403.98 5993.5,5401.5 Z"/></g>
<g><path style="opacity:1" fill="#089a43" d="M 2711.5,5404.5 C 2712.79,5405.06 2713.62,5406.06 2714,5407.5C 2717.4,5417.7 2721.56,5427.53 2726.5,5437C 2728.81,5438.87 2731.47,5439.87 2734.5,5440C 2745.22,5441.18 2755.89,5442.68 2766.5,5444.5C 2766.87,5454.52 2767.53,5464.52 2768.5,5474.5C 2757.48,5475.06 2746.48,5475.56 2735.5,5476C 2717.36,5459.1 2699.02,5442.43 2680.5,5426C 2690.9,5418.81 2701.23,5411.64 2711.5,5404.5 Z"/></g>
<g><path style="opacity:1" fill="#079943" d="M 5883.5,5469.5 C 5885.17,5469.5 5886.83,5469.5 5888.5,5469.5C 5890.37,5488.81 5892.04,5508.15 5893.5,5527.5C 5877.5,5528.83 5861.5,5530.17 5845.5,5531.5C 5843.71,5512.18 5842.05,5492.85 5840.5,5473.5C 5855.04,5472.87 5869.38,5471.54 5883.5,5469.5 Z"/></g>
<g><path style="opacity:1" fill="#fef000" d="M 1098.5,5606.5 C 1099.5,5606.41 1100.33,5606.75 1101,5607.5C 1108.94,5654.81 1116.77,5702.15 1124.5,5749.5C 1124.61,5751.37 1123.94,5752.87 1122.5,5754C 962.01,5836.74 801.676,5919.74 641.5,6003C 820.142,6031.16 998.809,6059.16 1177.5,6087C 1185.7,6134.2 1193.37,6181.53 1200.5,6229C 1200.17,6229.83 1199.83,6230.67 1199.5,6231.5C 956.95,6186.86 714.283,6142.86 471.5,6099.5C 463.329,6050.76 455.996,6002.1 449.5,5953.5C 666.054,5838.06 882.387,5722.39 1098.5,5606.5 Z"/></g>
<g><path style="opacity:1" fill="#049943" d="M 7331.5,5613.5 C 7333.39,5622.93 7334.39,5632.6 7334.5,5642.5C 7345.17,5641.94 7355.84,5641.28 7366.5,5640.5C 7368.1,5669.87 7358.44,5694.71 7337.5,5715C 7324.23,5726.27 7310.4,5736.77 7296,5746.5C 7296.26,5761.19 7297.09,5775.85 7298.5,5790.5C 7277.63,5797.21 7256.63,5803.54 7235.5,5809.5C 7238.07,5736.21 7265.74,5674.38 7318.5,5624C 7322.9,5620.48 7327.24,5616.98 7331.5,5613.5 Z"/></g>
<g><path style="opacity:1" fill="#099a43" d="M 6920.5,5649.5 C 6923.17,5649.5 6925.83,5649.5 6928.5,5649.5C 6930.44,5668.82 6931.94,5688.16 6933,5707.5C 6922.61,5701.59 6911.61,5697.26 6900,5694.5C 6899.95,5680.39 6898.78,5666.39 6896.5,5652.5C 6904.72,5652.15 6912.72,5651.15 6920.5,5649.5 Z"/></g>
<g><path style="opacity:1" fill="#109a42" d="M 3020.5,5729.5 C 3028.23,5727.99 3034.73,5729.99 3040,5735.5C 3045.99,5749.97 3051.49,5764.64 3056.5,5779.5C 3035.27,5782.38 3013.94,5784.38 2992.5,5785.5C 2994.86,5773.88 2998.53,5762.72 3003.5,5752C 3003.83,5751.83 3004.17,5751.67 3004.5,5751.5C 3004.83,5752.67 3005.17,5753.83 3005.5,5755C 3005.89,5761.66 3006.73,5768.16 3008,5774.5C 3012.61,5763.84 3016.11,5752.84 3018.5,5741.5C 3007.01,5740.09 2995.68,5737.92 2984.5,5735C 2996.73,5733.75 3008.73,5731.92 3020.5,5729.5 Z"/></g>
<g><path style="opacity:1" fill="#0a9a43" d="M 7048.5,5738.5 C 7068.97,5736.8 7080.8,5746.13 7084,5766.5C 7085.9,5775.4 7087.07,5784.4 7087.5,5793.5C 7065.86,5790.92 7044.2,5788.59 7022.5,5786.5C 7021.49,5774.18 7023.66,5762.51 7029,5751.5C 7033.8,5744.52 7040.3,5740.19 7048.5,5738.5 Z"/></g>
<g><path style="opacity:1" fill="#0a9a43" d="M 6710.5,5757.5 C 6710.92,5756.88 6711.58,5756.54 6712.5,5756.5C 6722.46,5758 6732.46,5759.16 6742.5,5760C 6744.95,5760.72 6747.28,5761.72 6749.5,5763C 6755.45,5773.2 6759.62,5784.03 6762,5795.5C 6750.91,5793.79 6739.74,5792.29 6728.5,5791C 6724.33,5789.5 6721.5,5786.67 6720,5782.5C 6717.49,5773.79 6714.33,5765.46 6710.5,5757.5 Z"/></g>
<g><path style="opacity:1" fill="#039943" d="M 6630.5,5777.5 C 6631.5,5777.41 6632.33,5777.75 6633,5778.5C 6641.42,5791 6649.58,5803.66 6657.5,5816.5C 6652.5,5819.67 6647.5,5822.83 6642.5,5826C 6639.68,5828.14 6638.35,5830.97 6638.5,5834.5C 6595.47,5837.81 6552.47,5841.48 6509.5,5845.5C 6509.95,5831.32 6508.62,5817.32 6505.5,5803.5C 6521.65,5800.09 6536.65,5793.92 6550.5,5785C 6577.33,5782.6 6603.99,5780.1 6630.5,5777.5 Z"/></g>
<g><path style="opacity:1" fill="#68bb2b" d="M 8243.5,5792.5 C 8243.5,5795.83 8243.5,5799.17 8243.5,5802.5C 8244.83,5802.5 8246.17,5802.5 8247.5,5802.5C 8246.08,5803.45 8244.41,5803.78 8242.5,5803.5C 8242.19,5799.63 8242.52,5795.96 8243.5,5792.5 Z"/></g>
<g><path style="opacity:1" fill="#039943" d="M 4631.5,5810.5 C 4640.55,5810.19 4649.55,5810.69 4658.5,5812C 4671.04,5815.4 4683.37,5819.4 4695.5,5824C 4719.23,5829.43 4743.23,5830.93 4767.5,5828.5C 4768.05,5842.27 4767.22,5855.94 4765,5869.5C 4762.99,5876.18 4758.82,5881.01 4752.5,5884C 4746.12,5886.73 4739.45,5888.4 4732.5,5889C 4698.84,5891.89 4665.17,5894.72 4631.5,5897.5C 4612.53,5898.81 4597.7,5891.81 4587,5876.5C 4579.79,5862.78 4574.96,5848.28 4572.5,5833C 4572.75,5831.67 4573.42,5830.67 4574.5,5830C 4587.4,5826.38 4599.73,5821.38 4611.5,5815C 4618.2,5813.08 4624.87,5811.58 4631.5,5810.5 Z"/></g>
<g><path style="opacity:1" fill="#089a43" d="M 6797.5,5820.5 C 6807.55,5820.17 6817.55,5820.67 6827.5,5822C 6834.2,5824.04 6839.04,5828.21 6842,5834.5C 6846.9,5847.12 6850.4,5860.12 6852.5,5873.5C 6832.88,5875.73 6813.21,5876.9 6793.5,5877C 6782.6,5874.43 6776.1,5867.6 6774,5856.5C 6771.18,5845.22 6768.68,5833.89 6766.5,5822.5C 6777.02,5822.45 6787.36,5821.78 6797.5,5820.5 Z"/></g>
<g><path style="opacity:1" fill="#039943" d="M 6422.5,5853.5 C 6424.17,5853.5 6425.83,5853.5 6427.5,5853.5C 6428.35,5895.15 6408.35,5919.98 6367.5,5928C 6341.4,5933.09 6315.07,5936.26 6288.5,5937.5C 6286.69,5921.22 6286.19,5904.89 6287,5888.5C 6289.97,5878.19 6296.47,5871.03 6306.5,5867C 6310.45,5865.79 6314.45,5864.79 6318.5,5864C 6353.38,5861.08 6388.04,5857.58 6422.5,5853.5 Z"/></g>
<g><path style="opacity:1" fill="#029943" d="M 6697.5,5873.5 C 6700.52,5873.34 6703.52,5873.5 6706.5,5874C 6705.14,5875.94 6705.47,5877.6 6707.5,5879C 6712.89,5882.03 6718.23,5885.03 6723.5,5888C 6717.42,5897.49 6711.09,5906.82 6704.5,5916C 6684.48,5917.19 6664.48,5918.86 6644.5,5921C 6612.1,5968.74 6569.43,6004.07 6516.5,6027C 6507.35,6030.29 6498.01,6032.96 6488.5,6035C 6463.21,6037.72 6437.88,6039.89 6412.5,6041.5C 6405.69,6076.79 6391.52,6108.79 6370,6137.5C 6360.22,6150.62 6348.05,6160.79 6333.5,6168C 6296.13,6189.18 6257.8,6208.52 6218.5,6226C 6208.03,6229.88 6197.36,6233.05 6186.5,6235.5C 6184.7,6211.2 6184.2,6186.86 6185,6162.5C 6187.69,6117.52 6209.52,6086.02 6250.5,6068C 6271.46,6059.68 6293.13,6054.01 6315.5,6051C 6322.56,6041.25 6330.56,6032.25 6339.5,6024C 6353.5,6013.33 6367.5,6002.67 6381.5,5992C 6401.66,5974.66 6413.99,5952.82 6418.5,5926.5C 6454.61,5924.54 6490.61,5921.38 6526.5,5917C 6561.67,5910.96 6594.67,5898.96 6625.5,5881C 6649.65,5878.6 6673.65,5876.1 6697.5,5873.5 Z"/></g>
<g><path style="opacity:1" fill="#fdf000" d="M 4509.5,5877.5 C 4529.03,5876.59 4548.03,5879.25 4566.5,5885.5C 4566.47,5898.04 4563.97,5910.04 4559,5921.5C 4553.36,5927.94 4546.19,5931.11 4537.5,5931C 4523.36,5932.9 4510.03,5930.57 4497.5,5924C 4489.25,5916.23 4486.41,5906.73 4489,5895.5C 4492.62,5885.71 4499.45,5879.71 4509.5,5877.5 Z"/></g>
<g><path style="opacity:1" fill="#fef000" d="M 9869.5,5879.5 C 9871.5,5879.5 9873.5,5879.5 9875.5,5879.5C 9865.34,5928.46 9855.34,5977.46 9845.5,6026.5C 9791.47,6034.01 9737.47,6041.84 9683.5,6050C 9680.99,6050.09 9678.83,6050.93 9677,6052.5C 9657.98,6139.79 9639.14,6227.12 9620.5,6314.5C 9620.83,6315.5 9621.17,6316.5 9621.5,6317.5C 9668.5,6346.17 9715.5,6374.83 9762.5,6403.5C 9762.83,6404.33 9763.17,6405.17 9763.5,6406C 9753.46,6453.19 9743.3,6500.35 9733,6547.5C 9523.92,6413.38 9314.75,6279.38 9105.5,6145.5C 9104.35,6143.24 9104.19,6140.9 9105,6138.5C 9114.73,6093.15 9124.56,6047.81 9134.5,6002.5C 9135.33,6002.17 9136.17,6001.83 9137,6001.5C 9381.31,5960.86 9625.48,5920.2 9869.5,5879.5 Z"/></g>
<g><path style="opacity:1" fill="#079943" d="M 6231.5,5884.5 C 6233.17,5884.5 6234.83,5884.5 6236.5,5884.5C 6235.98,5911.84 6227.81,5936.5 6212,5958.5C 6197.12,5976.01 6179.29,5980.18 6158.5,5971C 6143.89,5960.1 6139.73,5945.93 6146,5928.5C 6152.27,5913.57 6163.1,5903.4 6178.5,5898C 6195.86,5891.78 6213.53,5887.28 6231.5,5884.5 Z"/></g>
<g><path style="opacity:1" fill="#039943" d="M 6087.5,5914.5 C 6088.5,5914.5 6089.5,5914.5 6090.5,5914.5C 6090.5,5919.17 6090.5,5923.83 6090.5,5928.5C 6090.62,5935.87 6090.12,5943.21 6089,5950.5C 6087.91,5958.87 6083.75,5965.03 6076.5,5969C 6062.16,5974.34 6048.49,5981 6035.5,5989C 6013.11,5991.07 5990.77,5993.74 5968.5,5997C 5942.95,6008.61 5917.28,6019.94 5891.5,6031C 5865.13,6033.28 5838.8,6035.95 5812.5,6039C 5795.79,6044.74 5779.12,6050.57 5762.5,6056.5C 5744.93,6049.37 5726.93,6043.53 5708.5,6039C 5687.55,6036.53 5666.55,6035.86 5645.5,6037C 5640.17,6030.67 5634.83,6024.33 5629.5,6018C 5618.51,6016.71 5607.51,6015.38 5596.5,6014C 5595.38,6004.56 5594.38,5995.06 5593.5,5985.5C 5609.23,5984.66 5624.9,5983.33 5640.5,5981.5C 5646.38,5964.46 5655.71,5949.63 5668.5,5937C 5684.16,5924.11 5702.16,5917.78 5722.5,5918C 5730.5,5920.67 5738.5,5923.33 5746.5,5926C 5787.8,5942.93 5829.13,5959.77 5870.5,5976.5C 5902.18,5973.94 5933.85,5971.11 5965.5,5968C 5987.52,5954.32 6010.19,5941.65 6033.5,5930C 6050.84,5922.5 6068.84,5917.33 6087.5,5914.5 Z"/></g>
<g><path style="opacity:1" fill="#81c521" d="M 6087.5,5914.5 C 6088.57,5913.57 6089.9,5913.23 6091.5,5913.5C 6091.82,5918.69 6091.49,5923.69 6090.5,5928.5C 6090.5,5923.83 6090.5,5919.17 6090.5,5914.5C 6089.5,5914.5 6088.5,5914.5 6087.5,5914.5 Z"/></g>
<g><path style="opacity:1" fill="#039943" d="M 5396.5,5957.5 C 5411.82,5961.66 5427.15,5965.83 5442.5,5970C 5464.8,5968.78 5487.14,5968.45 5509.5,5969C 5521.5,5976 5533.5,5983 5545.5,5990C 5546.52,5991.05 5546.68,5992.22 5546,5993.5C 5537,6007.17 5528,6020.83 5519,6034.5C 5517.91,6037.04 5517.24,6039.71 5517,6042.5C 5516.22,6044.29 5515.05,6045.79 5513.5,6047C 5503.51,6052.22 5492.84,6055.22 5481.5,6056C 5461.52,6057.15 5441.52,6057.82 5421.5,6058C 5410.91,6065.12 5399.91,6071.46 5388.5,6077C 5364.83,6078.94 5341.16,6080.94 5317.5,6083C 5299.4,6087.11 5285.9,6097.27 5277,6113.5C 5265.8,6126.35 5251.64,6133.18 5234.5,6134C 5216.85,6135.55 5199.19,6136.72 5181.5,6137.5C 5184.94,6098.88 5187.94,6060.21 5190.5,6021.5C 5217.2,6019.78 5243.86,6017.61 5270.5,6015C 5280.5,6014.33 5290.5,6014.33 5300.5,6015C 5303.18,6015.25 5305.51,6016.25 5307.5,6018C 5311.37,6022.91 5314.87,6028.07 5318,6033.5C 5320.05,6035.89 5322.38,6037.89 5325,6039.5C 5334.49,6033.76 5343.82,6027.76 5353,6021.5C 5353.33,6012.5 5353.67,6003.5 5354,5994.5C 5368.36,5982.3 5382.53,5969.97 5396.5,5957.5 Z"/></g>
<g><path style="opacity:1" fill="#029943" d="M 4965.5,5983.5 C 4968.85,5983.33 4972.18,5983.5 4975.5,5984C 4982.17,5992.67 4988.83,6001.33 4995.5,6010C 5008.33,6011.14 5020.99,6013.14 5033.5,6016C 5036.11,6017.94 5037.94,6020.44 5039,6023.5C 5041.72,6031.39 5044.88,6039.06 5048.5,6046.5C 5053.63,6037.75 5058.63,6028.91 5063.5,6020C 5078.17,6013.67 5092.83,6007.33 5107.5,6001C 5129.43,5998.23 5151.43,5996.89 5173.5,5997C 5182.92,6000.01 5185.75,6006.17 5182,6015.5C 5175.57,6028.59 5167.57,6040.59 5158,6051.5C 5135.88,6076.12 5112.05,6098.79 5086.5,6119.5C 5075.62,6114.71 5064.62,6110.21 5053.5,6106C 5047.33,6097 5041,6088.17 5034.5,6079.5C 5019.12,6084.9 5003.78,6090.4 4988.5,6096C 4987.87,6097.74 4987.54,6099.57 4987.5,6101.5C 4990.16,6124.13 4992,6146.79 4993,6169.5C 4988.7,6174.8 4984.03,6179.8 4979,6184.5C 4977.01,6160.43 4974.51,6136.43 4971.5,6112.5C 4946.84,6101.18 4923.84,6087.35 4902.5,6071C 4896.59,6065.76 4891.42,6059.93 4887,6053.5C 4883.95,6039.36 4885.28,6025.69 4891,6012.5C 4893.3,6004.98 4894.8,5997.31 4895.5,5989.5C 4919.04,5988.15 4942.37,5986.15 4965.5,5983.5 Z"/></g>
<g><path style="opacity:1" fill="#059943" d="M 6006.5,6063.5 C 6027.44,6069.12 6048.78,6072.62 6070.5,6074C 6079.04,6076.88 6084.54,6082.71 6087,6091.5C 6090.31,6103.06 6093.14,6114.72 6095.5,6126.5C 6111.12,6121.13 6126.62,6115.46 6142,6109.5C 6135.46,6122.63 6125.96,6133.46 6113.5,6142C 6106.13,6145.76 6098.46,6148.76 6090.5,6151C 6076.85,6154.01 6063.52,6157.84 6050.5,6162.5C 6061.5,6180.5 6072.5,6198.5 6083.5,6216.5C 6083,6216.83 6082.5,6217.17 6082,6217.5C 6055.81,6209.41 6029.64,6201.24 6003.5,6193C 6003.04,6192.59 6002.71,6192.09 6002.5,6191.5C 6006.5,6177.5 6010.5,6163.5 6014.5,6149.5C 6004.17,6149.22 5993.84,6149.89 5983.5,6151.5C 5983.93,6161.18 5984.59,6170.85 5985.5,6180.5C 5970.14,6180.81 5954.8,6180.31 5939.5,6179C 5933.74,6178.05 5928.07,6176.71 5922.5,6175C 5910.71,6170.69 5898.87,6166.52 5887,6162.5C 5871.44,6167.57 5856.11,6173.24 5841,6179.5C 5840.83,6178.83 5840.67,6178.17 5840.5,6177.5C 5847.82,6154.03 5855.82,6130.86 5864.5,6108C 5886.87,6109.34 5909.2,6111 5931.5,6113C 5957.76,6098.21 5982.76,6081.71 6006.5,6063.5 Z"/></g>
<g><path style="opacity:1" fill="#039943" d="M 9542.5,6070.5 C 9545.57,6070.18 9548.57,6070.52 9551.5,6071.5C 9539.14,6131.31 9526.14,6190.98 9512.5,6250.5C 9434.83,6203.33 9357.17,6156.17 9279.5,6109C 9367.28,6096.56 9454.94,6083.73 9542.5,6070.5 Z"/></g>
<g><path style="opacity:1" fill="#029943" d="M 5586.5,6114.5 C 5613.26,6113.71 5639.93,6114.88 5666.5,6118C 5692.45,6121.39 5716.12,6130.39 5737.5,6145C 5746.26,6152.76 5753.09,6161.92 5758,6172.5C 5763.11,6175.97 5767.94,6179.81 5772.5,6184C 5784.05,6188.46 5795.72,6192.63 5807.5,6196.5C 5810.16,6215.73 5812.16,6235.07 5813.5,6254.5C 5792.81,6255.56 5772.14,6257.06 5751.5,6259C 5742.83,6259.67 5734.17,6259.67 5725.5,6259C 5712.99,6254.82 5702.32,6247.82 5693.5,6238C 5685.91,6232.1 5677.58,6227.43 5668.5,6224C 5653.79,6218.91 5638.79,6214.91 5623.5,6212C 5592.3,6209.63 5561.96,6203.3 5532.5,6193C 5530.2,6168.87 5527.87,6144.71 5525.5,6120.5C 5546.04,6119.1 5566.37,6117.1 5586.5,6114.5 Z"/></g>
<g><path style="opacity:1" fill="#0a9a43" d="M 5063.5,6219.5 C 5074.43,6223.36 5085.43,6227.03 5096.5,6230.5C 5097.83,6245.16 5099.17,6259.83 5100.5,6274.5C 5089.83,6275.06 5079.16,6275.72 5068.5,6276.5C 5066.41,6257.54 5064.75,6238.54 5063.5,6219.5 Z"/></g>
<g><path style="opacity:1" fill="#069943" d="M 5006.5,6225.5 C 5008.29,6225.21 5009.95,6225.55 5011.5,6226.5C 5019.72,6244.44 5028.05,6262.27 5036.5,6280C 5019.86,6281.83 5003.19,6283.33 4986.5,6284.5C 4985.14,6265.14 4983.47,6245.8 4981.5,6226.5C 4990.02,6226.83 4998.35,6226.49 5006.5,6225.5 Z"/></g>
<g><path style="opacity:1" fill="#069943" d="M 4964.5,6228.5 C 4965.5,6228.5 4966.5,6228.5 4967.5,6228.5C 4969.17,6247.83 4970.83,6267.17 4972.5,6286.5C 4934.48,6289.58 4896.48,6292.91 4858.5,6296.5C 4857.3,6282.52 4856.3,6268.52 4855.5,6254.5C 4850.5,6254.5 4845.5,6254.5 4840.5,6254.5C 4841.88,6268.5 4843.22,6282.5 4844.5,6296.5C 4834.68,6297.47 4824.84,6298.47 4815,6299.5C 4813.89,6299.41 4812.89,6299.08 4812,6298.5C 4810.41,6278.83 4808.91,6259.17 4807.5,6239.5C 4832.68,6241.25 4857.85,6243.25 4883,6245.5C 4910.37,6240.26 4937.54,6234.59 4964.5,6228.5 Z"/></g>
<g><path style="opacity:1" fill="#079943" d="M 5985.5,6252.5 C 5988.17,6252.5 5990.83,6252.5 5993.5,6252.5C 5994.5,6262.5 5995.5,6272.5 5996.5,6282.5C 5969.14,6284.13 5941.8,6286.13 5914.5,6288.5C 5913.97,6279.16 5913.3,6269.82 5912.5,6260.5C 5937.02,6258.28 5961.35,6255.62 5985.5,6252.5 Z"/></g>
<g><path style="opacity:1" fill="#039943" d="M 6084.5,6330.5 C 6083.17,6330.5 6081.83,6330.5 6080.5,6330.5C 6080.74,6329.21 6080.4,6328.21 6079.5,6327.5C 6078.59,6311.33 6077.59,6295.17 6076.5,6279C 6076.54,6276.91 6076.87,6274.91 6077.5,6273C 6090.66,6268.75 6103.32,6263.42 6115.5,6257C 6133.05,6253.27 6150.71,6252.6 6168.5,6255C 6188.16,6261.47 6193.66,6273.97 6185,6292.5C 6173.45,6303.53 6159.95,6311.36 6144.5,6316C 6124.87,6322.41 6104.87,6327.24 6084.5,6330.5 Z"/></g>
<g><path style="opacity:1" fill="#fef000" d="M 1241.5,6285.5 C 1242.5,6285.41 1243.33,6285.75 1244,6286.5C 1256.15,6330.43 1267.98,6374.43 1279.5,6418.5C 1054.14,6477.13 828.978,6536.46 604,6596.5C 591.364,6552.29 579.198,6507.96 567.5,6463.5C 792.436,6404.77 1017.1,6345.43 1241.5,6285.5 Z"/></g>
<g><path style="opacity:1" fill="#8ac820" d="M 6079.5,6327.5 C 6080.4,6328.21 6080.74,6329.21 6080.5,6330.5C 6081.83,6330.5 6083.17,6330.5 6084.5,6330.5C 6083.08,6331.45 6081.41,6331.78 6079.5,6331.5C 6079.5,6330.17 6079.5,6328.83 6079.5,6327.5 Z"/></g>
<g><path style="opacity:1" fill="#fef000" d="M 9129.5,6475.5 C 9187.03,6475.4 9238.36,6492.9 9283.5,6528C 9329.68,6569.91 9349.52,6622.08 9343,6684.5C 9341.16,6698.58 9339.16,6712.58 9337,6726.5C 9367.51,6701.66 9401.67,6683.16 9439.5,6671C 9465.26,6663.98 9491.26,6657.98 9517.5,6653C 9581.1,6641.65 9644.6,6629.82 9708,6617.5C 9708.5,6617.83 9709,6618.17 9709.5,6618.5C 9689.31,6669.05 9669.31,6719.72 9649.5,6770.5C 9571.32,6788.24 9492.99,6805.4 9414.5,6822C 9390.42,6827.27 9366.75,6833.94 9343.5,6842C 9325.01,6849.65 9309.84,6861.49 9298,6877.5C 9283.99,6901.85 9272.49,6927.35 9263.5,6954C 9264.44,6955.48 9265.78,6956.48 9267.5,6957C 9356.74,6991.14 9446.07,7024.97 9535.5,7058.5C 9520.09,7102.05 9504.09,7145.38 9487.5,7188.5C 9269.6,7106.22 9051.94,7023.38 8834.5,6940C 8873.52,6840.13 8912.69,6740.29 8952,6640.5C 8964.08,6612.33 8977.75,6585 8993,6558.5C 9024.45,6508.01 9069.95,6480.35 9129.5,6475.5 Z"/></g>
<g><path style="opacity:1" fill="#fef000" d="M 1100.5,6585.5 C 1202.89,6577.34 1290.06,6609.34 1362,6681.5C 1396.8,6721.73 1423.47,6767.06 1442,6817.5C 1460.04,6862.1 1468.04,6908.43 1466,6956.5C 1457.53,7031.72 1422.36,7090.72 1360.5,7133.5C 1333.83,7095.83 1307.17,7058.17 1280.5,7020.5C 1335.36,6971.4 1349.53,6912.4 1323,6843.5C 1306.4,6798.91 1277.57,6764.74 1236.5,6741C 1194.89,6719.88 1151.23,6714.22 1105.5,6724C 1039.7,6738.74 980.698,6767.07 928.5,6809C 862.718,6867.96 845.552,6938.8 877,7021.5C 890.819,7053.29 910.653,7080.79 936.5,7104C 956,7122 977.5,7137.17 1001,7149.5C 1027.69,7137.4 1054.52,7125.74 1081.5,7114.5C 1060.99,7066.5 1039.99,7018.66 1018.5,6971C 1018.82,6969.35 1019.82,6968.35 1021.5,6968C 1055.35,6953.83 1089.18,6939.66 1123,6925.5C 1164.2,7015.56 1204.54,7105.89 1244,7196.5C 1159.85,7233.66 1075.68,7270.83 991.5,7308C 980.034,7304.78 969.034,7300.11 958.5,7294C 852.655,7229.47 782.155,7137.63 747,7018.5C 716.728,6902.91 742.728,6802.25 825,6716.5C 893.46,6649.18 975.294,6607.01 1070.5,6590C 1080.71,6588.98 1090.71,6587.48 1100.5,6585.5 Z"/></g>
<g><path style="opacity:1" fill="#019943" d="M 9131.5,6617.5 C 9163.79,6616.31 9191.62,6626.65 9215,6648.5C 9232.27,6668.93 9237.94,6692.26 9232,6718.5C 9227.61,6735.35 9222.61,6752.01 9217,6768.5C 9198.93,6817.06 9180.26,6865.39 9161,6913.5C 9160.48,6914.52 9159.65,6915.18 9158.5,6915.5C 9107.87,6896.23 9057.2,6877.07 9006.5,6858C 9002.68,6856.93 8999.35,6855.09 8996.5,6852.5C 9016.43,6801.19 9036.27,6749.86 9056,6698.5C 9061.51,6684.47 9067.85,6670.81 9075,6657.5C 9088.2,6636.13 9107.03,6622.79 9131.5,6617.5 Z"/></g>
<g><path style="opacity:1" fill="#e60112" d="M 3483.5,6825.5 C 3499.11,6823.15 3513.45,6826.32 3526.5,6835C 3536.94,6844.47 3541.6,6856.3 3540.5,6870.5C 3540.4,6879.64 3539.23,6888.64 3537,6897.5C 3528.2,6924.23 3519.2,6950.9 3510,6977.5C 3445.24,7154.47 3380.9,7331.47 3317,7508.5C 3437.04,7372.13 3556.71,7235.46 3676,7098.5C 3684.5,7090 3693,7081.5 3701.5,7073C 3714.5,7060.99 3729.5,7052.33 3746.5,7047C 3769.77,7042.62 3785.61,7051.46 3794,7073.5C 3795.46,7085.17 3794.12,7096.51 3790,7107.5C 3782.08,7126.06 3771.75,7143.06 3759,7158.5C 3596.63,7342.54 3434.63,7526.87 3273,7711.5C 3256.57,7730.28 3238.07,7746.44 3217.5,7760C 3203.1,7769.18 3187.43,7772.85 3170.5,7771C 3141.38,7759.83 3128.88,7738.67 3133,7707.5C 3138.36,7678.43 3146.36,7650.1 3157,7622.5C 3222.63,7445.27 3287.63,7267.94 3352,7090.5C 3234.33,7224.83 3116.67,7359.17 2999,7493.5C 2985.37,7508.8 2970.21,7522.3 2953.5,7534C 2942.23,7541.26 2929.89,7545.42 2916.5,7546.5C 2890.36,7543.52 2878.19,7528.85 2880,7502.5C 2882.2,7488.11 2887.2,7474.78 2895,7462.5C 2901.18,7452.81 2907.84,7443.48 2915,7434.5C 3074.04,7253.8 3232.71,7072.8 3391,6891.5C 3405.9,6874.6 3422.07,6859.1 3439.5,6845C 3453.16,6836 3467.82,6829.5 3483.5,6825.5 Z"/></g>
<g><path style="opacity:1" fill="#e60112" d="M 6626.5,6988.5 C 6642.14,6987.91 6656.81,6991.41 6670.5,6999C 6688.76,7010.58 6705.26,7024.41 6720,7040.5C 6869.72,7205.43 7019.55,7370.26 7169.5,7535C 7170.5,7535.67 7171.5,7535.67 7172.5,7535C 7227.83,7485.67 7283.17,7436.33 7338.5,7387C 7349.3,7378.24 7361.63,7374.9 7375.5,7377C 7391.43,7380.3 7405.43,7387.3 7417.5,7398C 7432.25,7410.67 7443.75,7425.83 7452,7443.5C 7461.42,7465.66 7457.58,7485.16 7440.5,7502C 7371.83,7563 7303.17,7624 7234.5,7685C 7211.16,7698.11 7188.16,7697.44 7165.5,7683C 7147.48,7669.65 7130.65,7654.82 7115,7638.5C 6952.1,7459.69 6789.43,7280.69 6627,7101.5C 6612.43,7084.03 6601.76,7064.36 6595,7042.5C 6589.84,7015.14 6600.34,6997.14 6626.5,6988.5 Z"/></g>
<g><path style="opacity:1" fill="#fef000" d="M 8838.5,7105.5 C 8859.94,7104.85 8881.27,7106.02 8902.5,7109C 8914.76,7111.23 8926.76,7114.4 8938.5,7118.5C 8923.9,7161.8 8909.4,7205.13 8895,7248.5C 8824.19,7235.64 8768.86,7258.98 8729,7318.5C 8710.33,7347.52 8698.99,7379.18 8695,7413.5C 8692.73,7463.25 8707.73,7506.92 8740,7544.5C 8768.2,7574.05 8800.37,7598.22 8836.5,7617C 8870.18,7635.68 8905.85,7649.01 8943.5,7657C 8995.39,7666.02 9043.39,7656.36 9087.5,7628C 9128.12,7596.3 9154.29,7555.13 9166,7504.5C 9173.79,7468.77 9175.45,7432.77 9171,7396.5C 9170.69,7395.23 9170.19,7394.07 9169.5,7393C 9144.58,7379.73 9119.91,7366.07 9095.5,7352C 9094.36,7351.25 9093.36,7351.42 9092.5,7352.5C 9067.34,7398.16 9041.67,7443.49 9015.5,7488.5C 8982.99,7471.08 8950.32,7453.91 8917.5,7437C 8914.62,7435.4 8911.96,7433.57 8909.5,7431.5C 8957.75,7345.34 9006.25,7259.34 9055,7173.5C 9136.33,7218.17 9217.67,7262.83 9299,7307.5C 9307.72,7342.66 9310.72,7378.32 9308,7414.5C 9301.92,7534.14 9255.75,7634.97 9169.5,7717C 9097.51,7779.93 9013.84,7804.6 8918.5,7791C 8827.63,7776.22 8747.63,7738.89 8678.5,7679C 8641.4,7645.28 8612.24,7605.78 8591,7560.5C 8558.79,7482.27 8558.45,7403.93 8590,7325.5C 8614.61,7266.09 8649.77,7213.93 8695.5,7169C 8736.07,7132.05 8783.74,7110.89 8838.5,7105.5 Z"/></g>
<g><path style="opacity:1" fill="#fef000" d="M 1596.5,7148.5 C 1598.62,7149.03 1600.12,7150.36 1601,7152.5C 1623.42,7188.34 1646.08,7224 1669,7259.5C 1669.67,7260.83 1669.67,7262.17 1669,7263.5C 1587.17,7422.5 1505.33,7581.5 1423.5,7740.5C 1424,7741.52 1424.67,7741.69 1425.5,7741C 1556.08,7659.46 1686.92,7578.29 1818,7497.5C 1840.63,7533.27 1863.13,7569.1 1885.5,7605C 1881.22,7608.81 1876.55,7612.15 1871.5,7615C 1678.4,7733.77 1485.57,7852.94 1293,7972.5C 1268.37,7933.4 1243.87,7894.23 1219.5,7855C 1294.86,7706.44 1370.36,7557.94 1446,7409.5C 1450.61,7400.96 1454.61,7392.29 1458,7383.5C 1329.99,7463.67 1201.65,7543.34 1073,7622.5C 1049.8,7586.95 1026.97,7551.12 1004.5,7515C 1202.06,7393.06 1399.4,7270.89 1596.5,7148.5 Z"/></g>
<g><path style="opacity:1" fill="#e60112" d="M 6327.5,7187.5 C 6344.71,7187.64 6360.71,7192.14 6375.5,7201C 6385.12,7207.62 6394.45,7214.62 6403.5,7222C 6571.3,7398.14 6739.47,7573.97 6908,7749.5C 6922.37,7765.54 6936.37,7781.87 6950,7798.5C 6970.98,7825.1 6978.64,7855.1 6973,7888.5C 6966.61,7908.79 6952.78,7917.62 6931.5,7915C 6922.01,7912.25 6913.34,7907.92 6905.5,7902C 6856.3,7855.13 6808.8,7806.63 6763,7756.5C 6761.88,7754.88 6760.38,7753.88 6758.5,7753.5C 6695.04,7789.4 6631.71,7825.56 6568.5,7862C 6584.39,7909.01 6599.89,7956.18 6615,8003.5C 6620.61,8021.93 6625.27,8040.6 6629,8059.5C 6630.41,8070.77 6629.41,8081.77 6626,8092.5C 6614.73,8109.54 6599.23,8115.04 6579.5,8109C 6558.16,8100.32 6540.99,8086.49 6528,8067.5C 6522.41,8057.32 6517.08,8046.99 6512,8036.5C 6505.8,8018.91 6499.8,8001.24 6494,7983.5C 6429.74,7774.05 6365.07,7564.71 6300,7355.5C 6290.47,7326.03 6283.13,7296.03 6278,7265.5C 6272.66,7225.11 6289.16,7199.11 6327.5,7187.5 Z"/></g>
<g><path style="opacity:1" fill="#e60112" d="M 4031.5,7228.5 C 4068.02,7227.86 4089.19,7245.53 4095,7281.5C 4096.04,7296.92 4095.37,7312.25 4093,7327.5C 4090.05,7342.59 4086.72,7357.59 4083,7372.5C 4022.84,7597.46 3962.84,7822.46 3903,8047.5C 3896.64,8069.93 3888.3,8091.59 3878,8112.5C 3864.59,8134.58 3845.75,8150.08 3821.5,8159C 3793.43,8163.55 3777.6,8151.71 3774,8123.5C 3773.35,8114.74 3774.01,8106.08 3776,8097.5C 3780.65,8072.27 3786.31,8047.27 3793,8022.5C 3804.64,7985.62 3815.8,7948.62 3826.5,7911.5C 3762,7878 3697.5,7844.33 3633,7810.5C 3597.03,7850.81 3561.37,7891.47 3526,7932.5C 3515.5,7943 3505,7953.5 3494.5,7964C 3487.26,7970.79 3478.93,7975.79 3469.5,7979C 3442.45,7980.63 3427.61,7967.79 3425,7940.5C 3421.79,7914.88 3427.12,7891.21 3441,7869.5C 3447.18,7859.81 3453.84,7850.48 3461,7841.5C 3623,7657.5 3785,7473.5 3947,7289.5C 3961.88,7273.62 3977.71,7258.79 3994.5,7245C 4005.94,7237.27 4018.28,7231.77 4031.5,7228.5 Z"/></g>
<g><path style="opacity:1" fill="#e60212" d="M 6022.5,7348.5 C 6036.75,7346.47 6049.42,7349.97 6060.5,7359C 6077.39,7376.92 6089.55,7397.76 6097,7421.5C 6169.87,7655.77 6242.54,7890.11 6315,8124.5C 6323.83,8150.47 6327.83,8177.14 6327,8204.5C 6322.44,8243.07 6300.94,8259.9 6262.5,8255C 6252.24,8251.72 6243.24,8246.39 6235.5,8239C 6219.57,8224.07 6204.73,8208.24 6191,8191.5C 6069.33,8037.17 5947.67,7882.83 5826,7728.5C 5878.23,7899.86 5930.89,8071.19 5984,8242.5C 5992.36,8267.28 5994.69,8292.62 5991,8318.5C 5981.45,8351.69 5960.95,8361.19 5929.5,8347C 5918.15,8338.33 5908.99,8327.83 5902,8315.5C 5895.24,8303.31 5889.57,8290.64 5885,8277.5C 5813.33,8046.5 5741.67,7815.5 5670,7584.5C 5661.73,7557.78 5658.07,7530.44 5659,7502.5C 5660.71,7486.02 5666.71,7471.35 5677,7458.5C 5690.86,7446.26 5706.7,7443.09 5724.5,7449C 5742.91,7460.07 5758.08,7474.57 5770,7492.5C 5778,7499.17 5785.33,7506.5 5792,7514.5C 5916,7670.5 6040,7826.5 6164,7982.5C 6109.44,7802.8 6054.44,7623.13 5999,7443.5C 5996.95,7433.56 5995.28,7423.56 5994,7413.5C 5991.32,7394.92 5994.65,7377.59 6004,7361.5C 6008.99,7355.27 6015.16,7350.94 6022.5,7348.5 Z"/></g>
<g><path style="opacity:1" fill="#fef000" d="M 6406.5,7363.5 C 6492.1,7457.6 6577.93,7551.6 6664,7645.5C 6664.62,7646.45 6664.45,7647.28 6663.5,7648C 6617.75,7674.29 6571.91,7700.46 6526,7726.5C 6486.06,7605.51 6446.23,7484.51 6406.5,7363.5 Z"/></g>
<g><path style="opacity:1" fill="#fef000" d="M 3970.5,7405.5 C 3936.2,7526.99 3901.37,7648.66 3866,7770.5C 3863.76,7771.17 3861.59,7770.67 3859.5,7769C 3814.99,7745.25 3770.32,7721.75 3725.5,7698.5C 3724.42,7697.64 3724.25,7696.64 3725,7695.5C 3807.04,7598.96 3888.88,7502.29 3970.5,7405.5 Z"/></g>
<g><path style="opacity:1" fill="#e60212" d="M 4470.5,7409.5 C 4516.68,7407.55 4559.35,7418.71 4598.5,7443C 4644.26,7479.57 4669.42,7527.4 4674,7586.5C 4677.9,7625.92 4673.24,7664.25 4660,7701.5C 4652.29,7719.87 4640.79,7735.37 4625.5,7748C 4609.1,7760.78 4592.93,7760.62 4577,7747.5C 4573.28,7742.72 4570.61,7737.39 4569,7731.5C 4567.42,7721.2 4566.09,7710.87 4565,7700.5C 4564.67,7681.5 4564.33,7662.5 4564,7643.5C 4562.84,7622.01 4558.17,7601.35 4550,7581.5C 4537.15,7560.68 4518.65,7547.52 4494.5,7542C 4467.04,7534.78 4442.04,7539.78 4419.5,7557C 4393.02,7578.1 4377.52,7605.6 4373,7639.5C 4369.95,7664.58 4374.95,7687.91 4388,7709.5C 4397.67,7724.51 4409.5,7737.67 4423.5,7749C 4458.79,7776.95 4492.29,7807.11 4524,7839.5C 4556.52,7875.21 4575.52,7917.21 4581,7965.5C 4581.67,7975.83 4581.67,7986.17 4581,7996.5C 4573.32,8047.88 4560.32,8097.88 4542,8146.5C 4522.63,8195.84 4493.79,8238.68 4455.5,8275C 4383.86,8335.47 4306.2,8344.13 4222.5,8301C 4173.72,8272.5 4143.88,8230.34 4133,8174.5C 4122.45,8126.31 4121.78,8077.97 4131,8029.5C 4135.49,8004.21 4145.15,7981.21 4160,7960.5C 4168.92,7949.9 4179.75,7942.06 4192.5,7937C 4209.89,7933.95 4222.72,7940.11 4231,7955.5C 4236.38,7969.66 4238.55,7984.33 4237.5,7999.5C 4236.54,8018.66 4235.54,8037.83 4234.5,8057C 4234.55,8078.33 4236.39,8099.5 4240,8120.5C 4253.84,8168.15 4285.67,8192.82 4335.5,8194.5C 4359.65,8193.51 4380.98,8185.34 4399.5,8170C 4426.96,8145.81 4444.46,8115.65 4452,8079.5C 4463.62,8037.5 4455.62,7999.84 4428,7966.5C 4407.42,7945.32 4385.25,7926.16 4361.5,7909C 4332.64,7885.4 4307.81,7858.23 4287,7827.5C 4270.18,7798.38 4260.18,7767.05 4257,7733.5C 4254.78,7657.84 4272.44,7587.18 4310,7521.5C 4331.36,7485.14 4359.86,7455.64 4395.5,7433C 4419.07,7420.2 4444.07,7412.36 4470.5,7409.5 Z"/></g>
<g><path style="opacity:1" fill="#e60312" d="M 4911.5,7493.5 C 4928.2,7491.6 4941.7,7497.27 4952,7510.5C 4961.19,7524.4 4966.19,7539.74 4967,7556.5C 4967.99,7576.6 4966.99,7596.6 4964,7616.5C 4929.26,7858.83 4894.59,8101.16 4860,8343.5C 4855.88,8365.73 4847.88,8386.4 4836,8405.5C 4827.4,8416.79 4816.23,8423.95 4802.5,8427C 4793.01,8428.46 4784.34,8426.46 4776.5,8421C 4760.9,8405.89 4752.4,8387.39 4751,8365.5C 4750.18,8349.47 4750.51,8333.47 4752,8317.5C 4786.81,8072.47 4821.81,7827.47 4857,7582.5C 4860.57,7560.13 4867.9,7539.13 4879,7519.5C 4886.83,7506.82 4897.66,7498.15 4911.5,7493.5 Z"/></g>
<g><path style="opacity:1" fill="#e60212" d="M 5305.5,7497.5 C 5364.42,7495.52 5415.75,7514.02 5459.5,7553C 5497.7,7589.54 5526.87,7632.37 5547,7681.5C 5575.03,7750.97 5593.37,7822.97 5602,7897.5C 5617,7996.35 5616,8095.02 5599,8193.5C 5589.96,8243.97 5572.62,8291.3 5547,8335.5C 5494.64,8417.41 5420.14,8450.58 5323.5,8435C 5287.96,8426.9 5256.63,8410.9 5229.5,8387C 5201.14,8361.05 5177.97,8331.22 5160,8297.5C 5139.3,8259.39 5123.3,8219.39 5112,8177.5C 5077.32,8049.07 5066.99,7918.74 5081,7786.5C 5086.98,7735.6 5099.98,7686.6 5120,7639.5C 5141.63,7590.54 5174.79,7551.38 5219.5,7522C 5246.42,7507.27 5275.09,7499.11 5305.5,7497.5 Z"/></g>
<g><path style="opacity:1" fill="#fef000" d="M 5304.5,7644.5 C 5340.13,7641.76 5371.13,7652.26 5397.5,7676C 5420.09,7698.67 5437.59,7724.84 5450,7754.5C 5473.19,7810.64 5487.52,7868.97 5493,7929.5C 5498.17,7978.37 5499.83,8027.37 5498,8076.5C 5497.14,8128.92 5485.14,8178.59 5462,8225.5C 5446.45,8253.72 5423.95,8274.22 5394.5,8287C 5362.32,8296.57 5332.32,8291.9 5304.5,8273C 5284.88,8258.71 5268.71,8241.21 5256,8220.5C 5240.43,8194.68 5228.09,8167.35 5219,8138.5C 5200.01,8076.59 5189.01,8013.25 5186,7948.5C 5182.47,7899.25 5184.47,7850.25 5192,7801.5C 5197.75,7756.21 5214.75,7715.88 5243,7680.5C 5259.58,7661.63 5280.08,7649.63 5304.5,7644.5 Z"/></g>
<g><path style="opacity:1" fill="#fef000" d="M 8282.5,7761.5 C 8519.84,7840.23 8757.18,7919.06 8994.5,7998C 8962.37,8036.63 8929.7,8074.8 8896.5,8112.5C 8843.63,8093.93 8790.8,8075.27 8738,8056.5C 8678.63,8125.37 8619.79,8194.71 8561.5,8264.5C 8589.71,8312.43 8618.05,8360.27 8646.5,8408C 8615.01,8445.49 8583.51,8482.99 8552,8520.5C 8431,8305.17 8310,8089.83 8189,7874.5C 8188.33,7873.17 8188.33,7871.83 8189,7870.5C 8220.65,7834.51 8251.81,7798.17 8282.5,7761.5 Z"/></g>
<g><path style="opacity:1" fill="#fef000" d="M 2085.5,7843.5 C 2088.78,7843.27 2091.28,7844.6 2093,7847.5C 2122.98,7882.98 2153.15,7918.31 2183.5,7953.5C 2064.09,8171.33 1944.42,8388.99 1824.5,8606.5C 1791.82,8569.15 1759.49,8531.49 1727.5,8493.5C 1754.83,8444.83 1782.17,8396.17 1809.5,8347.5C 1751.35,8278.19 1693.02,8209.02 1634.5,8140C 1581.49,8158.34 1528.66,8177.51 1476,8197.5C 1444.07,8160.53 1412.24,8123.36 1380.5,8086C 1615.64,8005.23 1850.64,7924.4 2085.5,7843.5 Z"/></g>
<g><path style="opacity:1" fill="#029943" d="M 8360.5,7921.5 C 8446.29,7952.56 8531.96,7983.9 8617.5,8015.5C 8578.18,8062.82 8538.51,8109.82 8498.5,8156.5C 8452.22,8078.28 8406.22,7999.94 8360.5,7921.5 Z"/></g>
<g><path style="opacity:1" fill="#039943" d="M 2009.5,8000.5 C 2010.04,8000.56 2010.38,8000.89 2010.5,8001.5C 1964.74,8080.03 1918.74,8158.37 1872.5,8236.5C 1832.49,8189.82 1792.82,8142.82 1753.5,8095.5C 1838.74,8063.42 1924.08,8031.75 2009.5,8000.5 Z"/></g>
<g><path style="opacity:1" fill="#fef000" d="M 7980.5,8092.5 C 7982.37,8092.86 7983.87,8093.86 7985,8095.5C 8139.98,8265.98 8295.15,8436.32 8450.5,8606.5C 8418.84,8635.32 8387.01,8663.99 8355,8692.5C 8233,8557.83 8111,8423.17 7989,8288.5C 8076.57,8452.97 8164.74,8617.31 8253.5,8781.5C 8222.67,8809.49 8191.67,8837.32 8160.5,8865C 8158.31,8866.92 8155.98,8868.25 8153.5,8869C 7998.07,8765.21 7842.91,8661.04 7688,8556.5C 7809.42,8691.03 7931.26,8825.53 8053.5,8960C 8021.65,8988.69 7989.65,9017.19 7957.5,9045.5C 7801,8874.16 7644.66,8702.66 7488.5,8531C 7539.68,8484.82 7591.18,8438.99 7643,8393.5C 7779.41,8482.96 7915.91,8572.29 8052.5,8661.5C 8053.41,8660.21 8053.24,8658.88 8052,8657.5C 7976.58,8514.99 7901.41,8372.32 7826.5,8229.5C 7877.88,8183.78 7929.21,8138.12 7980.5,8092.5 Z"/></g>
<g><path style="opacity:1" fill="#fef000" d="M 2374.5,8149.5 C 2428.87,8192.36 2482.87,8235.69 2536.5,8279.5C 2468.28,8427.4 2400.78,8575.4 2334,8723.5C 2465.36,8626.64 2596.86,8529.97 2728.5,8433.5C 2782.76,8476.12 2836.42,8519.46 2889.5,8563.5C 2743.18,8743.15 2596.51,8922.48 2449.5,9101.5C 2416.76,9075.05 2383.92,9048.71 2351,9022.5C 2350.33,9021.5 2350.33,9020.5 2351,9019.5C 2464.95,8880.43 2578.79,8741.26 2692.5,8602C 2543.16,8712.21 2394.16,8823.21 2245.5,8935C 2242.79,8935.74 2240.45,8935.07 2238.5,8933C 2205.83,8907 2173.17,8881 2140.5,8855C 2139.48,8853.95 2139.32,8852.78 2140,8851.5C 2219.85,8684.81 2298.85,8517.81 2377,8350.5C 2262.67,8490.17 2148.33,8629.83 2034,8769.5C 2001.02,8742.69 1968.19,8715.69 1935.5,8688.5C 2082.08,8508.99 2228.41,8329.32 2374.5,8149.5 Z"/></g>
<g><path style="opacity:1" fill="#fef000" d="M 7235.5,8662.5 C 7434.96,8813.45 7634.29,8964.62 7833.5,9116C 7790.5,9141.83 7747.5,9167.67 7704.5,9193.5C 7659.55,9159.22 7614.88,9124.55 7570.5,9089.5C 7492.5,9135.83 7414.5,9182.17 7336.5,9228.5C 7336.17,9229.5 7335.83,9230.5 7335.5,9231.5C 7346.12,9285.27 7357.12,9338.93 7368.5,9392.5C 7326.87,9417.99 7284.87,9442.99 7242.5,9467.5C 7238.02,9446.94 7233.85,9426.27 7230,9405.5C 7190.38,9183.71 7150.88,8961.88 7111.5,8740C 7111.61,8737.74 7112.61,8736.08 7114.5,8735C 7155.23,8711.31 7195.56,8687.14 7235.5,8662.5 Z"/></g>
<g><path style="opacity:1" fill="#029943" d="M 7258.5,8841.5 C 7329.63,8898.12 7400.63,8954.95 7471.5,9012C 7418.83,9044.34 7365.83,9076.17 7312.5,9107.5C 7293.86,9018.96 7275.86,8930.29 7258.5,8841.5 Z"/></g>
<g><path style="opacity:1" fill="#fef000" d="M 3434.5,8857.5 C 3476.72,8876.27 3518.72,8895.61 3560.5,8915.5C 3498.22,9047.86 3436.06,9180.19 3374,9312.5C 3358.89,9346.22 3340.56,9377.88 3319,9407.5C 3272.7,9466.06 3212.2,9491.56 3137.5,9484C 3084.86,9474.91 3037.2,9454.58 2994.5,9423C 2939.79,9377.9 2917.95,9320.06 2929,9249.5C 2934.59,9220.41 2943.59,9192.41 2956,9165.5C 2956.41,9165.04 2956.91,9164.71 2957.5,9164.5C 2999.16,9177.94 3040.49,9191.94 3081.5,9206.5C 3070.45,9229.48 3063.78,9253.65 3061.5,9279C 3061.03,9308.74 3073.37,9331.41 3098.5,9347C 3111.6,9354.59 3125.6,9359.59 3140.5,9362C 3157.46,9364.12 3172.8,9360.12 3186.5,9350C 3204.05,9332.73 3218.55,9313.23 3230,9291.5C 3299,9147.17 3367.16,9002.51 3434.5,8857.5 Z"/></g>
<g><path style="opacity:1" fill="#fef000" d="M 6719.5,8931.5 C 6817.77,8926.7 6887.77,8968.53 6929.5,9057C 6887.75,9076.36 6845.92,9095.53 6804,9114.5C 6798.36,9107.84 6793.03,9100.84 6788,9093.5C 6776.47,9078.96 6762.3,9067.8 6745.5,9060C 6729.24,9054.83 6712.57,9053.16 6695.5,9055C 6656.86,9061.66 6622.19,9076.99 6591.5,9101C 6579.51,9111.49 6570.35,9123.99 6564,9138.5C 6557.46,9167.57 6567.29,9189.07 6593.5,9203C 6602.13,9206.61 6611.13,9208.61 6620.5,9209C 6639.51,9209.64 6658.51,9209.31 6677.5,9208C 6718.92,9203.65 6760.26,9198.65 6801.5,9193C 6836.55,9189.33 6871.55,9189.67 6906.5,9194C 6972.85,9206.37 7020.69,9242.87 7050,9303.5C 7076.97,9360.72 7079.64,9419.05 7058,9478.5C 7045.25,9507.81 7026.75,9532.98 7002.5,9554C 6960.76,9588.72 6913.76,9614.38 6861.5,9631C 6829.84,9642.72 6797.17,9649.72 6763.5,9652C 6687.45,9655.22 6624.28,9628.38 6574,9571.5C 6558.61,9553.05 6544.94,9533.39 6533,9512.5C 6531.81,9510.96 6531.48,9509.29 6532,9507.5C 6571.58,9486.96 6611.08,9466.29 6650.5,9445.5C 6665.84,9471.01 6685.84,9492.18 6710.5,9509C 6740.63,9526.16 6772.63,9530.83 6806.5,9523C 6840.35,9514.74 6871.02,9500.07 6898.5,9479C 6927.63,9452.27 6938.8,9419.44 6932,9380.5C 6920.75,9348.28 6897.92,9331.78 6863.5,9331C 6853.5,9330.33 6843.5,9330.33 6833.5,9331C 6780.5,9337.44 6727.5,9343.78 6674.5,9350C 6654.5,9350.67 6634.5,9350.67 6614.5,9350C 6557.49,9346.41 6510.33,9323.25 6473,9280.5C 6429.97,9224.29 6420.97,9162.95 6446,9096.5C 6463.82,9058 6490.32,9026.84 6525.5,9003C 6584.84,8964.61 6649.5,8940.78 6719.5,8931.5 Z"/></g>
<g><path style="opacity:1" fill="#fef000" d="M 3873.5,9035.5 C 3875.2,9035.34 3876.87,9035.51 3878.5,9036C 3923.76,9051.47 3969.09,9066.64 4014.5,9081.5C 4024.33,9325.52 4034.66,9569.52 4045.5,9813.5C 4045.17,9817.5 4044.83,9821.5 4044.5,9825.5C 3997.51,9809.5 3950.51,9793.5 3903.5,9777.5C 3901.27,9723.85 3899.43,9670.18 3898,9616.5C 3897.81,9614.1 3897.31,9611.77 3896.5,9609.5C 3810.43,9580.36 3724.43,9551.03 3638.5,9521.5C 3603.63,9564.72 3568.63,9607.89 3533.5,9651C 3531.83,9651.67 3530.17,9651.67 3528.5,9651C 3483.44,9635.49 3438.44,9619.82 3393.5,9604C 3553.87,9414.72 3713.87,9225.22 3873.5,9035.5 Z"/></g>
<g><path style="opacity:1" fill="#fef000" d="M 6039.5,9134.5 C 6047.2,9170.66 6054.7,9206.99 6062,9243.5C 6062.81,9245.58 6062.64,9247.58 6061.5,9249.5C 5995.59,9262.6 5929.59,9275.26 5863.5,9287.5C 5899.78,9476.24 5936.45,9664.91 5973.5,9853.5C 5928.19,9861.93 5883.03,9870.93 5838,9880.5C 5800.69,9691.59 5763.86,9502.59 5727.5,9313.5C 5660.43,9326.18 5593.43,9339.18 5526.5,9352.5C 5519.87,9314.54 5512.53,9276.71 5504.5,9239C 5504.64,9238.23 5504.98,9237.56 5505.5,9237C 5683.74,9203.35 5861.74,9169.19 6039.5,9134.5 Z"/></g>
<g><path style="opacity:1" fill="#fef000" d="M 4512.5,9179.5 C 4581.79,9177.59 4648.45,9189.76 4712.5,9216C 4801.26,9258.33 4849.26,9328.83 4856.5,9427.5C 4812.49,9429.15 4768.49,9431.15 4724.5,9433.5C 4721.83,9433.17 4719.17,9432.83 4716.5,9432.5C 4703.51,9364.34 4663.18,9322.51 4595.5,9307C 4568.31,9302.34 4540.97,9301.34 4513.5,9304C 4457.84,9313.39 4415.67,9342.22 4387,9390.5C 4370.62,9420.64 4359.62,9452.64 4354,9486.5C 4345.33,9532.68 4344.33,9579.02 4351,9625.5C 4364.7,9692.19 4402.86,9738.69 4465.5,9765C 4506.74,9779.32 4548.74,9781.99 4591.5,9773C 4622.6,9766.8 4651.93,9755.97 4679.5,9740.5C 4683.87,9712.9 4687.87,9685.23 4691.5,9657.5C 4691.35,9655.68 4690.68,9654.18 4689.5,9653C 4638.5,9644.75 4587.5,9636.58 4536.5,9628.5C 4541.79,9589.87 4546.79,9551.2 4551.5,9512.5C 4650.52,9526.06 4749.52,9539.73 4848.5,9553.5C 4835.43,9644.46 4822.6,9735.46 4810,9826.5C 4789.59,9840.79 4767.76,9852.63 4744.5,9862C 4669.77,9891.28 4592.44,9902.28 4512.5,9895C 4440.25,9887.69 4375.25,9862.35 4317.5,9819C 4267.01,9777.57 4233.51,9725.07 4217,9661.5C 4188.56,9547.27 4202.56,9438.6 4259,9335.5C 4316.58,9240.14 4401.08,9188.14 4512.5,9179.5 Z"/></g>
<g><path style="opacity:1" fill="#039943" d="M 3888.5,9212.5 C 3889.17,9219.83 3889.83,9227.17 3890.5,9234.5C 3891.73,9317.5 3893.06,9400.5 3894.5,9483.5C 3835.39,9464.47 3776.73,9444.47 3718.5,9423.5C 3775.19,9353.15 3831.86,9282.81 3888.5,9212.5 Z"/></g>
<g><path style="opacity:1" fill="#94cc1e" d="M 3888.5,9212.5 C 3888.56,9211.96 3888.89,9211.62 3889.5,9211.5C 3890.5,9219.14 3890.83,9226.8 3890.5,9234.5C 3889.83,9227.17 3889.17,9219.83 3888.5,9212.5 Z"/></g>
<g><path style="opacity:1" fill="#fef000" d="M 5289.5,9236.5 C 5299.52,9236.17 5309.52,9236.5 5319.5,9237.5C 5419.11,9464.38 5518.44,9691.38 5617.5,9918.5C 5569,9920.52 5520.5,9922.52 5472,9924.5C 5470.17,9924.17 5468.33,9923.83 5466.5,9923.5C 5444.96,9872.26 5423.3,9821.09 5401.5,9770C 5309.91,9772.07 5218.41,9775.23 5127,9779.5C 5109.87,9831.74 5093.03,9884.07 5076.5,9936.5C 5027.88,9939.36 4979.21,9941.36 4930.5,9942.5C 4932.82,9933.03 4935.66,9923.7 4939,9914.5C 5017.21,9690.38 5094.71,9466.05 5171.5,9241.5C 5211,9240.03 5250.33,9238.36 5289.5,9236.5 Z"/></g>
<g><path style="opacity:1" fill="#039943" d="M 5247.5,9402.5 C 5249.34,9403.12 5250.5,9404.46 5251,9406.5C 5285.07,9488.64 5318.57,9570.97 5351.5,9653.5C 5289.5,9655.57 5227.5,9657.57 5165.5,9659.5C 5192.06,9573.61 5219.39,9487.95 5247.5,9402.5 Z"/></g>
</svg>
