<?xml version="1.0" encoding="UTF-8"?>
<!DOCTYPE svg PUBLIC "-//W3C//DTD SVG 1.1//EN" "http://www.w3.org/Graphics/SVG/1.1/DTD/svg11.dtd">
<svg xmlns="http://www.w3.org/2000/svg" version="1.1" width="202px" height="250px" style="shape-rendering:geometricPrecision; text-rendering:geometricPrecision; image-rendering:optimizeQuality; fill-rule:evenodd; clip-rule:evenodd" xmlns:xlink="http://www.w3.org/1999/xlink">
<g><path style="opacity:1" fill="#fcfcfd" d="M -0.5,-0.5 C 29.8333,-0.5 60.1667,-0.5 90.5,-0.5C 76.5872,1.29974 63.5872,5.63307 51.5,12.5C 49.9382,12.7329 48.6049,13.3995 47.5,14.5C 46.9569,14.56 46.6236,14.8933 46.5,15.5C 82.5,16.8333 118.5,16.8333 154.5,15.5C 154.376,14.8933 154.043,14.56 153.5,14.5C 152.833,14.1667 152.167,13.8333 151.5,13.5C 144.655,10.0491 137.655,6.88248 130.5,4C 122.696,2.48109 115.03,0.981095 107.5,-0.5C 138.833,-0.5 170.167,-0.5 201.5,-0.5C 201.5,32.8333 201.5,66.1667 201.5,99.5C 134.167,99.5 66.8333,99.5 -0.5,99.5C -0.5,66.1667 -0.5,32.8333 -0.5,-0.5 Z"/></g>
<g><path style="opacity:1" fill="#0933ca" d="M 90.5,-0.5 C 96.1667,-0.5 101.833,-0.5 107.5,-0.5C 115.03,0.981095 122.696,2.48109 130.5,4C 137.655,6.88248 144.655,10.0491 151.5,13.5C 118.002,14.6642 84.3358,14.8309 50.5,14C 51.056,13.6174 51.3893,13.1174 51.5,12.5C 63.5872,5.63307 76.5872,1.29974 90.5,-0.5 Z"/></g>
<g><path style="opacity:1" fill="#193dbd" d="M 51.5,12.5 C 51.3893,13.1174 51.056,13.6174 50.5,14C 84.3358,14.8309 118.002,14.6642 151.5,13.5C 152.167,13.8333 152.833,14.1667 153.5,14.5C 118.167,15.8333 82.8333,15.8333 47.5,14.5C 48.6049,13.3995 49.9382,12.7329 51.5,12.5 Z"/></g>
<g><path style="opacity:1" fill="#acb9d9" d="M 47.5,14.5 C 82.8333,15.8333 118.167,15.8333 153.5,14.5C 154.043,14.56 154.376,14.8933 154.5,15.5C 118.5,16.8333 82.5,16.8333 46.5,15.5C 46.6236,14.8933 46.9569,14.56 47.5,14.5 Z"/></g>
<g><path style="opacity:1" fill="#0230c8" d="M 182.5,41.5 C 156.339,42.4978 130.005,42.8312 103.5,42.5C 88.4054,33.3188 73.4054,33.3188 58.5,42.5C 44.9895,42.8289 31.6562,42.4956 18.5,41.5C 21.2254,37.2714 24.5587,33.4381 28.5,30C 76.5,29.3333 124.5,29.3333 172.5,30C 175.969,33.8117 179.302,37.6451 182.5,41.5 Z"/></g>
<g><path style="opacity:1" fill="#9ca7de" d="M 18.5,41.5 C 31.6562,42.4956 44.9895,42.8289 58.5,42.5C 44.9942,43.8255 31.3276,43.8255 17.5,42.5C 17.6236,41.8933 17.9569,41.56 18.5,41.5 Z"/></g>
<g><path style="opacity:1" fill="#9aa5dd" d="M 182.5,41.5 C 183.043,41.56 183.376,41.8933 183.5,42.5C 156.67,43.8293 130.003,43.8293 103.5,42.5C 130.005,42.8312 156.339,42.4978 182.5,41.5 Z"/></g>
<g><path style="opacity:1" fill="#bccde5" d="M 11.5,53.5 C 23.3398,52.1755 35.3398,52.1755 47.5,53.5C 47.3764,54.1067 47.0431,54.44 46.5,54.5C 35.012,53.5051 23.3453,53.1717 11.5,53.5 Z"/></g>
<g><path style="opacity:1" fill="#bccee6" d="M 189.5,53.5 C 164.328,53.169 139.328,53.5023 114.5,54.5C 113.957,54.44 113.624,54.1067 113.5,53.5C 138.997,52.171 164.33,52.171 189.5,53.5 Z"/></g>
<g><path style="opacity:1" fill="#1133c7" d="M 11.5,53.5 C 23.3453,53.1717 35.012,53.5051 46.5,54.5C 44.8583,57.1025 43.1916,59.7692 41.5,62.5C 37.4515,59.9711 33.1182,58.3044 28.5,57.5C 27.036,56.8401 25.3693,56.5068 23.5,56.5C 20.5143,56.3817 17.8476,57.0483 15.5,58.5C 12.6572,59.1717 10.1572,60.505 8,62.5C 8.02286,59.1108 9.18953,56.1108 11.5,53.5 Z"/></g>
<g><path style="opacity:1" fill="#0c33c8" d="M 114.5,54.5 C 139.328,53.5023 164.328,53.169 189.5,53.5C 191.358,55.8831 192.692,58.5498 193.5,61.5C 179.539,63.4828 165.206,64.1495 150.5,63.5C 140.523,55.8649 130.19,55.5316 119.5,62.5C 118.312,59.4415 116.646,56.7749 114.5,54.5 Z"/></g>
<g><path style="opacity:1" fill="#899ad9" d="M 28.5,57.5 C 24.1311,57.4672 19.7978,57.8005 15.5,58.5C 17.8476,57.0483 20.5143,56.3817 23.5,56.5C 25.3693,56.5068 27.036,56.8401 28.5,57.5 Z"/></g>
<g><path style="opacity:1" fill="#cdd5f0" d="M 193.5,61.5 C 194.404,62.209 194.737,63.209 194.5,64.5C 179.657,64.8293 164.99,64.496 150.5,63.5C 165.206,64.1495 179.539,63.4828 193.5,61.5 Z"/></g>
<g><path style="opacity:1" fill="#092fc5" d="M 197.5,73.5 C 197.5,74.5 197.5,75.5 197.5,76.5C 191.833,76.5 186.167,76.5 180.5,76.5C 178.784,74.9752 176.784,73.9752 174.5,73.5C 170.5,70.8333 166.5,70.8333 162.5,73.5C 160.956,73.7031 159.622,74.3698 158.5,75.5C 157.05,74.3446 156.05,72.8446 155.5,71C 169.496,70.5001 183.496,70.3334 197.5,70.5C 197.5,71.5 197.5,72.5 197.5,73.5 Z"/></g>
<g><path style="opacity:1" fill="#a1afe3" d="M 174.5,73.5 C 170.5,72.1667 166.5,72.1667 162.5,73.5C 166.5,70.8333 170.5,70.8333 174.5,73.5 Z"/></g>
<g><path style="opacity:1" fill="#3d5dc7" d="M 197.5,73.5 C 198.434,74.5676 198.768,75.901 198.5,77.5C 192.31,77.8229 186.31,77.4896 180.5,76.5C 186.167,76.5 191.833,76.5 197.5,76.5C 197.5,75.5 197.5,74.5 197.5,73.5 Z"/></g>
<g><path style="opacity:1" fill="#909fd9" d="M 199.5,81.5 C 194.305,81.1795 189.305,81.5128 184.5,82.5C 183.957,82.44 183.624,82.1067 183.5,81.5C 188.986,80.1853 194.32,80.1853 199.5,81.5 Z"/></g>
<g><path style="opacity:1" fill="#0b2fc7" d="M 199.5,81.5 C 199.5,82.5 199.5,83.5 199.5,84.5C 194.833,84.5 190.167,84.5 185.5,84.5C 184.662,84.1583 184.328,83.4916 184.5,82.5C 189.305,81.5128 194.305,81.1795 199.5,81.5 Z"/></g>
<g><path style="opacity:1" fill="#4963c6" d="M 199.5,81.5 C 200.434,82.5676 200.768,83.901 200.5,85.5C 195.305,85.8205 190.305,85.4872 185.5,84.5C 190.167,84.5 194.833,84.5 199.5,84.5C 199.5,83.5 199.5,82.5 199.5,81.5 Z"/></g>
<g><path style="opacity:1" fill="#606060" d="M -0.5,99.5 C 66.8333,99.5 134.167,99.5 201.5,99.5C 201.5,100.5 201.5,101.5 201.5,102.5C 134.167,102.5 66.8333,102.5 -0.5,102.5C -0.5,101.5 -0.5,100.5 -0.5,99.5 Z"/></g>
<g><path style="opacity:1" fill="#fbfcfb" d="M -0.5,102.5 C 66.8333,102.5 134.167,102.5 201.5,102.5C 201.5,151.5 201.5,200.5 201.5,249.5C 189.5,249.5 177.5,249.5 165.5,249.5C 169.149,247.921 172.649,245.921 176,243.5C 176.499,238.845 176.666,234.179 176.5,229.5C 171.025,228.511 165.358,228.178 159.5,228.5C 159.5,230.833 159.5,233.167 159.5,235.5C 162.5,235.5 165.5,235.5 168.5,235.5C 169.437,239.73 167.771,242.23 163.5,243C 156.729,244.532 152.229,242.032 150,235.5C 149.121,230.713 149.455,226.047 151,221.5C 156.978,216.059 162.812,216.225 168.5,222C 170.81,222.497 173.143,222.663 175.5,222.5C 173.525,214.635 168.359,210.968 160,211.5C 148.219,211.948 142.052,218.114 141.5,230C 141.935,239.756 146.602,246.256 155.5,249.5C 136.167,249.5 116.833,249.5 97.5,249.5C 97.5,249.167 97.5,248.833 97.5,248.5C 98.4952,236.345 98.8286,224.011 98.5,211.5C 94.2984,211.183 90.2984,211.517 86.5,212.5C 85.6295,215.112 84.9628,217.779 84.5,220.5C 83.0762,222.515 82.4095,224.848 82.5,227.5C 81.9782,230.568 81.1449,233.568 80,236.5C 77.6036,228.542 75.437,220.542 73.5,212.5C 69.7016,211.517 65.7016,211.183 61.5,211.5C 61.1714,224.011 61.5048,236.345 62.5,248.5C 62.5,248.833 62.5,249.167 62.5,249.5C 41.5,249.5 20.5,249.5 -0.5,249.5C -0.5,200.5 -0.5,151.5 -0.5,102.5 Z"/></g>
<g><path style="opacity:1" fill="#1d9b19" d="M 53.5,118.5 C 36.3414,119.497 19.008,119.83 1.5,119.5C 1.5,118.167 1.5,116.833 1.5,115.5C 18.18,115.167 34.8467,115.501 51.5,116.5C 51.8555,117.522 52.5222,118.189 53.5,118.5 Z"/></g>
<g><path style="opacity:1" fill="#5eb35b" d="M 53.5,118.5 C 54.0431,118.56 54.3764,118.893 54.5,119.5C 36.6712,120.827 19.0045,120.827 1.5,119.5C 19.008,119.83 36.3414,119.497 53.5,118.5 Z"/></g>
<g><path style="opacity:1" fill="#48a047" d="M 59.5,124.5 C 40.4701,123.846 21.8034,124.513 3.5,126.5C 2.59603,125.791 2.26269,124.791 2.5,123.5C 21.674,123.17 40.674,123.503 59.5,124.5 Z"/></g>
<g><path style="opacity:1" fill="#effeee" d="M 62.5,127.5 C 107.458,128.49 152.458,128.823 197.5,128.5C 197.737,129.791 197.404,130.791 196.5,131.5C 152.511,129.671 108.178,128.837 63.5,129C 62.944,128.617 62.6107,128.117 62.5,127.5 Z"/></g>
<g><path style="opacity:1" fill="#019600" d="M 59.5,124.5 C 60.1667,125.833 61.1667,126.833 62.5,127.5C 62.6107,128.117 62.944,128.617 63.5,129C 108.178,128.837 152.511,129.671 196.5,131.5C 196.5,131.833 196.5,132.167 196.5,132.5C 153.906,133.494 111.239,133.828 68.5,133.5C 67.3734,132.878 66.3734,132.045 65.5,131C 44.836,130.5 24.1694,130.333 3.5,130.5C 3.5,129.167 3.5,127.833 3.5,126.5C 21.8034,124.513 40.4701,123.846 59.5,124.5 Z"/></g>
<g><path style="opacity:1" fill="#8dc88c" d="M 196.5,132.5 C 175.511,133.833 154.177,134.5 132.5,134.5C 110.997,134.5 89.664,134.167 68.5,133.5C 111.239,133.828 153.906,133.494 196.5,132.5 Z"/></g>
<g><path style="opacity:1" fill="#c7e5c6" d="M 193.5,139.5 C 162.841,138.167 131.841,137.5 100.5,137.5C 69.1594,137.5 38.1594,138.167 7.5,139.5C 6.59603,138.791 6.26269,137.791 6.5,136.5C 69.1667,136.5 131.833,136.5 194.5,136.5C 194.737,137.791 194.404,138.791 193.5,139.5 Z"/></g>
<g><path style="opacity:1" fill="#0d970b" d="M 193.5,139.5 C 192.463,140.93 191.796,142.597 191.5,144.5C 154.494,144.167 117.494,144.5 80.5,145.5C 80.6236,146.107 80.9569,146.44 81.5,146.5C 58.337,147.663 35.0036,147.83 11.5,147C 9.99577,144.486 8.66243,141.986 7.5,139.5C 38.1594,138.167 69.1594,137.5 100.5,137.5C 131.841,137.5 162.841,138.167 193.5,139.5 Z"/></g>
<g><path style="opacity:1" fill="#d4efd4" d="M 191.5,144.5 C 154.833,145.167 118.167,145.833 81.5,146.5C 80.9569,146.44 80.6236,146.107 80.5,145.5C 117.494,144.5 154.494,144.167 191.5,144.5 Z"/></g>
<g><path style="opacity:1" fill="#b5ddb7" d="M 186.5,152.5 C 153.167,151.167 119.833,151.167 86.5,152.5C 85.9569,152.44 85.6236,152.107 85.5,151.5C 119.5,150.167 153.5,150.167 187.5,151.5C 187.376,152.107 187.043,152.44 186.5,152.5 Z"/></g>
<g><path style="opacity:1" fill="#079805" d="M 86.5,152.5 C 119.833,151.167 153.167,151.167 186.5,152.5C 184.735,155.709 182.735,158.709 180.5,161.5C 152.498,161.333 124.498,161.5 96.5,162C 97.0659,162.995 97.7326,163.828 98.5,164.5C 100.167,166.833 102.167,168.833 104.5,170.5C 79.6722,171.498 54.6722,171.831 29.5,171.5C 25.4874,167.485 21.8207,163.152 18.5,158.5C 42.8425,158.833 67.1758,158.5 91.5,157.5C 91.3764,156.893 91.0431,156.56 90.5,156.5C 89.5,154.833 88.1667,153.5 86.5,152.5 Z"/></g>
<g><path style="opacity:1" fill="#9acc9b" d="M 90.5,156.5 C 91.0431,156.56 91.3764,156.893 91.5,157.5C 67.1758,158.5 42.8425,158.833 18.5,158.5C 42.5,157.833 66.5,157.167 90.5,156.5 Z"/></g>
<g><path style="opacity:1" fill="#c7e5c6" d="M 180.5,161.5 C 152.985,161.836 125.651,162.836 98.5,164.5C 97.7326,163.828 97.0659,162.995 96.5,162C 124.498,161.5 152.498,161.333 180.5,161.5 Z"/></g>
<g><path style="opacity:1" fill="#9acc9b" d="M 104.5,170.5 C 105.043,170.56 105.376,170.893 105.5,171.5C 80.0032,172.829 54.6699,172.829 29.5,171.5C 54.6722,171.831 79.6722,171.498 104.5,170.5 Z"/></g>
<g><path style="opacity:1" fill="#86c483" d="M 170.5,172.5 C 149.327,172.169 128.327,172.503 107.5,173.5C 106.957,173.44 106.624,173.107 106.5,172.5C 127.996,171.172 149.33,171.172 170.5,172.5 Z"/></g>
<g><path style="opacity:1" fill="#d5efd5" d="M 116.5,183.5 C 117.289,183.783 117.956,184.283 118.5,185C 94.6631,185.168 70.9965,185.668 47.5,186.5C 46.9569,186.44 46.6236,186.107 46.5,185.5C 69.9965,184.833 93.3298,184.167 116.5,183.5 Z"/></g>
<g><path style="opacity:1" fill="#089805" d="M 170.5,172.5 C 165.771,177.561 160.438,181.894 154.5,185.5C 143.147,185.168 131.814,185.501 120.5,186.5C 120.624,187.107 120.957,187.44 121.5,187.5C 123.962,190.464 126.629,193.297 129.5,196C 100.755,204.59 73.4219,201.423 47.5,186.5C 70.9965,185.668 94.6631,185.168 118.5,185C 117.956,184.283 117.289,183.783 116.5,183.5C 113.471,180.141 110.471,176.808 107.5,173.5C 128.327,172.503 149.327,172.169 170.5,172.5 Z"/></g>
<g><path style="opacity:1" fill="#b5deb6" d="M 154.5,185.5 C 143.5,186.167 132.5,186.833 121.5,187.5C 120.957,187.44 120.624,187.107 120.5,186.5C 131.814,185.501 143.147,185.168 154.5,185.5 Z"/></g>
<g><path style="opacity:1" fill="#6c6c6c" d="M 127.5,212.5 C 130.687,211.194 134.02,211.194 137.5,212.5C 137.376,213.107 137.043,213.44 136.5,213.5C 133.713,212.523 130.713,212.19 127.5,212.5 Z"/></g>
<g><path style="opacity:1" fill="#0b0b0b" d="M 168.5,235.5 C 165.5,235.5 162.5,235.5 159.5,235.5C 159.5,233.167 159.5,230.833 159.5,228.5C 165.358,228.178 171.025,228.511 176.5,229.5C 176.666,234.179 176.499,238.845 176,243.5C 172.649,245.921 169.149,247.921 165.5,249.5C 162.167,249.5 158.833,249.5 155.5,249.5C 146.602,246.256 141.935,239.756 141.5,230C 142.052,218.114 148.219,211.948 160,211.5C 168.359,210.968 173.525,214.635 175.5,222.5C 173.143,222.663 170.81,222.497 168.5,222C 162.812,216.225 156.978,216.059 151,221.5C 149.455,226.047 149.121,230.713 150,235.5C 152.229,242.032 156.729,244.532 163.5,243C 167.771,242.23 169.437,239.73 168.5,235.5 Z"/></g>
<g><path style="opacity:1" fill="#080808" d="M 47.5,212.5 C 53.1274,214.588 54.9608,218.588 53,224.5C 52.2155,226.286 51.0488,227.786 49.5,229C 56.0168,233.245 57.1835,238.745 53,245.5C 51.3523,246.717 49.519,247.55 47.5,248C 40.1742,248.5 32.8409,248.666 25.5,248.5C 25.5,236.5 25.5,224.5 25.5,212.5C 32.8333,212.5 40.1667,212.5 47.5,212.5 Z"/></g>
<g><path style="opacity:1" fill="#030303" d="M 73.5,212.5 C 75.437,220.542 77.6036,228.542 80,236.5C 81.1449,233.568 81.9782,230.568 82.5,227.5C 83.9238,225.485 84.5905,223.152 84.5,220.5C 84.9628,217.779 85.6295,215.112 86.5,212.5C 90.1667,212.5 93.8333,212.5 97.5,212.5C 97.5,224.5 97.5,236.5 97.5,248.5C 95.5,248.5 93.5,248.5 91.5,248.5C 91.6665,239.161 91.4998,229.827 91,220.5C 90.2086,221.745 89.7086,223.078 89.5,224.5C 87.4999,232.501 85.4999,240.501 83.5,248.5C 81.076,248.808 78.7427,248.474 76.5,247.5C 74.91,239.729 72.91,232.063 70.5,224.5C 70.2914,223.078 69.7914,221.745 69,220.5C 68.5002,229.827 68.3335,239.161 68.5,248.5C 66.5,248.5 64.5,248.5 62.5,248.5C 62.5,236.5 62.5,224.5 62.5,212.5C 66.1667,212.5 69.8333,212.5 73.5,212.5 Z"/></g>
<g><path style="opacity:1" fill="#9b9b9b" d="M 86.5,212.5 C 90.2984,211.517 94.2984,211.183 98.5,211.5C 98.8286,224.011 98.4952,236.345 97.5,248.5C 97.5,236.5 97.5,224.5 97.5,212.5C 93.8333,212.5 90.1667,212.5 86.5,212.5 Z"/></g>
<g><path style="opacity:1" fill="#060606" d="M 105.5,212.5 C 107.833,212.5 110.167,212.5 112.5,212.5C 112.173,217.544 112.506,222.544 113.5,227.5C 114.107,227.376 114.44,227.043 114.5,226.5C 118.805,221.859 123.139,217.193 127.5,212.5C 130.713,212.19 133.713,212.523 136.5,213.5C 132.49,217.835 128.49,222.168 124.5,226.5C 129.042,233.752 133.709,240.919 138.5,248C 135.118,248.824 131.784,248.657 128.5,247.5C 125.653,241.794 122.32,236.461 118.5,231.5C 113.251,235.849 111.251,241.516 112.5,248.5C 110.167,248.5 107.833,248.5 105.5,248.5C 105.5,236.5 105.5,224.5 105.5,212.5 Z"/></g>
<g><path style="opacity:1" fill="#919191" d="M 105.5,212.5 C 107.948,211.527 110.615,211.194 113.5,211.5C 113.179,216.695 113.513,221.695 114.5,226.5C 114.44,227.043 114.107,227.376 113.5,227.5C 112.506,222.544 112.173,217.544 112.5,212.5C 110.167,212.5 107.833,212.5 105.5,212.5 Z"/></g>
<g><path style="opacity:1" fill="#434343" d="M 47.5,212.5 C 40.1667,212.5 32.8333,212.5 25.5,212.5C 25.5,224.5 25.5,236.5 25.5,248.5C 24.5048,236.345 24.1714,224.011 24.5,211.5C 32.3516,211.175 40.0182,211.508 47.5,212.5 Z"/></g>
<g><path style="opacity:1" fill="#a6a6a6" d="M 73.5,212.5 C 69.8333,212.5 66.1667,212.5 62.5,212.5C 62.5,224.5 62.5,236.5 62.5,248.5C 61.5048,236.345 61.1714,224.011 61.5,211.5C 65.7016,211.183 69.7016,211.517 73.5,212.5 Z"/></g>
<g><path style="opacity:1" fill="#828282" d="M 44.5,218.5 C 40.5,218.5 36.5,218.5 32.5,218.5C 32.5,221.167 32.5,223.833 32.5,226.5C 31.5233,223.713 31.19,220.713 31.5,217.5C 36.0323,217.182 40.3656,217.515 44.5,218.5 Z"/></g>
<g><path style="opacity:1" fill="#f7f7f7" d="M 44.5,218.5 C 47.1402,220.879 47.1402,223.379 44.5,226C 40.5138,226.499 36.5138,226.666 32.5,226.5C 32.5,223.833 32.5,221.167 32.5,218.5C 36.5,218.5 40.5,218.5 44.5,218.5 Z"/></g>
<g><path style="opacity:1" fill="#8c8c8c" d="M 70.5,224.5 C 69.8333,232.5 69.1667,240.5 68.5,248.5C 68.3335,239.161 68.5002,229.827 69,220.5C 69.7914,221.745 70.2914,223.078 70.5,224.5 Z"/></g>
<g><path style="opacity:1" fill="#878787" d="M 84.5,220.5 C 84.5905,223.152 83.9238,225.485 82.5,227.5C 82.4095,224.848 83.0762,222.515 84.5,220.5 Z"/></g>
<g><path style="opacity:1" fill="#ebebeb" d="M 70.5,224.5 C 72.91,232.063 74.91,239.729 76.5,247.5C 78.7427,248.474 81.076,248.808 83.5,248.5C 85.4999,240.501 87.4999,232.501 89.5,224.5C 90.1667,232.5 90.8333,240.5 91.5,248.5C 93.5,248.5 95.5,248.5 97.5,248.5C 97.5,248.833 97.5,249.167 97.5,249.5C 85.8333,249.5 74.1667,249.5 62.5,249.5C 62.5,249.167 62.5,248.833 62.5,248.5C 64.5,248.5 66.5,248.5 68.5,248.5C 69.1667,240.5 69.8333,232.5 70.5,224.5 Z"/></g>
<g><path style="opacity:1" fill="#7d7d7d" d="M 91.5,248.5 C 90.8333,240.5 90.1667,232.5 89.5,224.5C 89.7086,223.078 90.2086,221.745 91,220.5C 91.4998,229.827 91.6665,239.161 91.5,248.5 Z"/></g>
<g><path style="opacity:1" fill="#737373" d="M 176.5,229.5 C 171.167,229.5 165.833,229.5 160.5,229.5C 160.5,231.167 160.5,232.833 160.5,234.5C 163.385,234.194 166.052,234.527 168.5,235.5C 166.052,234.527 163.385,234.194 160.5,234.5C 160.5,232.833 160.5,231.167 160.5,229.5C 165.833,229.5 171.167,229.5 176.5,229.5 Z"/></g>
<g><path style="opacity:1" fill="#f0f0f0" d="M 32.5,232.5 C 36.8461,232.334 41.1794,232.501 45.5,233C 48.9779,235.706 49.3112,238.706 46.5,242C 41.8452,242.499 37.1785,242.666 32.5,242.5C 32.5,239.167 32.5,235.833 32.5,232.5 Z"/></g>
</svg>
