<svg width="60" height="60" viewBox="0 0 60 60" fill="none" xmlns="http://www.w3.org/2000/svg" aria-labelledby="title">
  <title>IoT Chip with Wi-Fi</title>
  <!-- Board / card -->
  <rect x="3.75" y="3.75" width="52.5" height="52.5" rx="6" fill="none" stroke="#5810ff" stroke-width="3"/>

  <!-- Microchip body -->
  <rect x="17.5" y="20" width="25" height="20" rx="3" fill="none" stroke="#5810ff" stroke-width="3"/>

  <!-- Chip pins (top/bottom) -->
  <rect x="21" y="16" width="3" height="6" fill="#5810ff"/>
  <rect x="27" y="16" width="3" height="6" fill="#5810ff"/>
  <rect x="33" y="16" width="3" height="6" fill="#5810ff"/>
  <rect x="39" y="16" width="3" height="6" fill="#5810ff"/>

  <rect x="21" y="40" width="3" height="6" fill="#5810ff"/>
  <rect x="27" y="40" width="3" height="6" fill="#5810ff"/>
  <rect x="33" y="40" width="3" height="6" fill="#5810ff"/>
  <rect x="39" y="40" width="3" height="6" fill="#5810ff"/>

  <!-- Chip pins (left/right) -->
  <rect x="14" y="23" width="6" height="3" fill="#5810ff"/>
  <rect x="14" y="29" width="6" height="3" fill="#5810ff"/>
  <rect x="14" y="35" width="6" height="3" fill="#5810ff"/>

  <rect x="40" y="23" width="6" height="3" fill="#5810ff"/>
  <rect x="40" y="29" width="6" height="3" fill="#5810ff"/>
  <rect x="40" y="35" width="6" height="3" fill="#5810ff"/>

  <!-- Chip core -->
  <circle cx="30" cy="30" r="5" fill="none" stroke="#5810ff" stroke-width="3"/>

  <!-- Wi-Fi waves (kanan atas) -->
  <path d="M38 14c4-4 10-4 14 0" stroke="#5810ff" stroke-width="3" stroke-linecap="round" fill="none"/>
  <path d="M41 17c2.7-2.7 7.3-2.7 10 0" stroke="#5810ff" stroke-width="3" stroke-linecap="round" fill="none"/>
  <path d="M44 20c1.3-1.3 3.7-1.3 5 0" stroke="#5810ff" stroke-width="3" stroke-linecap="round" fill="none"/>

  <!-- Small sensor node + link (kiri bawah) -->
  <circle cx="12" cy="46" r="3" fill="#5810ff"/>
  <circle cx="22" cy="46" r="2" fill="#5810ff"/>
  <path d="M14.5 46H19.5" stroke="#5810ff" stroke-width="2" stroke-linecap="round"/>
</svg>
